<?xml version="1.0" encoding="utf-8"?>
<!-- Generator: Adobe Illustrator 25.4.1, SVG Export Plug-In . SVG Version: 6.00 Build 0)  -->
<svg version="1.1" id="Layer_1" xmlns="http://www.w3.org/2000/svg" xmlns:xlink="http://www.w3.org/1999/xlink" x="0px" y="0px"
	 viewBox="0 0 531 314" style="enable-background:new 0 0 531 314;" xml:space="preserve">
<style type="text/css">
	.st0{fill:#FFFFFF;}
	.st1{fill:#867359;}
</style>
<path class="st0" d="M74.6,105.7c-0.1,0.4-0.2,0.9-0.2,1.3v0.5c-0.2,0.4-0.2,0.7-0.3,1.1c0,0.3-0.1,0.5-0.2,0.7
	c-0.1,0.3-0.2,0.6-0.3,0.9c-0.1,0.3-0.2,0.6-0.2,0.9c-0.1,0.7-0.2,1.1-0.2,1.2s0,0.1-0.1,0.2c-0.2,0.6-0.3,1.2-0.3,1.9
	c-0.1,0.3-0.2,0.6-0.2,0.9c0,0.1,0,0.2,0,0.3c-0.3,0.7-0.5,1-0.4,1.1c-0.1,0.6-0.2,1.2-0.2,1.8c0,0.4-0.1,0.8-0.2,1.2
	c-0.1,0.7-0.2,1-0.2,1.1s-0.1,0.2-0.2,0.3c0.1,0.4,0.1,0.8,0,1.1c-0.1,0.1-0.1,0.3-0.1,0.4c-0.1,0.2-0.2,0.4-0.2,0.7v0.7
	c-0.1,0.2-0.1,0.4-0.1,0.5c0,0.2,0,0.4-0.1,0.6c0,0.4,0,0.7,0,1.1c0,0.1,0,0.2,0,0.3c0,0.3,0,0.7-0.1,1c-0.1,0.2-0.1,0.3-0.1,0.5
	c0.1,0.3,0.1,0.6,0,0.8c-0.1,0.3,0,0.5,0.1,0.7c-0.2,0.4-0.3,0.8-0.3,1.3s-0.1,1-0.2,1.5c-0.1,0.3-0.2,0.7-0.2,1.1
	c0,0.2,0,0.5-0.1,0.7s-0.2,0.3-0.4,0.5c-0.2,0.1-0.2,0.4-0.1,0.5c0,0,0,0.1,0.1,0.1c-0.3,0-0.7,0.2-0.8,0.5
	c-0.2,0.3-0.5,0.6-0.9,0.6c-0.2-0.1-0.4-0.2-0.5-0.3c-0.2-0.2-0.4-0.3-0.6-0.4c-0.4-0.1-0.8-0.2-1.1-0.3c-0.1-0.1-0.2-0.1-0.3-0.2
	c-0.2,0.1-0.5,0-0.6-0.1c-0.2-0.1-0.4-0.2-0.5-0.3c-0.4-0.1-0.8-0.2-1.2-0.4c-0.2-0.1-0.3-0.1-0.5-0.2c-0.3-0.1-0.7-0.2-1-0.3
	c-0.1-0.1-0.2-0.1-0.3,0c-0.3-0.3-0.7-0.4-1.1-0.3c-0.1-0.2-0.3-0.3-0.5-0.3c-0.3-0.1-0.5-0.1-0.7-0.2l-1.1-0.3
	c-0.6-0.5-1.3-0.8-2.1-0.9c-0.2-0.2-0.4-0.3-0.6-0.4c-0.2-0.1-0.4-0.2-0.6-0.3l-1-0.5c-0.4-0.3-0.8-0.6-1.2-0.8
	c-0.5-0.4-1-0.7-1.3-0.9c-0.1-0.2-0.2-0.4-0.3-0.5c-0.1-0.2-0.3-0.3-0.4-0.6c-0.2-0.4-0.3-0.8-0.3-1.3c0-0.4,0.1-0.9,0.4-1.2
	c0-0.3,0.1-0.6,0.1-0.8c0-0.1,0-0.2,0-0.2c0-0.4,0.1-0.9,0.3-1.3c-0.1-0.2,0-0.4,0.1-0.6s0.2-0.4,0.2-0.6c0-0.4,0-0.8,0.1-1.2
	c0.1-0.2,0.1-0.5,0.1-0.7l0.5-1l0.4-1.4l0.3-1.1c-0.1-0.5,0-1,0.1-1.5c0.1-0.4,0.2-0.8,0.4-1.2c0.1-0.5,0.3-1,0.5-1.5
	c0.1-1,0.2-1.6,0.2-1.9s0.1-0.6,0.1-0.9c0.3-0.5,0.5-1.1,0.5-1.7c0.1-0.2,0.1-0.4,0.2-0.6c0.1-0.2,0.2-0.5,0.3-0.7
	c-0.2-0.3-0.2-0.7,0-1s0.3-0.7,0.3-1.1c0.2-0.3,0.3-0.6,0.4-0.9c0-0.2,0-0.4,0.1-0.5c0.1-0.2,0.2-0.6,0.3-1.1c0-0.5,0-1,0.1-1.5
	c0.1-0.2,0.1-0.4,0.1-0.5s0.1-0.3,0.2-0.6c0-0.3,0.1-0.6,0.2-0.9c0.1-0.2,0.1-0.3,0.1-0.5c0-0.3,0-0.7,0-1c0-0.1,0-0.2,0-0.2
	c0.1-0.2,0.1-0.4,0.1-0.6s0.1-0.4,0.2-0.6c0.1-0.4,0.2-0.9,0.3-1.3s0.2-0.8,0.3-1.2v-1.4c0.2-0.5,0.3-0.9,0.3-1s0-0.3,0-0.4l0.5-1.3
	c0-0.2,0-0.5,0.2-0.7c0.1-0.2,0.1-0.4,0.2-0.6c0.1-0.7,0.1-1.1,0.1-1.3c0-0.2,0.1-0.4,0.2-0.5c0-0.6,0.1-1.1,0.3-1.7
	c0.1-0.3,0.2-0.7,0.3-1c0-0.3,0-0.6,0-0.9s0-0.6,0.2-0.9l0.4-1.2c0-0.4,0-0.9,0.1-1.3c0.1-0.5,0.2-1.1,0.3-1.6
	c0.1-0.2,0.2-0.4,0.2-0.6c0-0.6,0-0.9,0.1-0.9s0.1-0.1,0.1-0.2c0.1-0.6,0.2-1.1,0.3-1.7c0.1-0.3,0.1-0.6,0-0.9
	c0.1-0.2,0.2-0.4,0.2-0.7c0-0.3,0-0.6,0.1-0.9c0-0.2,0-0.3,0-0.5c0-0.2,0-0.4,0-0.6c0-0.5,0.1-1,0.2-1.5c0-0.6,0.2-1.3,0.6-1.8
	c0-0.4,0.1-0.8,0.3-1.1c0.2-0.5,0.4-1,0.5-1.6c0.3-0.3,0.5-0.6,0.7-1c0-0.1,0-0.2,0.1-0.3c0.3-0.5,0.5-0.8,0.5-0.9s0-0.2,0-0.3
	c0.6,0,1.1-0.2,1.6-0.5c0.6-0.2,0.9-0.2,1-0.1c0.1,0.1,0.2,0.1,0.3,0c0.4-0.1,0.8-0.1,1.2,0c0.1,0.1,0.3,0.1,0.4,0.1
	c0.4-0.1,0.9-0.1,1.3,0c0.1,0,0.3,0,0.4,0c0.5,0,1,0,1.4-0.1s0.8-0.1,1.1,0c0.6-0.1,1.1,0,1.7,0.2c0.5-0.1,0.9-0.1,1.4-0.1H78
	c0.4-0.1,0.8-0.1,1.2-0.1c0.2,0,0.3,0.1,0.5,0.1c0.4,0.1,0.8,0.1,1.2,0c0.3-0.1,0.6-0.1,0.9,0c0.3,0,0.6,0.1,0.8,0.2
	c0.2,0.1,0.5,0.2,0.7,0.2c0.3,0.2,0.5,0.5,0.6,0.8c0,0.1,0,0.2,0.1,0.2l0.6,1c0.3,0.7,0.4,1.1,0.5,1.3c0,0.1,0.1,0.3,0.1,0.4
	c0,0.4,0.2,0.9,0.4,1.3c0.2,0.5,0.3,1,0.4,1.6c0.2,0.5,0.4,1.1,0.5,1.6c0,0.3,0.1,0.6,0.3,0.7c-0.1,0.2-0.1,0.4,0,0.5
	c0.1,0.2,0.2,0.4,0.2,0.5c0.1,0.7,0.2,1.1,0.2,1.3c0,0.2,0.1,0.3,0.2,0.5c0.2,0.4,0.4,0.8,0.5,1.3c0,0.2,0,0.3,0.2,0.3
	c-0.1,0.1-0.1,0.3,0,0.5c0.1,0.2,0.2,0.4,0.2,0.6c0,0.2,0,0.4-0.1,0.6c0,0.3,0,0.5,0.2,0.7c0.1,0.5,0.2,0.7,0.3,0.8
	c0.1,0.1,0.2,0.1,0.2,0.2l0.4,2c0.2,0.4,0.2,0.7,0.2,1.1c0,0.2,0,0.2,0.2,0.2c-0.1,0.2-0.1,0.4,0,0.6s0.2,0.4,0.4,0.5
	c0.1,0.6,0.1,1,0.1,1.2s0.1,0.4,0.2,0.6c0.2,0.7,0.4,1,0.5,1c-0.1,0.2-0.1,0.4,0,0.6s0.2,0.4,0.3,0.6c0.1,0.7,0.2,1.2,0.3,1.5
	c0.1,0.3,0.2,0.6,0.3,0.9c0.7,0.4,1,0.5,1.1,0.2s0.2-0.6,0.1-0.8c0.3-0.3,0.5-0.7,0.7-1.1c0-0.1,0.1-0.3,0.2-0.3
	c0.3-0.5,0.4-1.1,0.5-1.7c0-0.3,0.1-0.7,0.2-1c0.2-0.3,0.4-0.7,0.5-1.1c0-0.2,0-0.3,0.1-0.4c0.1-0.4,0.3-0.8,0.4-1.2
	c0.2-0.4,0.4-0.7,0.7-1.1c0.2-0.7,0.3-1.2,0.4-1.6s0.2-0.8,0.3-1.2c0.1-0.4,0.3-0.8,0.4-1.1c0.1-0.2,0.2-0.3,0.3-0.4
	c0.2-0.8,0.3-1.2,0.4-1.2c0,0,0.1,0,0.1-0.1l0,0c0.1-0.6,0.4-1.2,0.8-1.7c0.1-0.3,0.1-0.7,0.2-1c0-0.1,0.1-0.1,0.2,0
	c0.1-0.5,0.2-1,0.3-1.5c0.1-0.2,0.1-0.4,0.2-0.6c0.1-0.3,0.2-0.6,0.3-0.9c0.1-0.2,0.2-0.5,0.3-0.7c0.2-0.3,0.3-0.6,0.3-1
	c0-0.1,0-0.2,0.2-0.2c-0.1-0.2-0.1-0.5,0-0.7c0.1-0.2,0.2-0.5,0.3-0.8c0.2-0.4,0.4-0.8,0.4-1.3c0-0.1,0.1-0.3,0.2-0.3l0.5-1.1
	c0.1-0.2,0.2-0.3,0.3-0.5c0-0.4,0.2-0.9,0.5-1.2c0.2-0.2,0.4-0.5,0.5-0.7c0.4,0,0.9,0,1.3,0c0.1,0,0.3,0,0.4,0
	c0.2,0,0.4-0.1,0.6-0.2c0.1-0.1,0.3-0.1,0.5-0.1c0.3,0,0.6,0.1,0.8,0.2c0.3,0.2,0.6,0.1,0.9-0.1c0.7,0.1,1.2,0.1,1.5,0.1
	c0.3-0.1,0.6-0.2,0.9-0.2s0.5-0.1,0.7-0.2c0.4-0.1,0.9-0.1,1.3,0c0.1,0.1,0.3,0.1,0.4,0.2c0.3-0.1,0.7-0.2,1.1-0.1
	c0.2,0.1,0.3,0.1,0.5,0.1h1.7c0.5,0.1,1,0.1,1.4-0.1c0.2-0.1,0.4-0.2,0.5-0.2c0.5,0,0.9,0.1,1.3,0.3s0.9,0.2,1.3,0.1
	c0.3,0.2,0.7,0.4,1,0.6c0.1,0.1,0.2,0.2,0.2,0.4c0.3,0.4,0.5,0.8,0.7,1.2c0,0.2,0,0.3,0.1,0.4c0.3,0.4,0.6,0.9,0.6,1.5
	c0,0.3,0,0.6,0,0.9c0,0.2,0,0.4,0.1,0.5c0.1,0.2,0.1,0.3,0.2,0.5s0.2,0.6,0.3,1.1c0.1,0.3,0.1,0.7,0.3,1c0.1,0.2,0.1,0.4,0.1,0.6
	c0.1,0.5,0.2,1,0.2,1.5c0,0.3,0,0.6,0.1,0.8c0,0.3,0.1,0.6,0.2,0.9c0.1,0.3,0.3,0.6,0.4,0.9c0.2,0.5,0.4,1,0.4,1.6
	c0,0.2,0,0.5,0.1,0.7c0.2,0.3,0.3,0.6,0.2,0.9c0,0.2,0,0.4,0,0.6c0.2,0.6,0.4,1.2,0.4,1.8c0,0.4,0.1,0.7,0.2,1.1
	c0.1,0.3,0.2,0.7,0.3,1c0.1,0.4,0.2,0.8,0.3,1.1c0,0.5,0.1,0.9,0.2,1.4c0.1,0.2,0.1,0.3,0.2,0.5c0.1,0.5,0.2,0.9,0.2,1.2
	c0,0.3,0.1,0.5,0.1,0.8c0.2,0.5,0.2,1,0.2,1.5c0,0.3,0,0.6,0,0.8c0.1,0.5,0.2,0.9,0.2,1s0,0.3,0,0.4c0.1,0.2,0.1,0.5,0,0.7
	s0,0.4,0.3,0.5c-0.1,0.2-0.1,0.4,0,0.6l0.3,0.5c0,0.4,0.1,0.7,0.2,1.1c0,0.4,0,0.8,0.1,1.2c0.2,0.4,0.3,0.8,0.4,1.2
	c0,0.2,0,0.3,0.1,0.5l0.4,1.1c0,0.5,0.1,1,0.2,1.5c0.1,0.2,0.1,0.5,0.1,0.7c0,0.5,0.1,1.1,0.2,1.6c0.1,0.3,0.1,0.6,0.2,0.9
	c0.2,0.4,0.3,0.9,0.3,1.4s0,1,0.1,1.6s0.2,1.2,0.3,1.8c0.1,0.6,0.3,1.2,0.4,1.7s0.3,1,0.3,1.1c0,0.4,0.1,0.9,0.2,1.3
	c0.1,0.2,0.2,0.4,0.3,0.6c-0.1,0.4,0.1,0.9,0.3,1.2c0.2,0.4,0.4,0.8,0.5,1.2c0,0.3,0.1,0.5,0.2,0.8c0,0.1,0.1,0.2,0.2,0.3
	c0.1,0.3,0.2,0.7,0.3,1c0.1,0.2,0.1,0.3,0.2,0.4l0.4,1.4c0.2,0.6,0.3,1.2,0.4,1.9c0.1,0.2,0.2,0.4,0.2,0.6s0.1,0.4,0.2,0.6
	c0.1,0.2,0.1,0.4,0.2,0.6c0,0.2,0.1,0.4,0.2,0.5c0,0.7,0.1,1.5,0.4,2.2c0.1,0.3,0.1,0.6,0.1,0.9v0.7c0.1,0.5,0.2,0.9,0.1,1.4
	c-0.1,0.3-0.1,0.6,0,0.8c-0.3,0.3-0.5,0.5-0.8,0.8c-0.1,0.1-0.1,0.2-0.2,0.2c-0.4,0.3-0.8,0.5-1.2,0.6c-0.1,0-0.3,0.1-0.4,0.2
	c-0.4,0.1-0.7,0.2-1.1,0.3l-0.4,0.2c-0.5,0.1-1.1,0.3-1.6,0.6c-0.3,0.2-0.6,0.3-0.9,0.3l-1,0.4c-0.3,0.1-0.7,0.3-1,0.5
	c-0.3,0-0.6,0.1-0.9,0.2l-0.4,0.2c-0.5,0.1-0.8,0.2-1,0.3s-0.4,0.1-0.7,0.2c-0.4,0-0.7,0-1.1,0.1c-0.4,0.2-0.7,0.4-1,0.7
	c-0.7,0.1-1.1,0.2-1,0.3s0,0.2-0.1,0.2c-0.2-0.1-0.4,0-0.6,0.1c-0.1,0.1-0.3,0.2-0.5,0.2c-0.3,0-0.6-0.1-0.9-0.3
	c-0.3-0.2-0.7-0.3-1-0.2c-0.2-0.4-0.4-0.8-0.7-1.1c-0.1-0.1-0.1-0.2-0.1-0.3c0,0,0,0,0.1-0.1c-0.2-0.3-0.4-0.6-0.5-0.9
	c0-0.1-0.1-0.3-0.2-0.4c-0.1-0.4-0.2-0.9-0.1-1.4c0-0.4-0.1-0.8-0.2-1.2c-0.1-0.3-0.1-0.6,0-0.9l-0.3-2c-0.1-0.5-0.2-0.9-0.2-1.4
	s0-0.9-0.2-1.4c-0.1-0.3-0.2-0.7-0.3-1c0-0.5,0-0.9-0.1-1.4l-0.3-1.4c-0.1-0.3-0.1-0.6-0.2-0.9s-0.1-0.6-0.2-0.9
	c0-0.2,0-0.5-0.2-0.7c-0.1-0.2-0.2-0.4-0.2-0.6s0-0.4-0.1-0.6c0-0.3,0-0.6,0-0.8c0-0.2,0-0.5-0.1-0.7s-0.1-0.3-0.2-0.4
	c-0.2-0.4-0.3-0.7-0.2-1.1c0-0.3,0-0.5-0.1-0.7c-0.2-0.4-0.3-0.9-0.3-1.4c0-0.1,0-0.2-0.1-0.5c0-0.3-0.1-0.5-0.2-0.7
	c-0.3-0.6-0.4-1.2-0.5-1.8c-0.1-0.4-0.1-0.8-0.2-1.1s-0.1-0.7-0.2-1.1s-0.2-0.7-0.3-1.1l-0.2-0.4c-0.2-0.2-0.3-0.5-0.3-0.8
	s0-0.6-0.1-0.9c-0.2-0.4-0.4-0.8-0.5-1.3l-0.3-1.1c-0.1-0.7-0.1-1.2-0.1-1.5c0-0.2,0-0.5-0.1-0.7s-0.1-0.4-0.2-0.6s-0.1-0.3,0-0.5
	c-0.1-0.3-0.3-0.7-0.4-1l-0.4-1L110,95l-0.7,1c-0.1,0.1-0.1,0.2-0.1,0.3c-0.1,0.3-0.3,0.6-0.5,0.9c-0.1,0.1-0.1,0.2-0.2,0.3
	c-0.1,0.5-0.3,1-0.5,1.5c-0.1,0.2-0.2,0.5-0.1,0.7c-0.4,0.4-0.5,1-0.5,1.6c-0.2,0.3-0.3,0.6-0.4,0.9s-0.2,0.7-0.3,1
	c-0.1,0.3-0.2,0.6-0.3,0.8s-0.2,0.5-0.3,0.8c-0.1,0.2-0.2,0.5-0.2,0.7s-0.1,0.4-0.2,0.5c-0.4,0.7-0.6,1.4-0.7,2.2
	c-0.2,0.4-0.4,0.8-0.6,1.2c-0.1,0.2-0.2,0.4-0.2,0.6c-0.3,0.5-0.5,1-0.5,1.6l-0.5,1.1c-0.1,0.3-0.1,0.6-0.2,0.9
	c-0.1,0.1-0.1,0.2-0.1,0.2c-0.1,0.3-0.2,0.6-0.2,0.8c0,0.2-0.1,0.4-0.2,0.6s-0.2,0.5-0.2,0.7s-0.1,0.3-0.2,0.4v1.2
	c0,0.1,0,0.2-0.1,0.3l-0.2,1.1c-0.1,0.4-0.3,0.8-0.5,1.2c-0.1,0.1-0.1,0.2-0.1,0.3c-0.1,0.4-0.2,0.8-0.3,1.3
	c-0.1,0.2-0.2,0.3-0.2,0.5s-0.1,0.4-0.2,0.5c-0.2,0.3-0.3,0.6-0.4,0.9c-0.1,0.2-0.1,0.4-0.2,0.6s-0.2,0.4-0.2,0.6s-0.1,0.5-0.2,0.6
	c0,0.4-0.1,0.8-0.3,1.2c-0.3,0.9-0.4,1.5-0.5,1.7s-0.1,0.5-0.2,0.8c-0.3,0.3-0.5,0.7-0.6,1.1c0,0.5-0.1,1.1-0.4,1.5
	c-0.1,0.1-0.2,0.3-0.1,0.5c-0.5,0.2-0.9,0.5-1.3,0.8c-0.1,0.1-0.2,0.2-0.3,0.2c-0.1,0.1-0.3,0.2-0.5,0.2s-0.4,0.1-0.6,0.2
	c-0.4-0.1-0.7-0.2-1.1-0.2c-0.1,0-0.3,0-0.4,0c-0.5,0-1-0.2-1.5-0.5c-0.5-0.5-0.8-0.7-1.1-0.7c0-0.3-0.1-0.6-0.2-0.8
	c-0.2-0.2-0.3-0.4-0.4-0.6c0.1-0.4,0-0.8-0.2-1.1c-0.3-0.3-0.4-0.7-0.3-1.1l-0.3-1.1c-0.2-0.5-0.4-1-0.5-1.5c-0.1-0.7-0.2-1-0.3-1.1
	s-0.1-0.2-0.1-0.3c-0.1-0.3-0.3-0.5-0.4-0.8c-0.2-0.3-0.2-0.6-0.2-0.8c-0.2-0.4-0.4-0.9-0.6-1.3c-0.1-0.2-0.1-0.4-0.2-0.6
	c-0.1-0.6-0.3-1.2-0.4-1.8c-0.1-0.3-0.2-0.5-0.3-0.7l-0.2-1.2c-0.1-0.2-0.2-0.4-0.3-0.6c-0.1-0.1-0.1-0.2-0.2-0.3
	c0-0.5-0.1-1.1-0.3-1.6c-0.1-0.3-0.2-0.6-0.3-0.9c0-0.1-0.1-0.2-0.1-0.3c-0.2-0.3-0.3-0.7-0.3-1.1c0-0.2,0-0.3-0.1-0.5
	s-0.2-0.4-0.3-0.6c-0.2-0.2-0.3-0.5-0.4-0.8c-0.2-0.4-0.3-0.8-0.3-1.2L83,109c-0.3-0.6-0.4-1.3-0.5-2c0-0.4-0.1-0.8-0.2-1.1
	c-0.1-0.3-0.2-0.6-0.3-0.9c-0.1-0.1-0.1-0.2-0.1-0.3c-0.2-0.5-0.3-1-0.4-1.5c-0.1-0.3-0.1-0.5-0.2-0.8c-0.3-0.5-0.4-0.8-0.3-0.8
	s0.1-0.1,0.1-0.2l-0.7-1.1L80,99.2c-0.3-0.4-0.5-0.9-0.6-1.4c-0.2-0.5-0.4-1-0.5-1.5c-0.1-0.1-0.2-0.2-0.3-0.5
	c-0.1-0.3-0.3-0.5-0.6-0.4c-0.2,0.1-0.4,0.3-0.4,0.5c-0.1,0.3-0.2,0.5-0.3,0.8c-0.2,0.6-0.4,1.1-0.5,1.6s-0.3,1-0.4,1.5
	c0,0.3-0.1,0.6-0.1,0.8l-0.1,0.3c-0.1,0.2-0.1,0.4-0.2,0.7c0,0.3-0.1,0.5-0.2,0.7c-0.3,0.8-0.5,1.5-0.6,2S74.7,105.3,74.6,105.7z"/>
<path class="st0" d="M195.1,129.3c-0.1,0.3-0.3,0.7-0.6,0.9c-0.1,0.1-0.2,0.3-0.2,0.4c-0.3,0.1-0.6,0.3-0.9,0.5
	c-0.3,0.2-0.6,0.5-0.9,0.7c-0.3,0.1-0.6,0.3-0.8,0.4l-0.6,0.4c-0.5,0.1-1,0.3-1.4,0.7c-0.2,0.1-0.4,0.1-0.5,0.2
	c-0.2,0.1-0.3,0.2-0.4,0.3c-0.3,0.1-0.7,0.2-1,0.3l-0.4,0.2L186,135c-0.3,0.2-0.7,0.4-1,0.5s-0.6,0.1-0.8,0c-0.4,0-0.9,0.1-1.3,0.2
	c-0.1,0-0.2,0-0.3,0c-0.3-0.2-0.7-0.4-1.1-0.4c-0.2,0-0.3,0-0.4-0.2c-0.2-0.2-0.3-0.4-0.5-0.6c-0.1-0.2-0.3-0.4-0.5-0.6
	c-0.1-0.4-0.2-0.7-0.3-1.1c-0.1-0.6-0.4-1.2-0.7-1.8c-0.1-0.8-0.3-1.5-0.7-2.2l-1.2,0.4c-0.8,0.3-1.6,0.7-2.3,1.2
	c-0.3,0.3-0.6,0.5-1,0.7c-0.2,0.1-0.5,0.2-0.7,0.2s-0.3,0.1-0.4,0.2l-1.2,0.7l-1.2,0.4l-1.3,0.4l-0.4,0.2l-1.1,0.5
	c-0.4,0.1-0.8,0.2-1.2,0.5c-0.2,0.2-0.6,0.3-0.9,0.3c-0.6,0.2-1.1,0.5-1.7,0.8c-0.6,0.2-1.1,0.4-1.7,0.4c-0.5,0-0.9,0.1-1.3,0.2
	c-0.7,0.3-1.1,0.4-1.2,0.3c-0.2,0-0.4,0-0.6,0.1c-0.2,0.1-0.4,0.1-0.5,0.1c-0.4,0-0.8,0-1.2,0c-0.2,0.1-0.4,0.1-0.5,0
	c-0.4-0.2-0.9-0.3-1.3-0.4c-0.2,0-0.3,0-0.4-0.1c-0.1-0.1-0.3-0.2-0.5-0.2c-0.2-0.1-0.4-0.2-0.6-0.3c-0.3,0.1-0.6,0-0.8-0.3
	c-0.2-0.2-0.4-0.4-0.6-0.6c-0.7-0.4-1-0.7-1.1-0.7c-0.1-0.1-0.2-0.2-0.3-0.2c-0.3-0.3-0.6-0.5-0.9-0.7c0,0-0.1,0-0.1-0.1
	c-0.6-0.7-0.9-1-0.8-1.1c-0.2-0.1-0.5-0.3-0.6-0.5c-0.2-0.2-0.3-0.4-0.5-0.6c-0.3-0.2-0.5-0.4-0.7-0.7c-0.1-0.1-0.2-0.2-0.3-0.3
	c0-0.3-0.2-0.6-0.4-0.9c-0.2-0.2-0.4-0.4-0.7-0.7c-0.1-0.3-0.2-0.6-0.3-0.8c-0.1-0.3-0.2-0.5-0.3-0.7c-0.2-0.6-0.4-0.9-0.5-1
	c0.1-0.4,0.1-0.8,0-1.2c-0.1-0.1-0.1-0.2-0.1-0.3c0-0.2,0-0.5,0-0.7s0-0.4,0-0.6c-0.1-0.3-0.2-0.7-0.2-1c0-0.2,0-0.4,0-0.6
	c-0.1-0.4-0.2-0.8-0.2-1.3c-0.1-0.4-0.1-0.8-0.2-1.3c0.1-0.2,0.1-0.4,0.2-0.5c0-0.2,0.1-0.4,0.2-0.5c0.1-0.4,0.1-0.8-0.1-1.2
	c-0.1-0.4-0.1-0.8,0-1.2c0-0.2,0-0.4,0.2-0.5s0.2-0.3,0.2-0.5c-0.1-0.3-0.1-0.6,0-0.8c0-0.2,0.1-0.4,0.1-0.5c0-0.3,0.1-0.5,0.3-0.7
	c0.1-0.1,0.2-0.1,0.2-0.2c0.1-0.4,0.3-0.8,0.5-1.2c0.5-0.7,0.7-1.1,0.8-1.2c0.7-0.8,1-1.4,1.2-1.6c0.3-0.4,0.8-0.7,1.4-0.7l0.8-1
	c0.3-0.3,0.6-0.5,1-0.7c0.3-0.2,0.6-0.4,0.9-0.6c0,0,0-0.1,0.1-0.2c0.3-0.2,0.6-0.4,0.9-0.5c0.1,0,0.1-0.1,0.1-0.2
	c0.6-0.2,1.1-0.4,1.7-0.7c0.2-0.1,0.5-0.1,0.7,0c0.6-0.6,1-0.9,1.1-0.9s0.3,0,0.4-0.1c0.3-0.2,0.6-0.4,0.9-0.7c0-0.1,0-0.1,0.1-0.1
	c0.2-0.1,0.4-0.2,0.6-0.2c0.2,0,0.5-0.2,0.6-0.3c0.3-0.2,0.7-0.3,1.1-0.4c0.2,0,0.3-0.1,0.4-0.2c0.4-0.1,0.9-0.2,1.3-0.4
	c0.1-0.1,0.3-0.2,0.4-0.3c0.4-0.1,0.8-0.3,1.2-0.5c0.3-0.1,0.5-0.3,0.7-0.4c0.1-0.1,0.2-0.2,0.3-0.2c0.6-0.1,0.9-0.3,1-0.5
	c0.4-0.1,0.8-0.4,1.1-0.6c0.2-0.2,0.5-0.4,0.8-0.5c-0.2-0.6-0.5-1.1-0.9-1.6c-0.1-0.3-0.1-0.5-0.1-0.8c0-0.1,0-0.2-0.1-0.3
	c-0.2-0.3-0.6-0.6-1-0.6c-0.3-0.2-0.5-0.4-0.8-0.6c-0.2-0.1-0.2-0.1-0.2,0.1c-0.1-0.1-0.3-0.2-0.5-0.1c-0.2,0-0.4,0-0.6,0H162
	c-0.2,0-0.5,0-0.7-0.1c-0.3,0-0.6,0-0.9,0c0,0-0.1-0.1-0.1,0l-1.1,0.1c-0.3,0-0.5,0-0.8,0.1c-0.3,0-0.6,0-0.9,0
	c-0.5,0.1-1,0.2-1.4,0.1c-0.2-0.1-0.4-0.1-0.5,0c-0.5,0.1-0.9,0.2-1.4,0.4c-0.3-0.2-0.7-0.2-1.1-0.1c-0.4,0.1-0.8,0.2-1.2,0.3
	c-0.3,0-0.6,0-0.9,0.1c-0.2,0.1-0.4,0.1-0.5,0.1l-1.9,0.2c-0.3-0.2-0.7-0.3-1.1-0.4c-0.4-0.4-0.6-0.6-0.7-0.6s-0.1-0.1-0.1-0.2
	c-0.5-0.5-0.8-0.9-0.9-1c-0.1-0.1-0.2-0.3-0.3-0.5c-0.2-0.3-0.3-0.6-0.4-0.7c-0.1-0.2-0.2-0.4-0.2-0.5c-0.1-0.9-0.2-1.5-0.3-1.8
	s-0.1-0.6,0-0.9c0-0.4,0-0.8,0.1-1.2c0.1-0.4,0-0.7-0.3-1c0.1-0.6,0.2-0.9,0.1-0.9c-0.1,0-0.1-0.1-0.1-0.2c0-0.7-0.1-1.3-0.2-2
	c-0.1-0.4-0.1-0.7,0-1.1s0.3-0.8,0.5-1.1c0.2-0.3,0.4-0.6,0.5-1c0.3-0.3,0.6-0.5,1-0.6c0,0,0.1,0,0.2,0c0.3,0,0.7-0.1,1-0.2
	c0,0,0.1,0,0.2,0c0.9-0.1,1.8-0.1,2.7,0l1.7,0.2c0.3,0,0.6,0,0.8,0c0.5-0.1,0.9-0.1,1.4,0.1c0.4,0.1,0.9,0.2,1.4,0.1
	c0.4-0.1,0.7-0.1,1.1-0.1c0.4,0.1,0.8,0.1,1.1,0c0.1-0.1,0.3-0.1,0.4-0.1c0.5,0.1,1,0.1,1.5,0c0.1-0.1,0.3-0.1,0.4,0
	c0.5-0.1,0.8-0.1,0.9-0.2c0.2,0,0.4,0,0.6,0c0.3,0.1,0.7,0.1,1,0c0.4,0,0.8,0,1.2,0l3.1-0.2c0.8,0,1.6,0,2.3,0.2l1.1,0.1
	c0.4,0,0.9,0.1,1.3,0.3c0.3,0.1,0.7,0.1,1,0c0.3,0.4,0.9,0.5,1.4,0.4c0.2,0.2,0.5,0.4,0.8,0.5c0.2,0.1,0.4,0.2,0.5,0.3
	c0.7,0,1.2,0.2,1.4,0.5l0.8,0.8h0.1c0.2,0.2,0.5,0.5,0.7,0.8c0.1,0.2,0.2,0.3,0.4,0.5c0.6,0.6,0.9,0.9,0.8,1c0,0.1,0,0.2,0.1,0.2
	c0.3,0.6,0.6,0.9,0.9,1c0.1,0.4,0.3,0.9,0.5,1.3c0.1,0.1,0.2,0.3,0.2,0.4c0.2,0.5,0.4,1,0.8,1.5v0c0,0.2,0,0.3,0.1,0.5
	c0.2,0.5,0.3,1,0.4,1.6c0.2,0.7,0.4,1.2,0.5,1.6c0.3,0.4,0.5,0.9,0.5,1.5c0,0.2,0,0.4,0.1,0.6c0.1,0.3,0.3,0.5,0.4,0.8
	c0,0.2,0.1,0.3,0.2,0.4l0.4,1.1c0.1,0.4,0.2,0.8,0.3,1.2c0,0.1,0,0.3,0.1,0.4c0.3,0.5,0.5,1,0.6,1.6c0,0.3,0,0.6,0.1,0.9
	c0.3,0.7,0.4,1,0.3,1.1c0,0.5,0.1,1,0.2,1.5c0,0.2,0.1,0.4,0.3,0.6c0.2,0.5,0.4,1.1,0.4,1.6c0,0.2,0,0.5,0,0.7
	c0.1,0.5,0.2,1,0.3,1.3s0.2,0.6,0.2,0.9s0.1,0.5,0.2,0.8c0.2,0.3,0.3,0.7,0.4,1.1c0,0,0,0,0,0.1c0.1,0.2,0.2,0.3,0.3,0.5
	c0.1,0.3,0.2,0.5,0.3,0.7c0.3,0.8,0.4,1.4,0.5,1.6l0.5,1.2c0.2,0.5,0.4,1.1,0.6,1.7s0.4,1.2,0.6,1.7c0.1,0.3,0.2,0.6,0.3,0.9
	c0.1,0.1,0.2,0.3,0.2,0.4c0.1,0.3,0.2,0.6,0.2,0.9s0.1,0.6,0.2,0.9c0.1,0.2,0.2,0.4,0.2,0.6l0.3,0.7c0.1,0.5,0.2,0.9,0.4,1.3
	c0.2,0.2,0.2,0.5,0.2,0.8c0.4,0.8,0.6,1.3,0.7,1.4c0.1,0.2,0.1,0.4,0.1,0.6c0.2,0.4,0.3,0.7,0.4,0.8c0.1,0.2,0.2,0.3,0.4,0.4
	c0,0.4,0.1,0.9,0.4,1.2C195,128.4,195.2,128.8,195.1,129.3z M169.6,107.3c-0.3,0.3-0.6,0.5-1,0.6c-0.2,0-0.4,0-0.6,0.1
	c-0.4,0.2-0.8,0.4-1.2,0.5c-0.1,0-0.3,0-0.4,0.1c-0.9,0.5-1.3,0.8-1.4,0.9c-0.2,0.2-0.4,0.3-0.6,0.4c-0.2,0.1-0.3,0.2-0.4,0.3
	c-0.3,0.1-0.6,0.3-0.9,0.4c-0.3,0.2-0.6,0.4-0.8,0.6c-0.6,0.1-1.1,0.4-1.5,0.8s-0.8,0.8-1.3,1.1c-0.2,0.4-0.5,0.7-0.8,0.9
	c-0.1,0.1-0.3,0.2-0.3,0.3c-0.3,0.7-0.5,1.2-0.6,1.4c-0.1,0.3-0.2,0.7-0.2,1c0,0.4,0,0.8,0,1.2c0.1,0.3,0.2,0.6,0.1,0.9
	c0,0.1-0.1,0.2-0.1,0.3c0.1,0.2,0.2,0.4,0.2,0.6s0,0.4,0.1,0.6c0.1,0.4,0.3,0.8,0.5,1.1c0.1,0.1,0.2,0.2,0.2,0.3
	c0.3,0.1,0.6,0.3,0.8,0.5c0,0.1,0.1,0.2,0.2,0.2c0.2,0.1,0.3,0.1,0.5,0.1s0.4,0,0.6,0.1c0.6,0.2,1.3,0.2,1.9,0.2
	c0.3-0.1,0.7-0.1,1-0.2c0.1-0.1,0.3-0.1,0.4-0.2c0.2-0.1,0.4-0.1,0.6-0.1c0.1-0.1,0.3-0.2,0.5-0.2s0.4-0.1,0.6-0.2
	c0.3-0.1,0.5-0.2,0.8-0.3c0.3-0.1,0.6-0.2,0.9-0.3c0.6-0.3,1.1-0.5,1.2-0.6c0.1-0.1,0.3-0.1,0.4-0.1c0.4-0.3,0.6-0.5,0.7-0.6
	s0.2-0.1,0.4-0.2l1-0.7c0.3-0.3,0.7-0.5,1.1-0.6c0.1,0,0.1,0,0.2-0.1c0.4-0.1,0.7-0.2,1.1-0.4l0.3-0.3c0.3-0.7,0.4-1.1,0.1-1.4
	c-0.1-0.5-0.2-0.9-0.3-1.4c-0.1-0.3-0.3-0.6-0.4-0.9c-0.1-0.3-0.2-0.6-0.2-0.9c-0.3-0.8-0.5-1.3-0.6-1.5c-0.1-0.1-0.1-0.3-0.1-0.5
	c-0.1-0.6-0.2-1-0.2-1.1c0-0.2-0.1-0.3-0.1-0.4c-0.3-0.8-0.4-1.2-0.5-1.4c-0.1-0.2-0.1-0.3-0.1-0.5c-0.2-0.2-0.3-0.5-0.4-0.8
	c0-0.1-0.1-0.2-0.2-0.2c-0.2-0.1-0.5,0-0.7,0.1C170.2,107.3,169.9,107.4,169.6,107.3L169.6,107.3z"/>
<path class="st0" d="M214.4,78.9c0,0.4,0,0.7,0.1,1.1c0,0.1,0.1,0.2,0.1,0.3c0.1,0.3,0.1,0.5,0.1,0.6c0,0.2,0.1,0.4,0.1,0.6
	c0,0.5,0,1.1-0.1,1.6c-0.1,0.2-0.1,0.5,0,0.7c0,0.3,0,0.6,0,0.9c0,0.1,0,0.3,0,0.4c0,0.3,0,0.6,0,0.8c0,0.1,0,0.2,0,0.3
	c0,0.3,0,0.6-0.1,0.8c-0.1,0.3,0,0.6,0.1,0.9c-0.1,0.6-0.2,1.2-0.3,1.8c0,0.2,0,0.5,0.1,0.7c0,0.2,0,0.4,0,0.5c0,0.2,0,0.4-0.1,0.6
	s-0.1,0.4-0.1,0.6c0,0.3,0,0.7,0.1,1c0.1,0.4,0.1,0.7,0.1,1.1c0,0.8,0.1,1.6,0.2,2.4c0,0.4,0,0.8,0,1.1s0.1,0.7,0.1,1.1
	c0.1,0.7,0,1.3-0.1,2c0,0.3,0,0.7,0.1,1c0,0.3,0.1,0.7,0.1,1c0,0.4,0.1,0.8,0.1,1.2c0,0.1,0,0.1,0.1,0.2c0,0.3,0,0.6-0.1,0.9
	c0,0.3,0,0.7,0.1,1c-0.1,0.7,0,1.4,0.1,2.1c0.1,0.4,0.2,0.7,0.3,1.1c0,0.4,0,0.8-0.1,1.2c-0.1,0.2-0.2,0.5-0.1,0.7
	c0.1,0.5,0,1.1-0.1,1.6c0.1,0.3,0.1,0.7,0.1,1c0,0.1,0,0.2,0,0.3c0.1,0.4,0.1,0.8,0.1,1.2c0,0.1-0.1,0.3-0.1,0.4
	c-0.1,0.5,0,1,0.4,1.4c-0.1,0.2-0.1,0.4-0.1,0.5c0,0.2,0.1,0.4,0.1,0.6c0.2,0.5,0.6,1,1.1,1.4l1,0.7c0.9,0.4,1.5,0.6,1.8,0.7
	s0.7,0.1,1,0c0.2-0.1,0.4-0.1,0.6-0.2l0.7-0.2c0.6-0.1,1.2-0.3,1.6-0.8c0.3-0.4,0.7-0.7,1.2-0.9c0.4-0.3,0.8-0.7,1.1-1.1
	c0.5-0.4,0.8-0.7,0.8-0.9c0.1-0.1,0.3-0.3,0.4-0.4c0.1-0.2,0.2-0.4,0.2-0.5c0-0.3,0-0.5,0-0.8c0-0.1,0-0.2,0-0.3
	c0.1-0.4,0.2-0.8,0.3-1.2c0-0.1,0-0.1,0.1-0.2c-0.1-0.4-0.1-0.7-0.1-1.1c0,0,0.1,0,0.1-0.1v-1.7c0-0.3,0-0.5,0-0.8s0.1-0.6,0.1-0.9
	c-0.1-0.5-0.1-1.1,0.1-1.6v-1.6c0-0.3,0-0.6-0.1-0.9c0,0,0-0.1,0-0.2c0.1-0.6,0.1-1.2,0-1.8c-0.1-0.4-0.1-0.9-0.1-1.3
	c-0.1-0.5-0.1-1-0.1-1.4c0-0.5,0-1.1-0.1-1.6s-0.2-1.1-0.1-1.6c0.1-0.2,0.1-0.4,0.1-0.6l0.1-1.2c0-0.3,0.1-0.5,0.1-0.8
	c0-0.1,0.1-0.2,0.1-0.3c-0.1-0.4-0.1-0.6,0.1-0.7c0.1-0.1,0.1-0.2,0.1-0.3v-1.1c0-0.8,0-1.3,0-1.7s-0.1-0.7-0.1-1.2
	c-0.1-0.4-0.2-0.7-0.1-1.1c0-0.2,0-0.5,0-0.7c0-0.4-0.1-0.9-0.1-1.3c0-0.2,0-0.3,0-0.5c0-0.4,0-0.9-0.1-1.3
	c-0.1-0.2-0.1-0.4-0.1-0.6c-0.1-0.3-0.1-0.7,0-1c0-0.3,0-0.7,0-1v-1.2c0-0.3,0.1-0.6,0.2-0.8c0.1-0.2,0.2-0.4,0.3-0.5
	c0.2-0.1,0.3-0.3,0.4-0.4c0.2-0.1,0.3-0.1,0.5,0s0.5,0,0.7-0.1c0.6-0.2,1.3-0.2,1.9-0.1c0.5,0.1,1,0.1,1.6,0.1c0.1,0,0.3,0,0.4,0
	c0.2-0.1,0.5-0.1,0.7-0.1c1.2,0.1,1.9,0.2,2.2,0.3h1.1c0.3,0,0.7,0,1-0.1s0.6-0.1,0.9-0.1c0.3,0.1,0.6,0.1,0.9,0
	c0.1,0,0.2-0.1,0.3,0c0.4,0.1,0.9,0.1,1.3,0c0.3,0,0.7,0,1,0.1s0.5,0.3,0.7,0.5c0.1,0.1,0.2,0.2,0.2,0.3c0.1,0.3,0.2,0.6,0.3,0.9
	c0.1,0.1,0.2,0.2,0.4,0.1c-0.2,0.6-0.3,1.3-0.2,1.9c0.1,0.7,0.1,1.4,0,2.1c0,0.5,0,0.9-0.1,1.3c0,0.4-0.1,0.7-0.2,1.1
	c0,0.3,0,0.7,0,1c0,0,0,0,0,0.1l-0.3,1c0,0.4,0,0.7-0.1,1.1c-0.1,0.6-0.2,0.9-0.1,1c0.1,0.1,0.1,0.2,0,0.3c-0.1,0.5-0.2,1-0.2,1.5
	s0,1.1,0.1,1.6c0.1,0.3,0.1,0.7,0.1,1v1.2c0,0.4,0.1,0.9,0.2,1.3c0.1,0.2,0.1,0.4,0.2,0.6c0,1,0,1.7,0,2s-0.1,0.7-0.1,1.1
	c-0.1,0.6-0.1,1.3,0,1.9c0,0.7,0,1.4-0.1,2.1c0.1,0.6,0.1,1.2,0,1.8c-0.1,0.4-0.1,0.8-0.1,1.2c0.1,0.4,0.2,0.8,0.2,1.3
	c0,0.2,0,0.3,0,0.5s-0.1,0.4-0.1,0.6c0,0.3,0,0.6,0.1,0.9s0.1,0.6,0.1,0.9c0,1,0,2-0.1,3s-0.1,2-0.1,2.9c0,0.2,0,0.4,0.1,0.6
	c0,0.2,0,0.4,0,0.6c0,0.3,0,0.6,0,0.9c0,0.2,0,0.4,0,0.6c0,0.4,0,0.8,0,1.2s0,0.9,0,1.4c0,0.2,0,0.4,0,0.6s0,0.5,0,0.7
	c0,0.5,0,1,0.1,1.5s0.1,1.1,0.1,1.6c0,0.3,0,0.7,0,1c0,0.2,0,0.3,0,0.5v2.7c0,1,0,1.8,0.1,2.4c0.1,0.6,0.1,1.1,0.1,1.7
	c0,0.3,0,0.6-0.1,0.8c-0.1,0.2-0.1,0.6-0.1,0.8c0,0.2,0,0.5,0.1,0.7c0,0.3,0.1,0.6,0.1,0.8c0,0.2,0,0.4-0.1,0.6c0,0.2,0,0.3-0.1,0.5
	c0.1,0.5,0.1,1,0,1.5c0,0.2,0,0.4,0.1,0.6c0,0.2,0,0.4,0.1,0.6c0,0.3,0,0.7-0.1,1s-0.1,0.6-0.1,1c-0.1,0.6-0.2,1.2-0.3,1.8
	c-0.1,0.3-0.1,0.6-0.2,0.9c-0.1,0.2-0.1,0.4-0.2,0.6c-0.1,0.2-0.2,0.5-0.1,0.7c-0.3,0.3-0.5,0.6-0.6,1s-0.3,0.8-0.4,1.1
	c-0.5,0.6-0.8,1-0.9,1.1c-0.2,0.2-0.3,0.3-0.4,0.5c-0.2,0.3-0.5,0.7-0.9,1.2s-0.7,0.8-0.8,0.9c-0.1,0.1-0.1,0.2-0.2,0.2l-0.6,1.1
	l-0.9,0.7c-0.4,0.5-0.6,0.8-0.7,0.8c-0.1,0-0.3,0.1-0.3,0.2c-0.4,0.6-0.9,1.1-1.4,1.6c-0.3,0.3-0.5,0.5-0.8,0.8
	c-0.3,0.2-0.5,0.5-0.7,0.8c-0.1,0.3-0.3,0.6-0.6,0.9l-0.9,0.8c-0.2,0.2-0.4,0.3-0.7,0.5c-0.1,0.1-0.3,0.2-0.4,0.3l-1,0.7
	c-0.2,0.2-0.5,0.4-0.7,0.5c-0.1,0-0.2,0-0.3,0.1l-0.8,0.2c-0.3,0.1-0.6,0.1-0.9,0.1c-0.6,0-1.2-0.1-1.7-0.4
	c-0.2-0.1-0.4-0.2-0.5-0.4c-0.2-0.1-0.3-0.2-0.4-0.3c-0.2-0.3-0.5-0.5-0.8-0.7c-0.1-0.1-0.3-0.2-0.4-0.3c-0.2-0.4-0.3-0.8-0.4-1.3
	c-0.1-0.1-0.2-0.3-0.3-0.5s-0.2-0.3-0.4-0.4c-0.1-0.4-0.3-0.8-0.6-1.1c-0.4-0.3-0.7-0.7-0.9-1.2c-0.2-0.4-0.4-0.8-0.7-1.1
	c-0.3-0.6-0.5-1-0.6-1.1s-0.1-0.4-0.2-0.6c-0.2-0.7-0.2-1.2-0.1-1.3l0.3-0.5c0.5-0.5,1.1-1,1.7-1.3c0.4-0.2,0.8-0.4,1.2-0.6
	c0.3-0.3,0.6-0.6,1-0.8c0.2-0.1,0.4-0.3,0.5-0.5c0.1-0.1,0.2-0.2,0.2-0.3c0.3-0.3,0.6-0.6,0.9-0.8c0.1-0.1,0.2-0.1,0.3-0.2
	c0.3-0.2,0.6-0.5,0.9-0.8c0.2-0.3,0.3-0.7,0.5-1v-0.1c-0.1-0.2,0-0.4,0.2-0.6c0.2-0.1,0.3-0.3,0.3-0.5c0.9-1.4,1.3-3.1,1.1-4.8
	c0-0.2,0-0.5,0-0.7c0-0.1,0-0.2,0-0.4c0.1-0.5,0.1-0.9,0.1-1.2c0-0.4,0.1-0.6,0.1-0.7v-1.1c0-0.4,0-0.8-0.1-1.2c0-0.2,0-0.4-0.1-0.5
	c0-0.2,0-0.4-0.1-0.5c0.1-0.5,0.1-1,0.1-1.5s-0.1-1.1-0.4-1.5l0.3-1.7c-0.1-0.5-0.1-1,0-1.5s0.1-1,0.2-1.5c-0.6,0.5-1,0.8-1.1,0.9
	s-0.2,0.2-0.3,0.3c-0.2,0.1-0.4,0.2-0.5,0.3l-0.4,0.4c-0.6,0.3-0.9,0.6-0.9,0.7c-0.5,0.2-0.9,0.4-1.2,0.5c-0.4,0.4-0.8,0.7-1.3,1
	c-0.2,0.1-0.5,0.3-0.6,0.5c-0.1,0.1-0.2,0.3-0.4,0.4c-0.3,0.1-0.5,0.2-0.8,0.3l-0.7,0.2c-0.2,0.1-0.5,0.3-0.7,0.4
	c-0.2,0.2-0.4,0.3-0.7,0.4l-1,0.5c-0.5,0-0.9,0.1-1.4,0.3c-0.2,0.1-0.5,0.2-0.7,0.3c-0.2,0-0.4,0-0.6,0c-0.2,0-0.4,0.1-0.5,0.2
	l-2-0.3c-0.7-0.4-1.4-0.6-2.2-0.8c-0.4-0.1-0.9-0.2-1.3-0.4l-0.9-0.7c-0.2-0.1-0.5-0.3-0.6-0.4c-0.2-0.2-0.3-0.3-0.5-0.3
	c-0.2-0.4-0.5-0.7-0.8-1.1l-1-0.7c-0.3-0.5-0.8-1-1.3-1.4c-0.2-0.3-0.4-0.7-0.6-0.9c-0.1,0-0.1-0.1-0.2-0.1
	c-0.4-0.4-0.7-0.9-0.9-1.4c-0.4-0.3-0.7-0.6-1-1c-0.1-0.1-0.2-0.1-0.3-0.1c0-0.2-0.1-0.4-0.2-0.6c-0.1-0.2-0.1-0.3-0.2-0.5
	c-0.4-0.4-0.7-0.8-1-1.2c-0.1-0.2-0.3-0.5-0.4-0.7c-0.4-1-0.6-1.7-0.7-1.9c-0.1-0.5-0.1-0.9,0-1.4c0.1-0.3,0.1-0.6,0.1-0.9
	c0-0.5,0-1.1,0.1-1.6c0.1-0.3,0.1-0.6,0.2-0.9c0-0.4,0-0.8,0-1.1c0-0.1,0.1-0.2,0.1-0.3l-0.1-1.9c0.1-0.6,0.1-1,0.1-1.1s0-0.3,0-0.4
	v-1.4c0-0.2,0.1-0.4,0.2-0.6c-0.1-0.2-0.1-0.4-0.2-0.6c-0.1-0.3-0.1-0.5-0.1-0.8c0.1-0.4,0.1-0.8,0-1.2c-0.1-0.3-0.1-0.6-0.1-0.9
	c-0.1-0.7-0.1-1.5-0.1-2.2c0-0.4,0.1-0.8,0.1-1.1V102l-0.1-1.9c0.1-0.8,0.2-1.3,0.2-1.5s0-0.4,0-0.6c-0.2-0.7-0.3-1.3-0.2-2
	c0-0.4,0-0.9,0-1.3c-0.1-0.6-0.1-1-0.1-1.1c0-0.2,0-0.4,0-0.6v-1.1c-0.1-0.7-0.1-1.1-0.1-1.3c0-0.3,0-0.6-0.1-0.8
	c-0.1-0.3-0.1-0.5-0.1-0.8s-0.1-0.6-0.1-1c-0.1-0.4-0.2-0.8-0.2-1.3c0-0.4,0-0.7-0.1-1.1c-0.1-0.2-0.1-0.3-0.1-0.5
	c-0.3-0.7-0.3-1.1-0.2-1.1s0.1-0.1,0.1-0.2C197,83,197,82.4,197,82c0-0.3-0.1-0.7-0.3-0.9c0.1-1,0.2-1.6,0.3-1.9l0.5-0.2
	c0.2-0.1,0.4-0.2,0.5-0.3l1.1-0.4c0.3,0,0.5,0,0.8,0c0.2,0,0.3,0,0.5,0h1.9c0.2,0,0.3,0,0.5,0.1h1.9c0.5,0.1,1,0.1,1.5,0
	c0.4,0,0.9,0,1.3,0.1c0.3,0,0.5,0,0.8,0c0.2,0,0.5,0,0.7,0.1c0.6-0.2,1.2-0.3,1.9-0.2c0.4,0.1,0.7,0.2,1.1,0.1
	c0.6-0.1,1.1-0.1,1.7,0.1L214.4,78.9z"/>
<path class="st0" d="M303,129.3c-0.1,0.3-0.3,0.7-0.6,0.9c-0.1,0.1-0.2,0.3-0.2,0.4c-0.3,0.1-0.6,0.3-0.9,0.5s-0.6,0.5-0.9,0.7
	c-0.3,0.1-0.6,0.3-0.8,0.4l-0.6,0.4c-0.5,0.1-1,0.3-1.4,0.7c-0.2,0.1-0.4,0.1-0.5,0.2c-0.2,0.1-0.3,0.2-0.4,0.3
	c-0.3,0.1-0.7,0.2-1,0.3l-0.4,0.2l-1.4,0.4c-0.3,0.2-0.7,0.4-1,0.5c-0.3,0.1-0.6,0.1-0.8,0c-0.4,0-0.9,0.1-1.3,0.2
	c-0.1,0-0.2,0-0.3,0c-0.3-0.2-0.7-0.4-1.1-0.4c-0.1,0-0.3,0-0.4-0.2c-0.2-0.2-0.4-0.4-0.5-0.6c-0.1-0.2-0.3-0.4-0.5-0.6
	c-0.1-0.4-0.2-0.7-0.3-1.1c-0.1-0.6-0.4-1.2-0.7-1.8c-0.1-0.8-0.3-1.5-0.7-2.2l-1.2,0.4c-0.8,0.3-1.6,0.7-2.3,1.2
	c-0.3,0.3-0.6,0.5-1,0.7c-0.2,0.1-0.5,0.2-0.7,0.2s-0.3,0.1-0.5,0.2l-1.2,0.7l-1.2,0.4l-1.3,0.4l-0.3,0.2l-1.1,0.5
	c-0.4,0.1-0.8,0.2-1.2,0.5c-0.2,0.2-0.6,0.3-0.9,0.3c-0.6,0.2-1.1,0.5-1.7,0.8c-0.6,0.2-1.1,0.4-1.7,0.4c-0.5,0-0.9,0.1-1.3,0.2
	c-0.7,0.3-1.1,0.4-1.2,0.3c-0.2,0-0.4,0-0.6,0.1s-0.4,0.1-0.6,0.1c-0.4,0-0.8,0-1.2,0c-0.2,0.1-0.4,0.1-0.5,0
	c-0.4-0.2-0.9-0.3-1.3-0.4c-0.2,0-0.3,0-0.4-0.1c-0.1-0.1-0.3-0.2-0.5-0.2c-0.2-0.1-0.4-0.2-0.5-0.3c-0.3,0.1-0.6,0-0.8-0.3
	c-0.2-0.2-0.4-0.4-0.6-0.6c-0.7-0.4-1-0.7-1.1-0.7c-0.1-0.1-0.2-0.2-0.3-0.2c-0.3-0.3-0.6-0.5-0.9-0.7c0,0-0.1,0-0.1-0.1
	c-0.6-0.7-0.9-1-0.8-1.1c-0.2-0.1-0.5-0.3-0.6-0.5c-0.2-0.2-0.4-0.4-0.5-0.6c-0.3-0.2-0.5-0.4-0.7-0.7c-0.1-0.1-0.2-0.2-0.4-0.3
	c0-0.3-0.2-0.6-0.4-0.9c-0.2-0.2-0.4-0.4-0.7-0.7c-0.1-0.3-0.2-0.5-0.3-0.8s-0.2-0.5-0.3-0.7c-0.2-0.6-0.4-0.9-0.5-1
	c0.1-0.4,0.1-0.8,0-1.2c-0.1-0.1-0.1-0.2-0.1-0.3c0-0.2,0-0.5,0-0.7s0-0.4,0-0.6c-0.1-0.3-0.2-0.7-0.1-1c0-0.2,0-0.4,0.1-0.6
	c-0.1-0.4-0.1-0.8-0.2-1.3c-0.1-0.4-0.1-0.8-0.1-1.3c0.1-0.2,0.1-0.4,0.1-0.5c0-0.2,0.1-0.3,0.1-0.5c0.1-0.4,0.1-0.8,0-1.2
	c-0.1-0.4-0.1-0.8-0.1-1.2c0-0.2,0-0.4,0.1-0.5s0.2-0.3,0.1-0.5c-0.1-0.3-0.1-0.6-0.1-0.8c0-0.2,0.1-0.4,0.1-0.5
	c0-0.3,0.1-0.5,0.3-0.7c0.1-0.1,0.2-0.1,0.2-0.2c0.1-0.4,0.3-0.8,0.5-1.2c0.5-0.7,0.7-1.1,0.8-1.2c0.7-0.8,1-1.4,1.2-1.6
	c0.3-0.4,0.8-0.7,1.4-0.7l0.8-1c0.3-0.3,0.6-0.5,1-0.7c0.3-0.2,0.6-0.4,0.9-0.6c0,0,0-0.1,0.1-0.2c0.3-0.2,0.6-0.4,0.9-0.5
	c0.1,0,0.1-0.1,0.1-0.2c0.6-0.2,1.2-0.4,1.7-0.7c0.2-0.1,0.5-0.1,0.7,0c0.6-0.6,1-0.9,1.1-0.9s0.3,0,0.4-0.1
	c0.3-0.2,0.6-0.4,0.9-0.7c0-0.1,0-0.1,0.1-0.1c0.2-0.1,0.4-0.2,0.6-0.2s0.5-0.2,0.6-0.3c0.3-0.2,0.7-0.3,1.1-0.4
	c0.2,0,0.3-0.1,0.4-0.2c0.4-0.1,0.9-0.2,1.3-0.4c0.1-0.1,0.3-0.2,0.4-0.3c0.4-0.1,0.8-0.3,1.2-0.5c0.3-0.1,0.5-0.3,0.7-0.5
	c0.1-0.1,0.2-0.2,0.3-0.2c0.6-0.1,0.9-0.3,1-0.5c0.4-0.1,0.8-0.4,1.1-0.6c0.2-0.2,0.5-0.4,0.8-0.5c-0.2-0.6-0.5-1.1-0.9-1.6
	c-0.1-0.3-0.1-0.5-0.1-0.8c0-0.1,0-0.2,0-0.3c-0.2-0.3-0.6-0.6-1-0.6c-0.3-0.2-0.5-0.4-0.8-0.6c-0.2-0.1-0.2-0.1-0.2,0.2
	c-0.1-0.1-0.3-0.2-0.5-0.2s-0.4,0-0.6,0h-1.6c-0.2,0-0.5,0-0.7-0.1c-0.3,0-0.6,0-0.9,0l-0.1-0.1l-1.1,0.1c-0.3,0-0.5,0-0.8,0
	s-0.6,0-0.9,0c-0.5,0.1-1,0.2-1.4,0.1c-0.2-0.1-0.4-0.1-0.5,0c-0.5,0.1-0.9,0.2-1.4,0.4c-0.3-0.2-0.7-0.2-1.1-0.1s-0.8,0.2-1.2,0.3
	c-0.3,0-0.6,0-0.9,0.1c-0.2,0.1-0.4,0.1-0.5,0.1l-1.9,0.2c-0.3-0.2-0.7-0.3-1.1-0.4c-0.4-0.4-0.6-0.6-0.7-0.6s-0.1-0.1-0.1-0.2
	c-0.5-0.5-0.8-0.8-0.9-1c-0.1-0.1-0.2-0.3-0.3-0.5l-0.4-0.7c-0.1-0.2-0.2-0.4-0.2-0.5c-0.1-0.9-0.2-1.5-0.3-1.8s-0.1-0.6,0-0.9
	c0-0.4,0-0.8,0.1-1.2c0.1-0.4,0-0.7-0.3-1c0.1-0.6,0.2-0.9,0.1-0.9s-0.1-0.1-0.1-0.2c0-0.7-0.1-1.3-0.2-2c-0.1-0.4-0.1-0.7,0-1.1
	s0.3-0.8,0.5-1.1c0.2-0.3,0.4-0.6,0.5-1c0.3-0.3,0.6-0.5,1-0.6c0,0,0.1,0,0.2-0.1c0.3-0.1,0.7-0.1,1-0.2h0.1c0.9-0.1,1.8-0.1,2.7,0
	l1.7,0.2c0.3,0,0.6,0,0.8,0c0.5-0.1,0.9-0.1,1.4,0.1c0.4,0.1,0.9,0.2,1.4,0.1c0.4-0.1,0.7-0.1,1.1-0.1c0.4,0.1,0.8,0.1,1.1,0
	c0.1-0.1,0.3-0.1,0.4-0.1c0.5,0.1,1,0.1,1.5,0c0.1-0.1,0.3-0.1,0.4,0c0.5-0.1,0.8-0.1,0.9-0.1c0.2,0,0.4,0,0.5,0
	c0.3,0.1,0.7,0.1,1,0c0.4,0,0.8,0,1.2,0l3.1-0.2c0.8,0,1.6,0,2.3,0.2l1.1,0.1c0.4,0,0.9,0.1,1.3,0.3c0.3,0.1,0.7,0.1,1,0
	c0.3,0.4,0.9,0.5,1.4,0.4c0.2,0.2,0.5,0.4,0.8,0.5c0.2,0.1,0.4,0.2,0.5,0.3c0.7,0,1.2,0.2,1.4,0.5l0.8,0.8h0.1
	c0.3,0.2,0.5,0.5,0.7,0.8c0.1,0.2,0.2,0.3,0.4,0.5c0.6,0.6,0.9,0.9,0.8,1s0,0.2,0.1,0.2c0.3,0.6,0.5,0.9,0.9,1
	c0.1,0.4,0.3,0.9,0.5,1.3c0.1,0.1,0.2,0.3,0.2,0.4c0.2,0.5,0.4,1,0.8,1.5V88c0,0.2,0,0.3,0.1,0.5c0.2,0.5,0.3,1,0.4,1.6
	c0.2,0.7,0.4,1.2,0.5,1.6c0.3,0.4,0.5,0.9,0.5,1.5c0,0.2,0,0.4,0,0.6c0.1,0.3,0.3,0.5,0.4,0.8c0,0.2,0.1,0.3,0.2,0.4l0.4,1.1
	c0.1,0.4,0.2,0.8,0.3,1.2c0,0.1,0,0.3,0.1,0.4c0.3,0.5,0.5,1,0.6,1.6c0,0.3,0,0.6,0.1,0.9c0.3,0.7,0.4,1,0.3,1.1
	c0,0.5,0.1,1,0.2,1.5c0,0.2,0.1,0.4,0.3,0.6c0.2,0.5,0.4,1.1,0.4,1.6c0,0.2,0,0.5,0,0.7c0.1,0.5,0.2,1,0.3,1.3
	c0.1,0.3,0.2,0.6,0.2,0.9s0.1,0.5,0.2,0.8c0.2,0.3,0.3,0.7,0.4,1.1c0,0,0,0,0,0.1c0.1,0.2,0.2,0.3,0.3,0.5c0.1,0.3,0.2,0.5,0.3,0.7
	c0.3,0.8,0.4,1.4,0.5,1.6l0.5,1.2c0.2,0.5,0.4,1.1,0.6,1.7s0.4,1.2,0.6,1.7c0.1,0.3,0.2,0.6,0.4,0.9c0.3,0.4,0.4,0.8,0.5,1.3
	c0,0.3,0.1,0.6,0.2,0.9c0.1,0.2,0.2,0.4,0.2,0.6l0.3,0.7c0.1,0.5,0.2,0.9,0.5,1.3c0.2,0.2,0.2,0.5,0.2,0.8l0.7,1.4
	c0.1,0.2,0.1,0.4,0.1,0.6l0.4,0.8c0.1,0.2,0.2,0.3,0.4,0.4c0,0.4,0.1,0.9,0.4,1.2C302.9,128.4,303,128.9,303,129.3z M277.5,107.3
	c-0.3,0.3-0.6,0.5-1,0.6c-0.2,0-0.4,0-0.5,0.1c-0.4,0.2-0.8,0.4-1.2,0.5c-0.1,0-0.3,0-0.4,0.1c-0.8,0.5-1.3,0.8-1.4,0.9
	c-0.2,0.2-0.4,0.3-0.6,0.4s-0.3,0.2-0.4,0.3c-0.3,0.1-0.6,0.3-0.9,0.4c-0.3,0.2-0.6,0.4-0.8,0.6c-0.6,0.1-1.1,0.4-1.5,0.8
	s-0.8,0.8-1.3,1.1c-0.2,0.4-0.5,0.7-0.8,0.9c-0.1,0.1-0.3,0.2-0.3,0.3c-0.3,0.7-0.5,1.2-0.6,1.4c-0.1,0.3-0.2,0.7-0.2,1
	c0,0.4-0.1,0.8-0.1,1.2c0.1,0.3,0.2,0.6,0.2,0.9c0,0.1,0,0.2,0,0.3c0.1,0.2,0.2,0.4,0.2,0.6s0,0.4,0.1,0.6c0.1,0.4,0.3,0.8,0.5,1.1
	c0.1,0.1,0.2,0.2,0.2,0.3c0.5,0.3,0.8,0.5,0.8,0.5c0,0.1,0.1,0.2,0.2,0.2c0.2,0.1,0.3,0.1,0.5,0.1s0.4,0,0.6,0.1
	c0.6,0.2,1.3,0.2,1.9,0.2c0.3-0.1,0.7-0.1,1-0.2c0.1-0.1,0.3-0.1,0.5-0.2s0.4-0.1,0.6-0.1c0.1-0.1,0.3-0.2,0.5-0.2s0.4-0.1,0.6-0.2
	c0.3-0.1,0.5-0.2,0.8-0.3c0.3-0.1,0.6-0.2,0.9-0.3c0.7-0.3,1.1-0.5,1.2-0.6s0.3-0.1,0.4-0.1c0.4-0.3,0.6-0.5,0.7-0.6l0.4-0.2l1-0.7
	c0.7-0.4,1-0.7,1.1-0.6s0.1,0,0.2-0.1c0.4-0.1,0.7-0.2,1.1-0.4l0.3-0.3c0.3-0.7,0.4-1.1,0.1-1.4c-0.1-0.5-0.2-0.9-0.3-1.4l-0.4-0.9
	c-0.1-0.3-0.2-0.6-0.2-0.9c-0.3-0.8-0.5-1.3-0.6-1.5c-0.1-0.1-0.1-0.3,0-0.5c-0.1-0.6-0.2-1-0.2-1.1c0-0.2-0.1-0.3-0.1-0.4
	c-0.3-0.8-0.4-1.2-0.5-1.4c-0.1-0.2-0.1-0.3-0.1-0.5c-0.2-0.2-0.3-0.5-0.4-0.8c0-0.1-0.1-0.2-0.2-0.2c-0.2-0.1-0.5,0-0.7,0.1
	C278,107.3,277.8,107.4,277.5,107.3L277.5,107.3z"/>
<path class="st0" d="M337.7,123.9l0.4-1.1c0.1-0.5,0.1-0.9,0.1-1.4v-1.2c0-0.3,0-0.5,0-0.8c0-0.1,0-0.3,0-0.4c0-0.4-0.1-0.8-0.2-1.2
	c0.1-0.1,0.2-0.3,0.1-0.5c0-0.2,0-0.5,0-0.7c0.1-0.4,0.1-0.9,0-1.3c0-0.1,0-0.3,0-0.4c0-0.5,0-1,0-1.5c0-0.2,0-0.4,0-0.6
	c-0.1-0.5-0.1-1-0.2-1.5s-0.1-1,0-1.5c0.1-0.4,0.2-0.8,0.1-1.3c0-0.1,0-0.3,0-0.4c0-0.3,0-0.6,0.1-0.9s0.1-0.7,0.1-1
	c0-0.5,0-1-0.1-1.4c-0.1-0.5-0.1-1,0-1.4c0.2-1.3,0.2-2.7-0.1-4l-0.3-1.4c-0.1-0.3-0.3-0.6-0.6-0.9c-0.3-0.3-0.5-0.5-0.8-0.8
	c-0.5-0.3-0.8-0.6-0.8-0.9c-0.4-0.1-0.9-0.1-1.4-0.1c-0.4-0.1-0.9,0.1-1.2,0.4c-0.4,0-0.8,0.2-1.1,0.4c-0.3,0.2-0.6,0.4-0.9,0.5
	c-0.2,0.2-0.4,0.4-0.6,0.6c-0.1,0.1-0.2,0.1-0.2,0.2c-0.4,0.4-0.8,0.9-1.1,1.4c-0.2,0.1-0.4,0.2-0.5,0.4c-0.2,0.2-0.3,0.4-0.5,0.5
	c-0.3,0.1-0.5,0.3-0.8,0.5c-0.1,0.1-0.3,0.2-0.4,0.2c-0.2,0.1-0.4,0.2-0.6,0.1c-0.3,0-0.5,0-0.7,0.2c-0.3-0.1-0.6-0.2-0.9-0.3
	c-0.3-0.1-0.6-0.2-0.9-0.3c-0.2-0.2-0.5-0.4-0.8-0.6c-0.1,0-0.1-0.1-0.2-0.2c-0.3-0.2-0.6-0.5-0.9-0.7c-0.2-0.2-0.4-0.3-0.6-0.3
	c-0.3,0.9-0.3,1.8-0.2,2.7c0.1,0.8,0.1,1.7,0,2.6c-0.1,0.4-0.1,0.9,0,1.3c0,0.5,0,0.8,0,1.2c-0.1,0.4-0.1,0.9,0,1.3
	c0,0.3,0,0.5,0,0.8s0,0.6,0,0.8c0,0.2,0.1,0.5,0.1,0.8v1.2c0.1,0.7,0.2,1.3,0.1,2c-0.1,0.3-0.1,0.7-0.1,1c0,0.4,0.1,0.9,0.2,1.3
	c0,0.4,0,0.8,0.2,1.2c-0.1,0.7-0.1,1.3,0,2c0,0.5,0,1,0,1.5c0.1,0.5,0.2,0.9,0.1,1.4c0,0.2,0,0.4,0,0.6c0.1,0.5,0.2,1.1,0.1,1.6
	c0,0.3,0,0.5,0.1,0.7c0,0.5,0.1,1,0.2,1.5c0.1,0.3,0.1,0.6,0.2,0.9c0,0.3,0,0.5,0,0.8s0,0.6,0,0.9c0,0.2,0,0.4,0.1,0.6l0.2,0.6
	l0.1,1.4c0.1,0.2,0.1,0.5,0,0.7s0,0.5,0.2,0.7c-0.1,0.4-0.2,0.9-0.4,1.3c-0.1,0.2-0.1,0.5-0.1,0.7c-0.8,0.1-1.2,0.2-1.1,0.3
	s0,0.2-0.1,0.1c-0.5,0.2-1.1,0.2-1.7,0.2s-1.1,0-1.7-0.2c-0.5,0.1-1,0.1-1.5,0c-0.6,0-1.1,0-1.7,0.2c-0.5,0.2-1.1,0.2-1.7,0.2
	c-0.2,0-0.5,0-0.7,0.2c-0.4-0.1-0.8-0.2-1.2-0.2c-0.3,0-0.5,0.1-0.8,0.2c-0.6-0.2-1.2-0.4-1.8-0.7c-0.3-0.2-0.6-0.3-0.9-0.3
	c0.1-0.2,0-0.5-0.1-0.6c-0.2-0.2-0.3-0.3-0.4-0.5c-0.2-0.2-0.3-0.3-0.4-0.5c-0.2-0.3-0.2-0.6-0.1-0.9c0.1-0.5,0.2-1,0.1-1.5
	c0-0.3,0-0.6,0-0.9c0-0.2,0-0.3,0-0.4c0-0.2,0-0.5,0-0.7c0.1-0.8,0.1-1.6,0.1-2.2c0.1-0.3,0.2-0.7,0.1-1.1c-0.1-0.3-0.1-0.6,0-0.9
	c0.1-0.6,0.2-1.2,0.2-1.8c0-0.3,0-0.6,0.1-0.9c-0.1-0.4-0.1-0.9,0-1.3c0-0.3,0.1-0.6,0-0.9c-0.1-0.5-0.2-1-0.1-1.5
	c0-0.2,0-0.4-0.1-0.5c0.1-0.5,0.1-1.1,0.1-1.6v-0.9c-0.1-0.4-0.2-0.9-0.1-1.3c0-0.1,0-0.3,0-0.4v-1.5c0-0.4,0-0.7-0.1-1.1l-0.1-2.2
	V107l-0.1-2.3c-0.1-0.3-0.1-0.6-0.2-0.9s-0.1-0.7,0-1c0-0.4,0-0.8-0.2-1.2v-1.7c0-0.4,0-0.8,0-1.2c0-0.1,0-0.3,0-0.4
	c-0.1-0.5-0.1-1.1,0-1.6c0-0.3,0.1-0.6,0-0.9c-0.1-0.5-0.1-1.1,0-1.6c0.1-0.2,0.1-0.3,0.1-0.5c0-0.3,0-0.6-0.1-0.9s-0.1-0.6-0.2-0.9
	c0.1-0.5,0.1-1,0-1.5c-0.1-0.3-0.2-0.7-0.1-1c0.1-0.1,0.1-0.3,0-0.4c-0.1-0.8-0.1-1.4-0.2-1.7c-0.1-0.3-0.1-0.7-0.1-1
	c0.1-0.3,0.1-0.6,0-0.9c-0.1-0.2-0.1-0.5-0.1-0.7c0.1-0.8,0.1-1.4,0.1-1.8s-0.1-0.8-0.2-1.2c0.2-0.4,0.4-0.8,0.5-1.3
	c0-0.2,0.1-0.4,0.2-0.5c0.2,0,0.4-0.2,0.5-0.4c0.1-0.2,0.3-0.4,0.5-0.5c0.6-0.1,0.9-0.1,1,0s0.2,0.2,0.3,0.2
	c0.3-0.2,0.7-0.3,1.1-0.4l1.9-0.1l1.1,0.1c0.3,0.1,0.7,0.1,1,0.2c0,0,0.1,0,0.2,0c0.2,0.1,0.4,0.1,0.5,0.2c0.3,0,0.5,0,0.6,0
	c0.3,0,0.6,0,0.9,0c0.1,0,0.2,0,0.3,0c0.4,0,0.8,0,1.1,0c0.1,0,0.1,0,0.1-0.1c0.5,0.1,0.9,0.2,1.4,0.2c0.2,0,0.4,0,0.5,0.1
	c0.4,0,0.6,0,0.7-0.1s0.2,0,0.4,0.1c0.1,0.4,0.3,0.8,0.5,1.1l0.3,0.3c0,0.2,0,0.4,0.1,0.6s0.1,0.4,0.2,0.7c-0.1,0.4-0.1,0.7,0,1.1
	c0.1,0.2,0.1,0.4,0.1,0.6c-0.1,0.6-0.1,1-0.1,1.2s-0.1,0.4,0,0.6c-0.1,1-0.2,1.8-0.3,2.2c-0.1,0.4,0,0.8,0.1,1.2
	c0.2-0.1,0.4-0.2,0.6-0.3l0.5-0.3c0.3-0.3,0.7-0.6,1.1-0.8c0.2-0.1,0.3-0.1,0.5-0.2c0.3-0.2,0.7-0.4,1-0.5l0.7-0.7l0.4-0.4
	c0.5-0.2,0.9-0.6,1.2-1.1c0.3-0.1,0.5-0.3,0.7-0.4l0.7-0.5c0.3-0.2,0.7-0.4,1-0.6l0.4-0.3c0.4-0.2,0.8-0.5,1.2-0.8
	c0.2-0.2,0.4-0.3,0.6-0.5c0.7-0.3,1.1-0.5,1.3-0.8c0.5-0.1,1-0.3,1.4-0.6c0.4-0.3,0.9-0.4,1.4-0.4c0.6,0,1.2,0.2,1.7,0.5
	c0.3,0,0.7,0,1,0.1c0.2,0.1,0.3,0.2,0.4,0.4c0.6,0.3,0.9,0.4,1,0.4s0.2,0.1,0.4,0.1l1,0.4c0.3,0.1,0.5,0.1,0.8,0.1
	c0.2,0.3,0.3,0.5,0.5,0.8c0,0,0,0.1,0,0.2c0.4,0.1,0.7,0.3,0.9,0.6c0.3,0.3,0.7,0.5,1.1,0.5c0.3,0.3,0.6,0.6,1,0.9
	c0.1,0,0.2,0,0.3,0.1c0.2,0.5,0.6,0.9,1.1,1.1c0.3,0.6,0.5,0.9,0.6,0.9s0.1,0,0.2,0.1c0.2,0.5,0.6,0.9,0.9,1.3
	c0.2,0.2,0.5,0.4,0.6,0.7l0.8,0.8c0.2,0.6,0.5,1.1,0.9,1.5c0.2,0.2,0.4,0.5,0.4,0.7c0.1,0.5,0.3,0.9,0.4,1.4
	c0.1,0.2,0.2,0.4,0.2,0.5c0,0.2,0.1,0.3,0.2,0.4c-0.1,0.4-0.2,0.9-0.2,1.3c0,0.2,0,0.4,0.1,0.6l0.1,1.1c0,0.3,0,0.6,0,1s0,0.8,0,1.1
	c0,0.5,0,1.1,0.1,1.6c0,0.2,0.1,0.5,0.1,0.7c0,0.3-0.1,0.6-0.1,0.9c0,0.1-0.1,0.2,0,0.2c0.1,0.4,0.1,0.9,0,1.3c0,0.5,0,1,0,1.5
	c-0.1,0.4-0.1,0.7,0,1.1c0,0.3,0,0.6,0,0.8c-0.1,0.3-0.1,0.6-0.1,0.9c0,0,0,0.1,0,0.2c-0.1,0.4-0.1,0.8-0.1,1.1c0,0,0.1,0.1,0,0.2
	c0,0.2-0.1,0.4-0.1,0.5c-0.1,0.2-0.1,0.4,0,0.5c-0.1,0.4-0.1,0.9,0,1.3c0.1,0.3,0.1,0.6-0.2,0.7c0.1,0.7,0.1,1.3,0,2
	c-0.2,0.7-0.2,1.3,0,2c-0.1,0.5-0.2,0.9-0.3,1.1c-0.1,0.2-0.1,0.4-0.1,0.6c0.1,0.3,0.2,0.7,0.2,1.1c-0.1,0.6-0.1,0.9,0,0.9
	s0.1,0.1,0.1,0.2c0.1,0.4,0.1,0.8,0,1.1c0,0.1-0.1,0.2,0,0.2c0.1,0.6,0.2,1.1,0.2,1.7c0,0.3,0.1,0.6,0.3,0.8c-0.1,0.6-0.1,1.3,0,1.9
	c0.1,0.7,0.2,1,0.2,1.1c0.1,0.3,0.1,0.6,0,0.9c0,0-0.1,0.1,0,0.2c0.2,0.6,0.2,0.9,0.1,0.9s-0.1,0.1-0.1,0.2c0,0.4,0.1,0.9,0.3,1.3
	c0.1,0.2,0.2,0.5,0.1,0.7c0,0.1,0,0.3,0,0.4c0.2,0.2,0.2,0.4,0.2,0.6c0,0.3,0.2,0.5,0.4,0.5c0,0.4-0.1,0.7-0.2,1.1
	c-0.1,0-0.2,0.1-0.2,0.1c-0.3,0.2-0.6,0.3-1,0.3c-0.2-0.1-0.4-0.1-0.6,0c-0.5,0.2-1.1,0.3-1.7,0.4h-3.5c-0.5,0-1.1,0-1.6-0.2
	c-0.5-0.1-1-0.2-1.4-0.2c-0.3,0.1-0.5,0.1-0.8,0.1c-0.4,0-0.7,0-1.1,0c-0.7-0.2-1.1-0.3-1.1-0.4c0,0,0-0.1-0.1-0.1l0,0
	c-0.7-0.5-1.1-0.9-1.3-1c-0.2-0.2-0.4-0.3-0.6-0.5c-0.1-0.3-0.2-0.7-0.1-1c0-0.3,0-0.6-0.1-0.9c-0.1-0.2-0.1-0.5,0-0.7
	c0.1-0.3,0.1-0.5,0.1-0.8c0-0.3-0.1-0.6-0.1-0.9c0-0.1,0-0.2,0-0.2c0.1-0.7,0-1.1-0.2-1.1c0.3-0.4,0.3-1,0-1.4
	c0.2-0.4,0.2-0.8,0.2-1.2c-0.1-0.3-0.1-0.5,0-0.8L337.7,123.9z"/>
<path class="st0" d="M86.1,205.5c0.6,0.8,1,1.4,1.3,1.7c0.2,0.2,0.5,0.5,0.7,0.7c0,0,0,0.1,0.1,0.1c0.2,0.2,0.3,0.5,0.5,0.7
	c0,0,0.1,0.1,0.2,0.2c0.3,0.4,0.6,0.8,0.9,1.1c0.2,0.2,0.4,0.4,0.6,0.7c0.3,0.4,0.5,0.8,0.7,1.1s0.4,0.7,0.7,1
	c0.2,0.2,0.4,0.4,0.6,0.7c0,0.1,0.1,0.3,0.2,0.4c0.2,0.3,0.4,0.6,0.6,0.8c0.1,0.1,0.2,0.2,0.2,0.3c0.2,0.4,0.5,0.8,0.8,1.1
	c0.4,0.6,0.8,1.1,1.2,1.7c0.3,0.3,0.6,0.6,0.9,1l0.5,1c0.3,0.3,0.5,0.6,0.7,0.9c0.1,0.1,0.3,0.2,0.4,0.3c0.2,0.1,0.3,0.3,0.3,0.5
	c0.2,0.2,0.5,0.4,0.7,0.6c0.1,0,0.2,0.1,0.2,0.2c0.3,0.3,0.7,0.6,1.1,0.8c0.2,0,0.2,0.1,0.2,0.2l0.8,1l1.2,1.3
	c0.3,0.4,0.5,0.8,0.5,1.2c-0.1,0.1-0.1,0.3,0,0.4c0.1,0.8,0,1.2-0.1,1.2s-0.2,0.1-0.2,0.2c-0.1,0.3-0.2,0.5-0.4,0.7
	c-0.1,0.1-0.2,0.1-0.3,0.2l-1,0.5c-0.3,0.2-0.6,0.4-0.9,0.6c-0.1,0.1-0.3,0.2-0.5,0.3c-0.4,0.2-0.7,0.4-1,0.6
	c-0.2,0.2-0.5,0.3-0.8,0.2c-0.6,0.5-1,0.8-1.1,0.8s-0.3,0-0.4,0.1c-0.2,0.1-0.4,0.2-0.6,0.3l-0.7,0.4c-0.4,0.2-0.8,0.4-1.2,0.7
	c-0.1,0.1-0.2,0.1-0.3,0.2c-0.4,0.1-0.8,0.3-1.1,0.7c-0.6,0.1-0.9,0.2-1,0.2s-0.2,0-0.2,0.1c-0.6,0.3-1,0.3-1.1,0.2
	c-0.5,0.1-1,0.2-1.5,0.1c-0.3,0-0.5-0.1-0.7-0.2c-0.3-0.2-0.6-0.4-0.9-0.7c-0.1-0.1-0.2-0.2-0.3-0.2c-0.3-0.6-0.5-1-0.6-1.3
	c-0.2-0.2-0.3-0.4-0.4-0.6l-0.1-0.3c-0.5-0.7-0.7-1.1-0.6-1.3c0-0.2,0-0.3-0.1-0.5c-0.2-0.3-0.4-0.6-0.5-0.9l-0.2-0.4
	c-0.1-0.2-0.2-0.5-0.3-0.7c-0.1-0.3-0.2-0.6-0.3-0.8c-0.1-0.4-0.3-0.7-0.5-1.1c-0.1-0.1-0.1-0.2-0.1-0.3c-0.3-0.4-0.5-0.8-0.7-1.2
	s-0.4-0.9-0.6-1.3s-0.2-0.6-0.3-0.8c-0.1-0.2-0.2-0.4-0.3-0.6c-0.2-0.2-0.4-0.4-0.5-0.7c-0.1-0.2-0.2-0.3-0.4-0.5
	c-0.3-0.4-0.6-0.9-0.7-1.4c0-0.2-0.1-0.4-0.2-0.5c-0.3-0.4-0.5-0.8-0.7-1.3c-0.3-0.3-0.5-0.6-0.7-1c0-0.1,0-0.2-0.1-0.3l-0.9-1.1
	c-0.3-0.5-0.4-0.7-0.5-0.7s-0.2-0.1-0.2-0.2c-0.1-0.4-0.2-0.7-0.3-1.1l-0.2-0.4c-0.5-0.7-0.8-1.1-0.9-1.3c-0.2-0.2-0.3-0.4-0.4-0.5
	l-1-0.3c-0.2-0.1-0.4-0.1-0.5-0.1l-1.5,0.4c-0.2,0.2-0.5,0.2-0.8,0.2c-0.2,0-0.2,0-0.2,0.1l-1.1-0.3c-0.2,0-0.4,0-0.6,0.1
	c-0.1,0.1-0.3,0.2-0.6,0.5l-0.6,1.1c-0.1,0.2-0.2,0.5-0.1,0.8c0.1,0.1,0.1,0.3,0.1,0.4c0,0.6,0,1.1,0,1.7c0,0.2,0,0.5-0.2,0.7
	c0.1,0.3,0.2,0.6,0.2,0.9v0.9c0,0.3,0.1,0.6,0.2,0.8s0.1,0.4,0.1,0.5c0,0.6,0,1.3,0.2,1.9c0.1,0.3,0.1,0.5,0,0.8
	c0,0.4,0.1,0.9,0.2,1.3c0.1,0.2,0,0.3-0.1,0.3l0.2,1.1c0.2,0.9,0.3,1.5,0.3,1.8s0.1,0.6,0.2,0.9c0.1,0.4,0.2,0.9,0.3,1.3v0.4
	c0.1,0.4,0.1,0.7,0,1.1c0,0.2-0.1,0.4,0,0.6c0,0.4-0.1,0.9-0.2,1.3c-0.2,0.4-0.4,0.8-0.8,1c-0.7,0.5-1.2,0.6-1.5,0.6
	c-0.2-0.1-0.5-0.1-0.7-0.1s-0.4,0-0.5,0.1c-0.2,0.1-0.4,0.1-0.6,0.1l-1.1,0.1c-0.5,0-1.1,0-1.6,0.1c-0.4,0-0.8,0.1-1.2,0.2
	c-0.2,0.1-0.4,0.1-0.5,0.1c-0.3,0-0.6,0-0.8,0c-0.1,0-0.2,0-0.3,0c-0.3,0.1-0.6,0.1-0.8,0c-0.1-0.1-0.2-0.1-0.3-0.1l-1.1,0.1
	l-1.1-0.3h-1.8c-0.4-0.2-0.8-0.2-1.3-0.2c-0.1,0.1-0.3,0.1-0.4,0.1c-0.4,0-0.8-0.1-1.1-0.3c-0.4-0.2-0.7-0.4-0.9-0.6
	c0-0.2,0-0.4-0.1-0.6c-0.1-0.2-0.1-0.4-0.1-0.6c0-0.3,0-0.6,0.1-0.9c0.1-0.3,0.1-0.6,0.1-0.9c0-0.2,0-0.4,0-0.6c0-0.2,0-0.4,0-0.6
	c0.2-0.7,0.3-1.3,0.3-2c0-0.4,0-0.8,0.1-1.2l0.2-1.8c0.1-0.2,0.1-0.4,0.2-0.5c0.1-0.2,0.1-0.4,0.1-0.5c0.2-0.5,0.3-0.9,0.3-1.4
	c0-0.1,0-0.3-0.1-0.4c0.1-0.4,0.2-0.7,0.2-1.1c0-0.1,0-0.3,0-0.4c0-0.2,0-0.4,0.1-0.6c0.1-0.2,0.1-0.3,0.2-0.5
	c0.1-0.2,0.1-0.4,0.1-0.6c0-0.2,0-0.4,0.1-0.6c0.1-0.7,0.2-1.1,0.3-1.5c0.1-0.3,0.1-0.7,0.1-1c-0.1-0.3-0.2-0.7-0.1-1
	c0-0.1,0-0.1,0.1-0.2c0-0.3,0-0.7-0.1-1c-0.1-0.4-0.1-0.7-0.2-1l0.1-1.8c0.1-0.4,0.2-0.8,0.2-1.3c0-0.1,0-0.3,0-0.4v-2.6
	c0-0.4,0-0.8,0-1.2s0-0.8,0-1.2c-0.1-0.3-0.2-0.7-0.1-1c0-0.1,0.1-0.2,0-0.2c-0.1-0.5-0.1-1,0-1.5c0-0.3,0-0.6-0.1-0.9l-0.1-1.5
	c0-0.9,0-1.5,0-2s0-1,0-1.5v-2.7c0-0.3,0-0.7,0-1c0-0.1-0.1-0.2,0-0.3c-0.1-0.9-0.2-1.5-0.2-1.7c0.1-0.4,0.1-0.8,0-1.1v-0.1
	c0-0.3,0.1-0.7,0.2-1c0,0,0,0,0-0.1v-1.3c-0.1-0.6,0-1.1,0.1-1.7c0.1-0.6,0.1-1.2,0-1.8s-0.1-1.2,0-1.8c0.1-0.5,0.2-0.9,0.1-1.4
	c0-0.2-0.1-0.4,0-0.5V177c0-0.3,0-0.6,0.1-0.9c0.1-0.4,0.1-0.8,0-1.2c-0.1-0.2-0.2-0.4-0.2-0.6c0-0.7-0.1-1.4-0.2-2.1
	c-0.1-0.3-0.2-0.5-0.1-0.8c0-0.1,0-0.2,0-0.3c0-0.2,0-0.5,0-0.7s0-0.4,0.1-0.5c0-0.9,0-1.4,0-1.6c0-0.3,0-0.6,0-0.8
	c-0.1-0.3-0.1-0.6-0.2-0.9c-0.1-0.3-0.1-0.5-0.1-0.8V165c0-0.3,0-0.6,0.1-0.9c0.2-0.5,0.3-1,0.4-1.5c0-0.2,0.1-0.4,0.2-0.6
	c0.1-0.2,0.2-0.3,0.3-0.4c0.2-0.1,0.3-0.3,0.3-0.4c0.3-0.2,0.6-0.3,1-0.4c0.4-0.1,0.7-0.3,1-0.4c0.4,0,0.8,0,1.2,0.1
	c0.1,0.1,0.3,0.1,0.4,0.1c0.4,0.1,0.8,0.1,1.2,0.1l0.4-0.2c0.3,0.2,0.6,0.3,0.9,0.2c0.3-0.1,0.7,0,0.9,0.2c0.5-0.3,1.1-0.4,1.6-0.3
	c0.3,0.1,0.7,0.2,1,0.2c0.6,0,1.2,0,1.8,0c0.3,0,0.5,0,0.8,0c0.8,0.1,1.2,0.1,1.3,0.1c0.1,0,0.2,0,0.3,0c0.5,0.1,0.7,0.2,0.8,0.1
	c0.1-0.1,0.2-0.1,0.3,0c0.2,0.1,0.4,0.1,0.5,0c0.2-0.1,0.4-0.1,0.6-0.1c0.4,0,0.9,0,1.3,0.1c0.1,0.1,0.3,0.1,0.4,0.1
	c0.5,0,1,0,1.5,0c0.2,0,0.3,0,0.5,0c0.3,0,0.7-0.1,1-0.2c0,0,0,0,0.1,0h1.2c0.2-0.1,0.4-0.1,0.5-0.2c0.2,0,0.5,0,0.7,0
	c0.4,0,0.7,0,1.1-0.1c0.3-0.1,0.6-0.2,0.9-0.3s0.5,0,0.8,0.1c0.6-0.1,1.3-0.2,1.9-0.1c0.2,0.1,0.5,0.1,0.7,0.1
	c0.7,0.1,1.4,0.3,2.1,0.5c0.3,0.1,0.7,0.2,1,0.2l1.2,0.5c0.1,0.1,0.2,0.2,0.3,0.3c0.4,0.2,0.6,0.3,0.7,0.3s0.2,0.1,0.2,0.2
	c0.4,0.2,0.7,0.4,1.1,0.7c0.1,0.1,0.2,0.1,0.3,0c0.1,0.2,0.2,0.3,0.2,0.5s0.1,0.3,0.2,0.4c0.3,0.2,0.6,0.5,0.8,0.8
	c0.5,0.7,0.8,1.1,1,1.1s0.3,0.2,0.3,0.5c0.4,0.3,0.6,0.7,0.8,1.1c0.2,0.5,0.4,1,0.6,1.5s0.5,0.9,0.8,1.3l0.5,1.1
	c0.2,0.2,0.4,0.5,0.6,0.8l0.2,0.4c0.2,0.2,0.4,0.5,0.5,0.7c0,0.1,0.1,0.1,0.2,0.1c0.4,0.6,0.7,1.3,0.9,2c0.2,0.5,0.5,0.8,0.9,1.1
	c-0.1,0.3,0,0.5,0.2,0.5s0.3,0.3,0.2,0.7c0.2,0.1,0.3,0.2,0.4,0.3c0.1,0.2,0.3,0.3,0.4,0.4c0.1,0.2,0.2,0.4,0.2,0.6
	c0,0.2,0.1,0.4,0.2,0.5c0.3,0.4,0.6,0.9,0.9,1.4c0.1,0.3,0.3,0.6,0.4,0.9s0.3,0.7,0.4,0.9c0,0.2,0.1,0.3,0.2,0.5
	c0.1,0.1,0.2,0.3,0.2,0.5s0.2,0.4,0.3,0.5c-0.1,0.2-0.1,0.5,0.1,0.7c0.1,0.3,0.1,0.5,0.1,0.8c-0.1,0.3-0.1,0.7-0.1,1
	c0,0.1,0.1,0.2,0.1,0.3c0,0.2,0,0.5-0.1,0.7c0,0.2,0,0.5,0,0.7c0,0.4,0,0.8,0,1.1s0,0.6-0.1,0.9l-0.7,1.4l-0.5,1
	c-0.3,0.4-0.6,0.6-0.6,0.7c-0.1,0.2-0.2,0.4-0.2,0.6c-0.4,0.2-0.7,0.5-1,0.7c-0.1,0.1-0.2,0.2-0.3,0.2c-0.5,0.4-1,0.8-1.5,1.3
	c-0.4,0.2-0.7,0.5-1,0.7c-0.1,0.1-0.1,0.2-0.2,0.2l-0.9,0.7c-0.5,0.3-0.9,0.7-1.2,1.2c-0.4,0.2-0.8,0.4-1.2,0.7l-0.8,0.8
	c-0.2,0.2-0.5,0.4-0.8,0.5c-0.1,0-0.1,0-0.2,0.1c-0.3,0.4-0.6,0.6-0.7,0.5s-0.2-0.1-0.3,0c-0.1,0.3-0.3,0.5-0.5,0.6
	c-0.2,0.2-0.5,0.3-0.7,0.4c-0.4,0.4-0.7,0.7-0.9,0.8c-0.2,0.2-0.4,0.3-0.6,0.4l-0.8,0.6C86.3,205.3,86.2,205.4,86.1,205.5z
	 M68.3,198.8l1.2,0.3c0.5,0.2,0.8,0.3,0.9,0.2c0.2-0.1,0.3-0.1,0.5-0.2l1.4-0.7c0.2-0.1,0.4-0.2,0.6-0.4c0.2-0.1,0.3-0.2,0.5-0.2
	s0.4-0.1,0.4-0.3c0.4-0.2,0.7-0.4,1.1-0.6c0.5-0.2,1-0.4,1.4-0.7c0.1-0.2,0.3-0.3,0.5-0.4l1.1-0.8c0.2-0.1,0.3-0.3,0.5-0.4
	c0.3-0.4,0.6-0.8,0.9-1.2l0.4-0.4c0.2-0.3,0.4-0.6,0.6-0.9c0.1-0.1,0.2-0.1,0.3-0.2c0.3-0.4,0.5-0.7,0.8-1c0.1-0.1,0.2-0.1,0.2-0.2
	c0.2-0.4,0.3-0.8,0.4-1.2c0.2-0.1,0.3-0.3,0.3-0.5s0.1-0.4,0.2-0.5l0.4-0.4l0.4-0.4c-0.1-0.2,0-0.5,0-0.7c0.1-0.2,0.2-0.4,0.2-0.6
	c0.1-0.8,0.2-1.3,0.2-1.6s0-0.6,0-0.9v-1.1c0-0.3-0.1-0.7-0.2-1c-0.2-0.4-0.4-0.9-0.5-1.3c0.1-0.1,0.1-0.3,0-0.4
	c-0.2-0.8-0.6-1.6-1.1-2.3c-0.1-0.3-0.2-0.6-0.4-0.8c-0.1-0.2-0.3-0.5-0.4-0.7c-0.2-0.3-0.5-0.6-0.7-0.9c-0.1-0.1-0.2-0.1-0.2-0.2
	c-0.2-0.4-0.5-0.8-0.8-1.2c-0.5-0.7-1.2-1.3-2-1.8c-0.5-0.4-0.7-0.6-0.8-0.5c-0.1,0-0.1,0-0.2,0c-0.2-0.1-0.3-0.2-0.5-0.4
	c-0.1-0.1-0.3-0.3-0.4-0.4l-1.4-0.6c-0.4-0.1-0.7-0.1-1.1-0.1h-1.1c-0.5,0.1-0.8,0.1-0.8,0.2s-0.1,0-0.2-0.1l-0.5,1
	c0,0.3-0.1,0.6-0.2,0.9c-0.1,0.1-0.1,0.2-0.1,0.3l-0.2,1.1c-0.2,0.5-0.3,1.1-0.4,1.7c0,0.4-0.1,0.7-0.1,1.1c-0.1,0.6-0.1,1-0.2,1.3
	s-0.1,0.5-0.2,0.8s-0.1,0.6-0.1,0.9c0,0.3,0,0.6-0.1,0.9c-0.1,0.4-0.2,0.8-0.2,1.3l-0.3,1.2c0,0.2,0,0.5,0.1,0.7s0.1,0.5,0.1,0.7
	s0,0.5,0,0.7c0,0.1,0,0.3-0.1,0.4c0.1,0.2,0.2,0.4,0.1,0.6c-0.1,0.3-0.1,0.5-0.1,0.8c-0.2,0.4-0.3,0.9-0.3,1.4c0,0.2,0,0.5,0,0.7
	c-0.1,0.3-0.2,0.6-0.2,0.9c0,0.1,0.1,0.2,0.1,0.2c0,0.6-0.1,0.9-0.2,1s-0.1,0.2,0.1,0.3c0,0.4-0.1,0.7-0.3,1.1
	c-0.1,0-0.1,0.1-0.1,0.2c0,0.7,0,1.3-0.1,2c-0.1,0.5-0.1,1-0.2,1.5c-0.1,0.3-0.1,0.7,0,1c0,0.2,0,0.4,0,0.5c0.1,0.8,0.2,1.3,0.4,1.4
	C68.1,198.5,68.2,198.6,68.3,198.8z"/>
<path class="st0" d="M161.1,229.3c-0.1,0.3-0.3,0.7-0.6,0.9c-0.1,0.1-0.2,0.3-0.2,0.4c-0.3,0.1-0.6,0.3-0.9,0.5
	c-0.3,0.2-0.6,0.5-0.9,0.7c-0.3,0.1-0.6,0.3-0.8,0.4l-0.6,0.4c-0.6,0.3-1.3,0.6-1.9,0.9c-0.2,0.1-0.3,0.2-0.4,0.4
	c-0.3,0.1-0.7,0.2-1,0.3l-0.4,0.2l-1.4,0.4c-0.3,0.2-0.7,0.4-1,0.5s-0.6,0.1-0.8,0c-0.4,0-0.9,0.1-1.3,0.1c-0.1,0-0.2,0-0.3,0
	c-0.3-0.2-0.7-0.4-1.1-0.4c-0.1,0-0.3,0-0.4-0.1c-0.2-0.2-0.4-0.4-0.5-0.6c-0.1-0.2-0.3-0.4-0.5-0.6c-0.1-0.4-0.2-0.7-0.3-1.1
	c-0.1-0.6-0.4-1.2-0.7-1.8c-0.1-0.8-0.3-1.5-0.7-2.2l-1.2,0.4c-0.8,0.3-1.6,0.7-2.3,1.2c-0.3,0.3-0.6,0.5-1,0.7
	c-0.2,0.1-0.5,0.2-0.7,0.2s-0.3,0.1-0.4,0.2l-1.2,0.7l-1.2,0.4L135,233l-0.3,0.1l-1.1,0.5c-0.4,0.1-0.8,0.2-1.2,0.5
	c-0.2,0.2-0.6,0.3-0.9,0.3c-0.6,0.2-1.1,0.5-1.7,0.8c-0.6,0.2-1.1,0.4-1.7,0.4c-0.5,0-0.9,0.1-1.3,0.2c-0.7,0.3-1.1,0.4-1.2,0.3
	c-0.2,0-0.4,0-0.6,0.1s-0.4,0.1-0.5,0.1c-0.4-0.1-0.8-0.1-1.2-0.1c-0.2,0-0.4,0-0.5-0.1c-0.4-0.2-0.9-0.3-1.3-0.4
	c-0.2,0-0.3,0-0.4-0.1s-0.3-0.1-0.5-0.2c-0.2-0.1-0.4-0.2-0.5-0.4c-0.3,0.1-0.6,0-0.8-0.3c-0.2-0.2-0.4-0.4-0.6-0.6
	c-0.7-0.4-1-0.7-1.1-0.7c-0.1-0.1-0.2-0.2-0.3-0.2c-0.3-0.2-0.6-0.5-0.9-0.7c0,0-0.1,0-0.2-0.1c-0.6-0.6-0.8-1-0.8-1.1
	c-0.2-0.1-0.5-0.3-0.6-0.5c-0.2-0.2-0.3-0.4-0.5-0.6c-0.3-0.2-0.5-0.4-0.7-0.7c-0.1-0.1-0.2-0.2-0.3-0.3c0-0.3-0.2-0.6-0.4-0.9
	l-0.7-0.7c-0.1-0.3-0.2-0.5-0.3-0.8c-0.1-0.3-0.2-0.5-0.3-0.7c-0.2-0.6-0.4-0.9-0.5-1c0.1-0.4,0.1-0.8,0-1.2
	c-0.1-0.1-0.1-0.2-0.1-0.3c0-0.2,0-0.5,0-0.7c0.1-0.2,0.1-0.4,0-0.6c-0.1-0.3-0.2-0.7-0.1-1c0-0.2,0-0.4,0-0.6
	c-0.1-0.4-0.2-0.8-0.2-1.3c-0.1-0.4-0.1-0.8-0.2-1.3c0.1-0.2,0.1-0.4,0.2-0.5c0-0.2,0.1-0.4,0.2-0.5c0.1-0.4,0.1-0.8,0-1.2
	s-0.1-0.8,0-1.2c0-0.2,0-0.4,0.2-0.5c0.1-0.2,0.1-0.4,0.1-0.5c0-0.3,0-0.6,0-0.8s0.1-0.4,0.1-0.5c0-0.3,0.1-0.5,0.3-0.7
	c0.1-0.1,0.2-0.1,0.2-0.2c0.1-0.4,0.3-0.8,0.5-1.2c0.5-0.7,0.7-1.1,0.8-1.2c0.7-0.9,1-1.4,1.2-1.6c0.3-0.3,0.8-0.6,1.3-0.6l0.8-1
	c0.3-0.3,0.6-0.5,1-0.7c0.3-0.2,0.6-0.4,0.9-0.6c0,0,0-0.1,0.1-0.1c0.3-0.2,0.6-0.4,0.9-0.5c0.1,0,0.2-0.1,0.2-0.2
	c0.6-0.2,1.1-0.4,1.7-0.7c0.2-0.2,0.5-0.2,0.7-0.1c0.6-0.6,1-0.9,1.1-0.9s0.3,0,0.4-0.1c0.6-0.4,0.9-0.6,0.9-0.7c0,0,0-0.1,0.1-0.1
	l0,0c0.2-0.1,0.4-0.2,0.6-0.2s0.5-0.2,0.6-0.3c0.3-0.2,0.7-0.3,1.1-0.4c0.2,0,0.3-0.1,0.4-0.2c0.4-0.1,0.9-0.2,1.3-0.4
	c0.1-0.1,0.3-0.2,0.4-0.3c0.4-0.1,0.8-0.3,1.2-0.5c0.3-0.1,0.5-0.3,0.7-0.4c0.1-0.1,0.2-0.2,0.4-0.2c0.6-0.1,0.9-0.3,1-0.5
	c0.4-0.1,0.8-0.4,1.1-0.6c0.2-0.2,0.5-0.4,0.8-0.5c-0.2-0.6-0.5-1.1-0.9-1.6c-0.1-0.2-0.2-0.5-0.1-0.8c0-0.1,0-0.2,0-0.3
	c-0.2-0.3-0.6-0.6-1-0.6c-0.3-0.2-0.5-0.4-0.8-0.6c-0.2-0.1-0.2-0.1-0.2,0.1c-0.1-0.1-0.3-0.2-0.5-0.1c-0.2,0-0.4,0-0.6,0h-1.6
	c-0.2,0-0.5,0-0.7-0.1c-0.3,0-0.6,0-0.9-0.1c0,0-0.1,0-0.2,0l-1.1,0.1c-0.3,0-0.5,0-0.8,0.1c-0.3,0-0.6,0-0.9,0
	c-0.5,0.1-0.9,0.2-1.4,0.1c-0.2-0.1-0.4-0.1-0.6,0c-0.5,0.1-0.9,0.2-1.4,0.4c-0.3-0.2-0.7-0.2-1.1-0.1c-0.4,0.1-0.8,0.2-1.2,0.3
	c-0.3,0-0.6,0-0.9,0.1c-0.2,0.1-0.4,0.1-0.6,0.1l-1.9,0.2c-0.3-0.2-0.7-0.3-1.1-0.4c-0.4-0.4-0.6-0.6-0.7-0.6s-0.2-0.1-0.2-0.2
	c-0.5-0.5-0.8-0.9-0.9-1s-0.2-0.3-0.3-0.5l-0.4-0.7c-0.1-0.2-0.2-0.4-0.2-0.5c-0.1-0.9-0.2-1.5-0.3-1.8c-0.1-0.3-0.1-0.6,0-0.9
	c0-0.4,0-0.8,0.1-1.2s0-0.7-0.3-1c0.1-0.6,0.2-0.9,0.1-0.9s-0.1-0.1-0.1-0.2c0-0.7-0.1-1.3-0.2-2c-0.1-0.4-0.1-0.7,0-1.1
	c0.1-0.4,0.3-0.8,0.6-1.1c0.2-0.3,0.4-0.6,0.5-1c0.3-0.3,0.6-0.5,1-0.6c0,0,0.1,0,0.2,0c0.3,0,0.7-0.1,1-0.2c0,0,0.1-0.1,0.2-0.1
	c0.9-0.1,1.8-0.1,2.7,0l1.7,0.2c0.3,0,0.6,0.1,0.8,0.1c0.5-0.1,0.9-0.1,1.4,0.1c0.4,0.1,0.9,0.2,1.4,0.1c0.4-0.1,0.7-0.1,1.1-0.1
	c0.4,0.1,0.8,0.1,1.1,0c0.1-0.1,0.3-0.1,0.4-0.1c0.5,0.1,1,0.1,1.5,0c0.1-0.1,0.3-0.1,0.4,0c0.4-0.1,0.8-0.1,0.9-0.1
	c0.2,0,0.4,0,0.5-0.1c0.3,0.1,0.7,0.1,1,0.1c0.4,0,0.8-0.1,1.2-0.1l3.1-0.1c0.8,0,1.5,0,2.3,0.1l1.1,0.1c0.4,0,0.9,0.1,1.3,0.3
	c0.3,0.1,0.7,0.1,1,0c0.4,0.4,0.9,0.5,1.4,0.4c0.2,0.2,0.5,0.4,0.8,0.5c0.2,0.1,0.4,0.2,0.5,0.3c0.7,0,1.2,0.2,1.4,0.5l0.8,0.8h0.1
	c0.3,0.2,0.5,0.5,0.7,0.8c0.1,0.2,0.2,0.3,0.4,0.5c0.6,0.6,0.9,0.9,0.8,1s0,0.2,0.1,0.2c0.3,0.6,0.6,0.9,0.9,1
	c0.1,0.4,0.3,0.9,0.5,1.3c0.1,0.1,0.2,0.3,0.2,0.4c0.2,0.5,0.4,1,0.8,1.5v0.7c0,0.2,0,0.3,0.1,0.5c0.2,0.5,0.4,1,0.4,1.6
	c0.1,0.5,0.3,1.1,0.5,1.6c0.3,0.4,0.5,0.9,0.5,1.5c0,0.2,0,0.4,0,0.6c0.1,0.3,0.3,0.5,0.3,0.8c0,0.2,0.1,0.3,0.2,0.4l0.4,1.1
	c0.1,0.4,0.2,0.8,0.3,1.2c0,0.1,0,0.3,0.1,0.4c0.3,0.5,0.5,1,0.6,1.6c0,0.3,0,0.6,0.1,0.9c0.3,0.7,0.4,1,0.3,1.1
	c0,0.5,0.1,1,0.2,1.5c0,0.2,0.1,0.4,0.3,0.6c0.2,0.5,0.4,1.1,0.4,1.6c0,0.2,0,0.5,0.1,0.7c0.1,0.5,0.2,1,0.3,1.3s0.2,0.6,0.2,0.9
	c0,0.3,0.1,0.5,0.2,0.8c0.2,0.3,0.3,0.7,0.4,1.1c0,0,0,0,0.1,0.1c0.1,0.2,0.2,0.3,0.3,0.5c0.1,0.3,0.2,0.5,0.3,0.7
	c0.3,0.9,0.4,1.4,0.5,1.6l0.5,1.2c0.2,0.5,0.4,1.1,0.6,1.7c0.2,0.6,0.4,1.1,0.6,1.7c0.1,0.3,0.2,0.6,0.3,0.9
	c0.1,0.1,0.2,0.3,0.2,0.4c0.1,0.3,0.2,0.6,0.2,0.9c0,0.3,0.1,0.6,0.2,0.9c0.1,0.2,0.1,0.4,0.2,0.6c0.1,0.2,0.2,0.4,0.3,0.7
	c0.1,0.5,0.2,0.9,0.4,1.3c0.2,0.2,0.3,0.5,0.2,0.8c0.4,0.8,0.6,1.3,0.7,1.4c0.1,0.2,0.1,0.4,0.1,0.6c0.2,0.4,0.3,0.7,0.4,0.8
	c0.1,0.2,0.2,0.3,0.4,0.4c0,0.4,0.1,0.9,0.4,1.2C161,228.4,161.1,228.9,161.1,229.3z M135.6,207.3c-0.3,0.3-0.6,0.5-1,0.6
	c-0.2,0-0.4,0-0.5,0.1c-0.4,0.2-0.8,0.4-1.2,0.5c-0.1,0-0.3,0-0.4,0.1c-0.9,0.5-1.3,0.8-1.4,0.9c-0.3,0.2-0.5,0.3-0.6,0.4
	c-0.2,0.1-0.3,0.2-0.4,0.4c-0.3,0.1-0.6,0.3-0.9,0.4c-0.3,0.2-0.6,0.4-0.8,0.6c-0.6,0.1-1.1,0.4-1.5,0.8c-0.4,0.5-0.8,0.8-1.3,1.1
	c-0.2,0.4-0.5,0.7-0.8,0.9c-0.1,0.1-0.3,0.2-0.3,0.3c-0.3,0.7-0.5,1.2-0.6,1.4c-0.1,0.3-0.2,0.7-0.2,1c0,0.4,0,0.8,0,1.2
	c0.1,0.3,0.2,0.6,0.1,0.9c0,0.1,0,0.2,0,0.3c0.1,0.2,0.2,0.4,0.2,0.6c0,0.2,0,0.4,0.1,0.6c0.1,0.4,0.3,0.8,0.5,1.1
	c0.1,0.1,0.2,0.2,0.2,0.3c0.3,0.1,0.6,0.3,0.8,0.5c0,0.1,0.1,0.2,0.2,0.1c0.2,0.1,0.3,0.1,0.5,0.1s0.4,0,0.6,0.1
	c0.6,0.2,1.3,0.2,1.9,0.1c0.3-0.1,0.7-0.1,1-0.1c0.1-0.1,0.3-0.1,0.4-0.2c0.2-0.1,0.4-0.1,0.6-0.1c0.1-0.1,0.3-0.2,0.5-0.2
	s0.4-0.1,0.6-0.2c0.3-0.1,0.5-0.2,0.8-0.3s0.6-0.2,0.9-0.3c0.6-0.3,1.1-0.5,1.2-0.6c0.1-0.1,0.3-0.1,0.4-0.1
	c0.4-0.3,0.6-0.5,0.7-0.6l0.3-0.2l1-0.7c0.3-0.3,0.7-0.5,1.1-0.6c0.1,0,0.1,0,0.2-0.1c0.4-0.1,0.7-0.2,1.1-0.4l0.3-0.3
	c0.3-0.7,0.4-1.1,0.1-1.4c-0.1-0.5-0.2-0.9-0.3-1.4c-0.1-0.3-0.3-0.6-0.4-0.9c-0.1-0.3-0.2-0.6-0.2-0.9c-0.3-0.8-0.5-1.3-0.6-1.5
	s-0.1-0.3,0-0.5c-0.1-0.6-0.2-1-0.2-1.1c0-0.2-0.1-0.3-0.1-0.4c-0.3-0.8-0.4-1.2-0.5-1.4s-0.1-0.3-0.1-0.5c-0.2-0.2-0.3-0.5-0.4-0.8
	c0-0.1-0.1-0.2-0.2-0.2c-0.2-0.1-0.5,0-0.7,0.1C136.2,207.3,135.9,207.4,135.6,207.3L135.6,207.3z"/>
<path class="st0" d="M165.1,233.4c-0.1-0.8-0.2-1.6-0.2-2.5c0-0.7,0.1-1.3,0.2-2c-0.1-0.2-0.1-0.4-0.1-0.6c0-0.2,0-0.3,0.1-0.5
	c0.2-0.4,0.3-0.8,0.4-1.2l0.2-1.8c0-0.2,0-0.4,0.1-0.5c0-0.2,0-0.4,0.1-0.5c-0.1-0.7-0.1-1.1-0.1-1.2l0.3-2.7
	c0.1-0.6,0.1-1.2,0.1-1.8s-0.1-1.2-0.1-1.8c0-0.3,0-0.7-0.1-1c-0.1,0-0.1-0.1-0.1-0.1c-0.1-0.8-0.1-1.4-0.1-2
	c-0.1-0.7-0.1-1.5,0-2.2c0.3-0.6,0.3-1.1,0.1-1.4c-0.2-0.8-0.4-1.6-0.4-2.5c-0.1-0.4-0.1-0.8-0.1-1.2c0-0.2,0-0.5-0.1-0.7
	c-0.1-0.5-0.2-1-0.1-1.5c0.1-0.2,0.1-0.3,0.1-0.5c0-0.3,0-0.5-0.1-0.8c0-0.3,0-0.6,0.1-0.9c0.1-0.5,0-0.9-0.1-1.4v-1.6
	c0-0.6,0-1.2-0.1-1.8c-0.1-0.4-0.1-0.9-0.1-1.3c0-0.1,0-0.1,0.1-0.2c-0.2-0.4-0.2-0.9-0.2-1.4c0-0.3,0-0.5,0-0.8
	c0-0.6-0.1-1.1-0.2-1.7l-0.1-1.2c-0.1-0.3-0.1-0.6-0.2-0.8s-0.1-0.5-0.2-0.8c-0.1-0.4-0.2-0.8-0.1-1.3c0-0.1,0-0.2,0-0.3
	c0.1-0.3,0.1-0.6,0-0.9c-0.1-0.3-0.2-0.7-0.2-1c-0.1-0.6-0.1-1-0.1-1.2s0-0.4,0.1-0.6c0-0.3,0-0.6,0-0.8c-0.1-0.4-0.1-0.9-0.1-1.3
	c0-0.5,0.1-1,0.2-1.5c0.2-0.2,0.3-0.3,0.5-0.4c0.2-0.1,0.4-0.3,0.6-0.4c0.3-0.1,0.7-0.2,1-0.1c0.1,0,0.3,0,0.4,0
	c0.8-0.1,1.4-0.3,2-0.4c0.4,0.1,0.9,0.2,1.4,0.1c0.5,0,1-0.1,1.4-0.1c0.3-0.1,0.7-0.2,1-0.1c0.4,0.1,0.7,0.1,1.1,0l1.2,0.1
	c0.3-0.1,0.6-0.1,0.9-0.1c0.1,0,0.2,0.1,0.2,0.1c0.7-0.1,1-0.1,1-0.1s0,0,0.1,0.1c0.4,0.1,0.9,0.2,1.3,0.4c0.2,0.1,0.5,0.2,0.8,0.3
	c0.3,0.4,0.5,0.9,0.6,1.4c0,0.2,0.1,0.5,0.1,0.8c0,0.2,0,0.4-0.1,0.6c0,0.2,0,0.4,0.1,0.5c0,0.3,0,0.6,0,0.9c0,0.1,0,0.2,0,0.3
	c0,0.2,0,0.4,0,0.5c0,0.2,0,0.4,0,0.6c0.1,0.3,0.1,0.7,0.2,1c0.1,0.2,0.1,0.5,0.1,0.8c-0.1,0.4,0,0.9,0.1,1.3c0,0.3,0,0.6,0,0.9
	c0,0.3,0,0.6,0.1,0.9c-0.1,0.4-0.2,0.8-0.1,1.2c0.1,0.4,0.1,0.9,0,1.3c0,0.2,0,0.5,0,0.7s0,0.5-0.1,0.7c-0.1,0.3-0.1,0.6-0.1,0.8
	s0,0.5,0,0.7s0,0.5,0.1,0.7s0.1,0.5,0.1,0.7c-0.1,1-0.1,1.9-0.1,2.7s-0.1,1.6-0.1,2.3v1.1c0,0.3-0.1,0.6-0.2,0.9c0,0.3,0,0.6,0,0.9
	c0,0.2,0,0.4-0.1,0.6c0,1.1,0,2.1,0.1,2.9s0.1,1.6,0.1,2.4c0,0.5,0,0.9-0.1,1.4c-0.1,0.4-0.1,0.9,0,1.3c0.2,0.5,0.2,1,0.2,1.6
	c0,0.3,0,0.6,0.1,0.9c0.1,0.6,0.1,1.1,0.1,1.4c0,0.4,0.1,0.8,0.1,1.2c0,0.6,0,1.2,0.1,1.6c0,0.4,0.2,0.8,0.4,1.1
	c-0.1,0.3-0.2,0.7-0.1,1c0.1,0.3,0.1,0.7,0.1,1c0.1,0.2,0.1,0.4,0,0.6c-0.1,0.2-0.1,0.4,0,0.6c0,0.2,0,0.4,0,0.6
	c0,0.2,0,0.4,0.1,0.5c0.1,0.7,0.2,1.1,0.2,1.1c0,0.1,0.1,0.2,0.1,0.2c0,0.9,0.1,1.9,0.4,2.8c0,0.4,0.1,0.9,0.2,1.3
	c0.1,0.8,0.2,1.3,0.2,1.5c0,0.3,0,0.6,0,0.8l-0.7,0.9c-0.4,0.5-0.9,0.8-1.5,0.9c-0.5,0.2-1,0.2-1.5,0.2c-0.2,0-0.5,0-0.6,0.1
	c-0.3,0-0.6,0-0.8-0.1c-0.1,0-0.2,0-0.2,0c-0.5-0.1-0.9-0.2-1.4-0.2c-0.4,0.1-0.9,0.1-1.3,0.1c-0.1-0.1-0.2-0.1-0.3-0.1
	c-0.4,0.1-0.9,0.1-1.3,0.1c-0.2,0-0.4-0.1-0.6-0.1c-0.4,0.2-0.8,0.2-1.3,0.2c-0.2,0-0.3,0-0.5,0c-0.5,0-0.9,0-1.3,0
	c-0.3,0-0.7,0-1-0.1c-0.4,0-0.8-0.1-1.1-0.3c-0.2-0.2-0.5-0.5-0.7-0.7c0,0-0.1,0-0.1-0.1L165.1,233.4z M179.1,169.8
	c-0.2-0.1-0.4,0-0.5,0.1c-0.2,0.1-0.4,0.1-0.5,0.1c-0.5-0.1-0.9-0.1-1.4,0c-0.2,0.1-0.3,0.1-0.5,0.1s-0.4,0-0.6-0.1
	c-0.2-0.1-0.5-0.1-0.7-0.1l-1.5,0.2h-1.7l-0.6-0.2c-0.2-0.1-0.4-0.1-0.6-0.1c-0.3,0-0.5,0-0.8,0.1c-0.2,0.1-0.5,0.1-0.7,0.1
	l-1.4,0.3c-0.3,0.1-0.7,0-1-0.1c-0.8-0.2-1.2-0.4-1.2-0.4c-0.1-0.1-0.1-0.2-0.2-0.2c-0.4-0.3-0.6-0.5-0.5-0.6c0-0.1,0-0.2,0-0.4
	c-0.1-0.5-0.2-1.1-0.1-1.6c0-0.5,0-1-0.1-1.5c0-0.3,0-0.6-0.1-0.9c-0.1-0.3-0.1-0.5-0.2-0.8c-0.1-0.7-0.2-1.2-0.3-1.4
	c0.2-0.5,0.3-1,0.3-1.6c0.3-0.3,0.6-0.7,0.9-1.1c0.1-0.2,0.3-0.3,0.5-0.3c0.5-0.3,0.7-0.4,0.8-0.4l0.5,0.2l1.2-0.2
	c0.2,0,0.4,0,0.6,0c0.3,0,0.7,0,1,0c0.1,0,0.2,0,0.4,0c0.3,0,0.6,0,0.9,0c0.1,0,0.2,0,0.4,0c0.3,0.1,0.6,0.1,0.9,0
	c0.3,0,0.5,0,0.8,0c0.2,0,0.4,0,0.6,0.1c0.2,0.1,0.3,0.1,0.5,0.1c0.2-0.1,0.5-0.1,0.7,0c0.1,0.1,0.3,0.1,0.4,0.1
	c0.2,0,0.5,0,0.7-0.2c0.2-0.1,0.5-0.2,0.7-0.2c0.5,0.1,0.9,0.2,1.4,0.2c0.3,0,0.5,0,0.8,0.1c0.2,0.4,0.4,0.7,0.8,0.9
	c0.2,0.3,0.3,0.7,0.3,1.1c0,0,0,0,0,0.1c0.1,0.7,0.2,1.4,0.1,2.1c-0.1,0.4,0,0.9,0.1,1.3c-0.1,0.1-0.2,0.3-0.1,0.5
	c0,0.2,0.1,0.5,0.1,0.7s0,0.4-0.1,0.6c-0.1,0.2-0.1,0.4-0.1,0.6C179.8,168.2,179.6,169.1,179.1,169.8L179.1,169.8z"/>
<path class="st0" d="M221.7,223.9l0.4-1.1c0.1-0.5,0.1-0.9,0.1-1.4v-1.2c0.1-0.3,0.1-0.5,0.1-0.8c0-0.1-0.1-0.3-0.1-0.4
	c0-0.4-0.1-0.8-0.2-1.2c0.1-0.1,0.2-0.3,0.1-0.5c0-0.2-0.1-0.5-0.1-0.7c0.1-0.4,0.1-0.9,0.1-1.3c0-0.1-0.1-0.3-0.1-0.4
	c0-0.5,0-1,0.1-1.5c0-0.2,0-0.4,0-0.6c-0.1-0.5-0.1-1-0.2-1.5c-0.1-0.5-0.1-1,0-1.5c0.1-0.4,0.2-0.8,0.1-1.3c-0.1-0.1-0.1-0.3,0-0.4
	c0-0.3,0-0.6,0.1-0.9c0.1-0.3,0.1-0.7,0.1-1c0-0.5,0-1-0.1-1.4c-0.1-0.5-0.1-1,0-1.4c0.2-1.3,0.2-2.7-0.1-4l-0.3-1.4
	c-0.1-0.3-0.3-0.6-0.6-0.9l-0.8-0.8c-0.5-0.3-0.8-0.6-0.8-0.9c-0.4-0.1-0.9-0.1-1.4-0.1c-0.4-0.1-0.9,0.1-1.2,0.4
	c-0.4,0-0.8,0.2-1.1,0.4s-0.6,0.4-0.9,0.5c-0.2,0.2-0.4,0.4-0.6,0.6c-0.1,0.1-0.2,0.1-0.2,0.2c-0.4,0.4-0.8,0.9-1.1,1.4
	c-0.2,0.1-0.4,0.2-0.5,0.4s-0.3,0.3-0.4,0.5c-0.3,0.1-0.5,0.3-0.8,0.5c-0.1,0.1-0.2,0.2-0.4,0.2c-0.2,0.1-0.4,0.2-0.6,0.1
	c-0.3,0-0.5,0-0.7,0.1c-0.3-0.1-0.6-0.2-0.9-0.3c-0.3-0.1-0.6-0.2-0.9-0.3c-0.2-0.2-0.5-0.4-0.8-0.6c-0.1,0-0.1-0.1-0.2-0.2
	c-0.3-0.2-0.6-0.5-0.9-0.7c-0.2-0.2-0.4-0.3-0.6-0.3c-0.3,0.9-0.3,1.8-0.2,2.7c0.1,0.8,0.1,1.7,0,2.6c-0.1,0.4-0.1,0.9-0.1,1.3
	c0,0.5,0.1,0.9,0.1,1.2c-0.1,0.4-0.1,0.9-0.1,1.3c0,0.3,0,0.5,0.1,0.8c0,0.3,0,0.6,0.1,0.8c0,0.2,0.1,0.5,0.1,0.8v1.6
	c0.1,0.7,0.2,1.3,0.1,2c-0.1,0.3-0.1,0.7-0.1,1c0,0.4,0.1,0.9,0.2,1.3c0,0.4,0,0.8,0.2,1.2c-0.1,0.7-0.1,1.3-0.1,2
	c0,0.5,0.1,1,0.1,1.5c0.1,0.5,0.2,0.9,0.1,1.4c0,0.2-0.1,0.4-0.1,0.6c0.1,0.5,0.2,1.1,0.1,1.6c0,0.3,0,0.5,0.1,0.7
	c0,0.5,0.1,1,0.2,1.5c0.1,0.3,0.1,0.6,0.2,0.9c0,0.3,0,0.5,0,0.8s0,0.6,0,0.9c0,0.2,0,0.4,0.1,0.6l0.2,0.6l0.1,1.4
	c0.1,0.2,0.1,0.5,0,0.7s0,0.5,0.2,0.7c-0.2,0.7-0.3,1.2-0.4,1.3c-0.1,0.2-0.1,0.5-0.1,0.7c-0.8,0.1-1.2,0.2-1.1,0.3s0,0.2-0.1,0.1
	c-0.5,0.2-1.1,0.2-1.7,0.2c-0.6,0-1.1,0-1.7-0.2c-0.5,0.1-1,0.1-1.5,0c-0.6,0-1.1,0-1.7,0.1c-0.5,0.2-1.1,0.2-1.7,0.2
	c-0.2,0-0.5,0-0.7,0.1c-0.4-0.1-0.8-0.2-1.2-0.1c-0.3,0-0.5,0.1-0.8,0.1c-0.6-0.2-1.2-0.4-1.8-0.7c-0.3-0.2-0.6-0.3-0.9-0.3
	c0.1-0.2,0-0.5-0.1-0.6c-0.2-0.2-0.3-0.3-0.4-0.5c-0.2-0.2-0.3-0.3-0.4-0.5c-0.2-0.3-0.2-0.6-0.1-0.9c0.1-0.5,0.2-1,0.1-1.5
	c0-0.3,0-0.6,0-0.9c0-0.2,0-0.3,0.1-0.4c0-0.2,0-0.5,0-0.7c0.1-0.9,0.1-1.6,0.1-2.2c0.1-0.3,0.2-0.7,0.1-1.1c-0.1-0.3-0.1-0.6,0-0.9
	c0.1-0.6,0.2-1.2,0.2-1.8c0-0.3,0-0.6,0.1-0.9c-0.1-0.4-0.1-0.9-0.1-1.3c0-0.3,0.1-0.6,0.1-0.9c-0.1-0.5-0.2-1-0.1-1.5
	c0-0.2,0-0.4-0.1-0.5c0.1-0.7,0.1-1.2,0.1-1.6v-0.9c-0.1-0.4-0.2-0.9-0.1-1.3c0-0.1,0-0.3,0.1-0.4v-1.4c0-0.4,0-0.7-0.1-1.1
	l-0.1-2.2v-1.3l-0.1-2.3c-0.1-0.3-0.1-0.6-0.2-0.9c-0.1-0.3-0.1-0.7,0-1c0-0.4,0-0.8-0.2-1.2v-1.7c0-0.4,0-0.8-0.1-1.2
	c0-0.1-0.1-0.3-0.1-0.4c0-0.5,0-1.1,0-1.6c0-0.3,0-0.6,0-0.9c-0.1-0.5-0.1-1.1,0-1.6c0.1-0.2,0.1-0.3,0.1-0.5c0-0.3,0-0.6-0.1-0.9
	c-0.1-0.3-0.1-0.6-0.2-0.9c0.1-0.5,0.1-1,0-1.5c-0.1-0.3-0.1-0.7-0.1-1c0.1-0.1,0.1-0.3,0-0.4c-0.1-0.8-0.1-1.4-0.2-1.7
	c-0.1-0.3-0.1-0.7-0.1-1c0.1-0.3,0.1-0.6-0.1-0.9c-0.1-0.2-0.2-0.5-0.1-0.7c0.1-0.8,0.1-1.4,0.1-1.8c0-0.4-0.1-0.8-0.2-1.2
	c0.2-0.4,0.4-0.8,0.5-1.3c0-0.2,0.1-0.4,0.2-0.5c0.2,0,0.4-0.2,0.5-0.4s0.3-0.4,0.5-0.5c0.6-0.1,0.9-0.1,1-0.1
	c0.1,0.1,0.2,0.2,0.3,0.2c0.4-0.2,0.7-0.3,1.1-0.4l1.9-0.1l1.1,0.1c0.3,0.1,0.7,0.1,1,0.1c0,0,0.1,0,0.2,0.1
	c0.2,0.1,0.4,0.1,0.6,0.1c0.3,0,0.5,0,0.6,0c0.3,0,0.6,0,0.9,0c0.1,0,0.2,0,0.3,0c0.4,0,0.8,0,1.1,0c0.1,0,0.1,0,0.1-0.1
	c0.5,0.1,0.9,0.2,1.4,0.2c0.2,0,0.4,0,0.6,0.1c0.4,0,0.6,0,0.7-0.1s0.2,0,0.4,0.1c0.1,0.4,0.3,0.8,0.5,1.1c0.1,0.1,0.2,0.2,0.4,0.4
	c0,0.2,0,0.4,0.1,0.6c0.1,0.2,0.1,0.4,0.2,0.7c-0.1,0.4-0.1,0.7,0,1.1c0.1,0.2,0.1,0.4,0.1,0.6c-0.1,0.6-0.1,1-0.1,1.2s0,0.4,0,0.6
	c-0.1,1.1-0.2,1.8-0.3,2.2s0,0.8,0.1,1.2c0.2-0.1,0.4-0.2,0.6-0.3l0.5-0.4c0.3-0.3,0.7-0.6,1.1-0.8c0.2-0.1,0.3-0.1,0.5-0.2
	c0.3-0.2,0.7-0.4,1-0.5l0.7-0.7l0.4-0.4c0.5-0.2,0.9-0.6,1.2-1.1c0.3-0.1,0.5-0.3,0.7-0.4l0.7-0.5c0.3-0.2,0.7-0.4,1-0.6l0.3-0.4
	c0.4-0.2,0.8-0.5,1.2-0.8c0.2-0.2,0.4-0.3,0.6-0.5c0.7-0.3,1.1-0.5,1.3-0.8c0.5-0.1,1-0.3,1.4-0.6s0.9-0.4,1.4-0.4
	c0.6,0,1.2,0.2,1.7,0.5c0.3,0,0.7,0,1,0.1c0.2,0.1,0.3,0.2,0.4,0.4c0.6,0.3,0.9,0.4,1,0.4l0.3,0.1l1,0.4c0.2,0.1,0.5,0.2,0.8,0.1
	c0.2,0.3,0.3,0.5,0.5,0.8c0,0,0.1,0.1,0.1,0.2c0.4,0.1,0.7,0.3,0.9,0.6c0.3,0.3,0.7,0.5,1.1,0.5c0.3,0.3,0.6,0.6,1,0.9
	c0.1,0,0.2,0,0.3,0.1c0.2,0.5,0.6,0.9,1.1,1.1c0.3,0.6,0.5,0.9,0.6,0.9s0.1,0,0.2,0.1c0.2,0.5,0.6,0.9,0.9,1.3
	c0.2,0.2,0.5,0.4,0.6,0.7l0.8,0.8c0.2,0.6,0.5,1.1,0.9,1.5c0.2,0.2,0.3,0.5,0.4,0.7l0.4,1.4c0.1,0.2,0.2,0.4,0.2,0.6
	c0,0.2,0.1,0.3,0.2,0.4c-0.1,0.4-0.2,0.9-0.2,1.3c0,0.2,0,0.4,0.1,0.6l0.1,1.1c0,0.3,0,0.6,0.1,1c0,0.4,0,0.8-0.1,1.1
	c0,0.5,0,1.1,0.1,1.6c0.1,0.2,0.1,0.5,0.1,0.7c0,0.3-0.1,0.6-0.1,0.9c0,0-0.1,0.1-0.1,0.2c0.1,0.4,0.1,0.9,0.1,1.3
	c0,0.5-0.1,0.9-0.1,1.5c-0.1,0.4-0.1,0.7,0,1.1c0,0.3,0,0.6,0,0.8c-0.1,0.3-0.2,0.6-0.1,0.9c0,0.1,0,0.2,0,0.2
	c-0.1,0.4-0.1,0.8-0.1,1.1l0.1,0.1c0,0.2-0.1,0.4-0.1,0.5c-0.1,0.2-0.1,0.4,0.1,0.5c-0.1,0.4-0.1,0.9,0,1.3c0.1,0.3,0.1,0.6-0.2,0.7
	c0.2,0.7,0.2,1.3,0,2s-0.2,1.3,0,2c-0.1,0.5-0.2,0.9-0.3,1.1c-0.1,0.2-0.1,0.4-0.1,0.6c0.1,0.3,0.2,0.7,0.2,1.1
	c-0.1,0.6-0.1,0.9,0,0.9s0.1,0.1,0.1,0.2c0.1,0.4,0.1,0.8,0.1,1.1c0,0.1-0.1,0.2-0.1,0.2c0.1,0.6,0.2,1.1,0.2,1.7
	c0,0.3,0.1,0.6,0.3,0.8c-0.1,0.6-0.1,1.3,0,1.9c0.1,0.6,0.2,1,0.2,1.1c0.1,0.3,0.1,0.6,0.1,0.9l-0.1,0.1c0.2,0.6,0.2,0.9,0.1,0.9
	s-0.1,0.1-0.1,0.1c0,0.4,0.1,0.9,0.3,1.3c0.1,0.2,0.2,0.5,0.1,0.7c-0.1,0.1-0.1,0.3,0,0.4c0.2,0.2,0.2,0.4,0.2,0.6
	c0,0.3,0.2,0.5,0.4,0.5c0,0.4-0.1,0.7-0.2,1.1c-0.1,0-0.2,0.1-0.2,0.1c-0.3,0.2-0.6,0.3-1,0.4c-0.2-0.1-0.4-0.1-0.6,0
	c-0.5,0.2-1.1,0.3-1.7,0.4h-3.2c-0.5,0-1.1,0-1.6-0.1s-1-0.2-1.4-0.2c-0.3,0.1-0.5,0.1-0.8,0.1c-0.4,0-0.7,0-1.1,0
	c-0.7-0.2-1.1-0.3-1.1-0.4c0,0,0-0.1-0.1-0.1l0,0c-0.6-0.5-1.1-0.9-1.3-1c-0.2-0.2-0.4-0.3-0.6-0.5c-0.1-0.3-0.2-0.7-0.1-1
	c0-0.3,0-0.6-0.1-0.9c-0.1-0.2-0.1-0.5,0-0.7c0.1-0.3,0.1-0.5,0.1-0.8s-0.1-0.6-0.1-0.9c0-0.1,0-0.2-0.1-0.2c0.1-0.7,0-1.1-0.2-1.1
	c0.3-0.4,0.3-1,0-1.4c0.2-0.4,0.3-0.8,0.2-1.2c-0.1-0.3-0.1-0.5,0-0.8L221.7,223.9z"/>
<path class="st0" d="M279,160c0.4,0.4,0.6,0.7,0.8,0.8c0.1,0.2,0.2,0.4,0.2,0.6c-0.1,0.7-0.1,1.1-0.1,1.2c0,0.2-0.1,0.3-0.2,0.4
	l-0.1,1.1c-0.2,0.4-0.2,0.9-0.2,1.4c0,0.2,0,0.4,0,0.6c-0.2,0.3-0.4,0.6-0.5,1c0,0.2,0,0.4-0.1,0.6c-0.3,0.3-0.4,0.7-0.5,1.1
	c0,0.2,0,0.4-0.1,0.6l-0.2,1.2c-0.3,0.7-0.4,1-0.5,1s-0.2,0.1-0.1,0.2c-0.2,0.6-0.3,1-0.3,1.1c0,0.2-0.1,0.3-0.2,0.4
	c-0.5,0-0.9,0.2-1.3,0.5h-1.9c-0.2,0-0.4,0-0.6-0.1c-0.3,0-0.6,0-0.8,0.1l-1.3,0.1c-0.1,0-0.2,0-0.3-0.1c-0.3,0.1-0.7,0.1-1,0.1
	s-0.7,0-1,0s-0.6,0-0.9,0.1l-0.8,0.2l-1,0.2c-0.2,0-0.5,0.1-0.7,0.3c-0.3,0.3-0.5,0.7-0.6,1.1c0,0.2-0.1,0.3-0.2,0.4
	c0.1,0.6,0.1,1.1,0.1,1.7c0,0.5,0.1,0.9,0.2,1.4c0.4,0.1,0.8,0.2,1.2,0.1c0.4-0.1,0.9-0.1,1.3-0.1c0.3,0.1,0.6,0.2,0.9,0.1
	c0.1,0,0.3,0,0.4-0.1c0.5,0,1,0,1.5-0.1c0.3-0.1,0.6-0.1,0.9-0.1c0.5,0.1,0.9,0.1,1.4,0c0.3-0.1,0.6-0.1,0.9,0s0.6,0.1,0.9,0
	c0.2-0.1,0.5-0.1,0.7,0c0.2,0,0.5,0.1,0.7,0.2l0.5,0.4c0.3,0.2,0.5,0.5,0.6,0.8c0,0.1,0,0.3-0.2,0.3c0.1,0.3,0.2,0.6,0.2,0.9
	c0,0.3,0,0.6,0.1,0.9v1.5c0,0.8,0,1.5,0.2,2.3c0,0.9,0,1.6,0,2.2c0.1,0.6,0.1,1.1,0,1.7c-0.2,0.5-0.4,1-0.5,1.5v1.5
	c-0.1,0.4-0.3,0.8-0.5,1.2l-0.3,0.4c-0.5,0.1-0.9,0.2-1.4,0.4c-0.2-0.1-0.4-0.2-0.7-0.2c-0.3,0-0.5-0.1-0.8-0.2
	c-0.7,0.1-1.4,0-2-0.2c-0.4-0.2-0.7-0.3-1.1-0.4c-0.3,0-0.7,0-1,0c-0.4,0-0.7,0-1,0c-0.2,0-0.4,0-0.6,0.1c-0.2,0-0.5,0.1-0.7,0.1
	l-1.1,0.5c-0.1,0-0.1,0.1-0.1,0.1c0,0.2,0,0.5,0,0.7c0,0.1,0,0.2,0,0.3c0,0.4,0,0.9-0.1,1.3c0,0.4,0,0.9,0.1,1.3
	c0.1,0.4,0.1,0.8,0.1,1.2c-0.1,0.8-0.1,1.6,0,2.5c0.1,0.7,0.1,1.2,0.2,1.8c0,0.2,0,0.3,0.1,0.5c0,0.2,0.1,0.4,0.1,0.6
	c0.1,0.6,0.1,1.1,0.1,1.7c0,0.5,0,1.1-0.1,1.6c0.1,0.4,0.2,0.8,0.2,1.2c0,0.2,0,0.4,0.1,0.6v3.7c0.1,0.4,0.1,0.8,0,1.2
	c-0.1,0.1-0.1,0.2-0.1,0.3v1.1c-0.1,0.3-0.1,0.7-0.1,1c0,0.1,0.1,0.2,0.1,0.2c0,0.2,0,0.5-0.1,0.7c0,0.3,0,0.6,0,0.8s0,0.4,0,0.6
	c0,0.2,0,0.4,0,0.6c0.1,0.3,0.1,0.6,0.1,0.9c0,0.1,0,0.1,0,0.2c0.1,0.5,0.1,0.9,0.2,1.3s0.1,0.8,0.2,1.1s0.1,0.7,0.2,1
	c0,0-0.1,0-0.1,0.1c0,0.4,0,0.7,0.1,1.1l0.1,0.3c0.1,0.9,0.1,1.3,0.1,1.5c-0.1,0.3-0.1,0.7,0,1c0.1,0.2,0.1,0.4,0.2,0.6
	c0,0.4,0,0.8,0,1.1c0,0.1,0,0.2,0,0.2c0,0.5,0,1.1,0,1.6c0,0.3,0,0.6,0,0.8c-0.3,0.3-0.6,0.4-0.7,0.4s-0.2,0-0.2,0.1
	c-0.6,0-1.1,0-1.7,0.1l-1.8,0.2c-0.1,0-0.3,0-0.4-0.1c-0.2,0-0.5,0-0.7,0.1c-0.8,0-1.5,0-1.9-0.1c-0.6,0-1.2,0-1.7,0.1
	c-0.8,0.1-1.3,0.2-1.5,0.3s-0.4,0.1-0.5,0.1c-0.3,0.1-0.7,0.1-1,0s-0.7-0.1-1,0c-0.4,0.1-0.7,0.2-1.1,0.2c-0.2,0-0.4,0-0.6-0.1
	c-0.5-0.1-1-0.3-1.4-0.6c-0.6-0.5-0.9-0.7-0.8-0.8c0-0.1,0-0.1-0.1,0.1c0.1-0.3,0-0.6-0.1-0.8c-0.2-0.2-0.3-0.5-0.2-0.8
	c-0.1-0.3-0.1-0.5,0-0.8s0.1-0.6,0.1-0.9c0-0.5,0-0.9,0.1-1.4c0.1-0.1,0-0.3-0.1-0.4c0.1-0.1,0.2-0.3,0.2-0.5s0-0.5,0.1-0.7v-1.3
	c0-0.3,0.1-0.7,0.1-1c0-0.1,0.1-0.2,0.1-0.4c0.1-0.6,0.1-1.1,0.1-1.2c-0.1-0.2,0-0.5,0.1-0.7s0.1-0.4,0.1-0.6
	c-0.1-0.7-0.1-1-0.1-1.1l0.1-1.4c-0.1-0.6-0.1-0.9,0-0.9s0.1-0.1,0.1-0.2c0-0.3,0-0.6,0.1-0.9c0-0.1,0-0.3,0-0.4
	c0-0.2,0-0.4-0.1-0.6c-0.1-0.2-0.1-0.4-0.1-0.5c0.1-0.7,0.1-1.5,0.1-2.2c0-0.4-0.1-0.8-0.1-1.3c0-0.6,0-1.1-0.2-1.7
	c0.1-0.3,0.1-0.6,0.1-0.9c0-0.1-0.1-0.1-0.1-0.2c0.1-0.2,0.1-0.5,0.1-0.7v-0.5c0-0.3,0-0.7,0.1-1c0-0.4,0-0.8,0-1.2
	c-0.1-0.9-0.1-1.4-0.1-1.5s-0.1-0.3-0.1-0.4c0.2-0.5,0.2-0.9,0.2-1.4c-0.1-0.1-0.1-0.3-0.1-0.4c-0.1-0.7,0-1.1,0.1-1s0.1,0,0.1-0.1
	c0.1-0.4,0.2-0.8,0.1-1.2c0-0.3,0-0.6,0-0.9c0-0.2,0-0.5,0-0.7c0.1-0.4,0.1-0.8,0-1.1c-0.1-0.1-0.1-0.2,0-0.3c0.1-0.3,0.1-0.7,0.1-1
	c0-0.4-0.1-0.8-0.1-1.2c-0.3-0.1-0.5-0.2-0.8-0.2H248c-0.4-0.1-0.7-0.1-1.1-0.1c0,0,0,0.1-0.1,0.1c-0.8-0.1-1.3-0.2-1.6-0.3
	c-0.4-0.3-0.8-0.5-1.3-0.6c-0.1,0-0.1,0-0.1-0.1c-0.3-0.3-0.5-0.6-0.7-0.9c-0.3-0.7-0.4-1.2-0.2-1.5c0.1-0.3,0.1-0.6,0-0.9
	c-0.2-0.6-0.2-1.2,0-1.8c0-0.3,0-0.6-0.1-0.9c-0.1,0-0.1-0.1-0.1-0.2V186c0-0.6-0.1-1.1-0.2-1.7V184c0-0.2,0-0.4-0.1-0.6
	c-0.1-0.5-0.1-1.1,0-1.7c0-0.6,0.1-1.2,0.2-1.8c0.1-0.3,0.2-0.5,0.3-0.7c0.4-0.2,0.8-0.3,1.3-0.4c0.5-0.1,1.1-0.1,1.7,0
	c0.5,0,0.9,0,1.4-0.1c0.4-0.1,0.8,0,1.2,0.1c0-0.1,0-0.3,0-0.7s-0.1-0.6-0.4-0.6c0.2-0.6,0.3-1.2,0.3-1.9c0-0.4,0-0.7,0.1-1.1
	c0-0.3,0-0.7,0-1c0,0,0,0,0-0.1c0-0.4,0.1-0.8,0.1-1.2c0-0.1,0.1-0.2,0.1-0.3c0.2-0.4,0.3-0.7,0.4-1.1c0-0.1,0-0.2,0.1-0.2
	c0.3-0.6,0.6-1.2,0.7-1.9c0.3-0.7,0.4-1.1,0.5-1.3s0.1-0.4,0.2-0.6l0.9-1c0.1-0.2,0.3-0.3,0.4-0.4c0.2-0.3,0.4-0.6,0.5-1
	c0.2-0.4,0.4-0.8,0.7-1.2s0.6-0.7,1-1c0.2-0.1,0.5-0.2,0.7-0.1c0.7-0.3,1.4-0.7,2.1-1.2c0.5-0.2,0.8-0.3,1.1-0.4
	c0.2-0.1,0.5-0.2,0.6-0.3c0.5,0,1.1-0.2,1.6-0.4c0.4,0,0.9,0,1.3-0.1l0.5-0.2c0.2-0.1,0.4-0.2,0.6-0.2c0.5-0.1,0.9-0.1,1.4-0.1
	c0.2-0.1,0.4-0.1,0.6,0s0.5,0.1,0.7,0.1s0.5,0,0.7,0s0.5,0,0.7,0c0.5,0.1,1,0.2,1.5,0.1c0.3-0.1,0.6,0,0.9,0.1
	c0.5-0.1,1-0.1,1.3-0.2c0.3-0.1,0.7-0.1,1,0s0.6,0.1,0.9,0.1c0.1,0,0.2,0,0.3,0c0.2,0,0.3,0,0.5,0s0.4,0,0.6-0.1
	c0.3,0.1,0.7,0.2,1,0.2c0.4,0,0.8-0.1,1.2-0.2c0.4,0.3,1,0.5,1.5,0.4s1-0.1,1.4,0L279,160z"/>
<path class="st0" d="M307.7,175.5c0.2,0,0.5,0,0.7,0s0.4,0,0.6-0.1c0.4,0.2,0.8,0.3,1.2,0.3c0.4-0.1,0.9,0,1.3,0.1
	c0.3,0.1,0.5,0.1,0.8,0.1c0.2,0,0.5,0.2,0.6,0.4c0.2-0.1,0.5,0,0.7,0.1c0.1,0.1,0.3,0.2,0.5,0.2c0.9,0,1.9,0.2,2.7,0.7
	c0.8,0,1.3,0.1,1.5,0.2c0.1,0.1,0.3,0.2,0.5,0l0,0c0.3,0.3,0.8,0.6,1.2,0.7c0.2,0,0.4,0.1,0.6,0.2c0.1,0.1,0.3,0.1,0.5,0.2
	c0.2,0.1,0.5,0.2,0.7,0.2c0.3,0.2,0.6,0.5,0.9,0.7c0,0,0,0.1,0.1,0.1c0.9,0.3,1.4,0.6,1.5,1c0.3,0.2,0.6,0.4,0.9,0.7
	c0.8,0.4,1.2,0.7,1.2,0.9c0.5,0.3,0.9,0.6,1.3,1l0.8,0.9c0.2,0.3,0.4,0.6,0.6,1c0,0.1,0,0.1,0.1,0.2l0.6,0.8
	c0.1,0.1,0.2,0.2,0.3,0.3c0.4,0.4,0.7,0.8,1,1.3c0.3,0.3,0.5,0.7,0.6,1.1c0,0.1,0.1,0.2,0.1,0.2l0,0c0,0.4,0.2,0.8,0.4,1.1
	c0.1,0.3,0.3,0.6,0.4,0.8c0.1,0.1,0.1,0.2,0.1,0.2l0.6,1c0.1,0.4,0.3,0.8,0.6,1.2c0.1,0.1,0.2,0.3,0.3,0.4c0.1,0.2,0.1,0.4,0.1,0.5
	c0,0.2,0.1,0.3,0.1,0.5c0.1,0.8,0.3,1.5,0.6,2.3c0.1,0.4,0.3,0.8,0.4,1.2c0,0.2,0.1,0.4,0.1,0.6c0.1,0.5,0.2,0.9,0.2,1.4
	c0,0.2,0.1,0.5,0.2,0.7c-0.1,0.2-0.1,0.5,0,0.7c0.1,0.3,0.2,0.5,0.3,0.8c0.1,0.2,0.1,0.5,0,0.7c0.2,0.4,0.2,0.9,0,1.3
	c0,0.2,0.1,0.5,0,0.7c-0.1,0.4-0.2,0.8-0.1,1.3c0,0.2,0.1,0.3,0,0.5c0,0.4,0,0.9-0.1,1.3l-0.2,0.4v1c0,0.3-0.1,0.7-0.2,1
	c-0.1,0.2-0.1,0.5,0,0.7c0,0.2,0,0.4-0.1,0.6l-0.4,1.6c-0.1,0.4-0.1,0.8,0,1.2c0,0.1,0,0.1,0,0.2c-0.1,0.2-0.2,0.5-0.2,0.7
	c0,0.1,0,0.2-0.1,0.3c-0.1,0.4-0.3,0.8-0.4,1.2c0,0,0,0,0,0.1c-0.1,0.5-0.2,0.9-0.5,1.3c-0.4,0.7-0.7,1-0.9,1
	c-0.1,0.6-0.4,1.2-0.8,1.8c-0.3,0.3-0.4,0.7-0.4,1.2L331,224c-0.5,0.7-0.7,1.1-0.8,1.3c-0.1,0.1-0.2,0.3-0.4,0.4
	c-0.3,0.3-0.5,0.5-0.7,0.8c0,0,0,0.1-0.1,0.1c-0.3,0.3-0.5,0.5-0.7,0.8c-0.2,0.2-0.3,0.5-0.4,0.7c-0.3,0.1-0.6,0.3-0.9,0.6
	s-0.6,0.5-0.9,0.8c-0.2,0.2-0.3,0.3-0.5,0.4c-0.2,0.1-0.4,0.3-0.5,0.6c-0.6,0.4-1.2,0.7-1.8,0.9c-0.4,0.2-0.8,0.4-1.1,0.6
	c0,0.1-0.1,0.1-0.1,0.2l-1.2,0.3l-0.3,0.1l-1,0.5l-1.1,0.4c-0.3,0.2-0.7,0.3-1,0.4c-0.2,0-0.3,0-0.5,0c-0.5,0.3-0.7,0.5-0.8,0.4
	c-0.1,0-0.2,0-0.3,0c-0.2,0.1-0.4,0.2-0.6,0.2c-0.2,0.1-0.5,0.1-0.7,0c-0.3,0.3-0.7,0.4-1.1,0.4c-0.3,0-0.5,0-0.8,0.1
	c-0.7,0.2-1.4,0.3-2.2,0.2c-0.5-0.1-1-0.1-1.5,0.1c-0.3,0.1-0.6,0.1-0.8,0.2l-0.7,0.2c-0.3,0-0.7,0-1-0.1c0,0,0,0-0.1,0
	c-0.3,0.1-0.7,0.1-1,0s-0.7-0.2-1.1-0.3c-0.5-0.1-0.9-0.2-1.4-0.3c-0.2,0-0.3,0-0.5-0.1c-0.5-0.3-0.7-0.4-0.7-0.3s-0.1,0-0.2-0.1
	c-0.2,0.1-0.5,0.2-0.7,0.1c-0.3-0.1-0.6-0.1-0.9-0.1c-0.4-0.1-0.8-0.3-1.2-0.5c-0.2-0.1-0.3-0.3-0.4-0.4c-0.7,0.1-1.3-0.2-1.7-0.8
	c-0.3,0-0.6-0.1-0.8-0.4c-0.2-0.3-0.5-0.4-0.8-0.3c-0.3-0.3-0.6-0.6-0.9-0.9c-0.4-0.2-0.7-0.4-1.1-0.7c-0.3-0.2-0.6-0.4-0.9-0.6
	c-0.2-0.1-0.3-0.2-0.5-0.3c-0.6-0.6-1-1-1.2-1c-0.5-0.4-1.1-0.8-1.7-1.2l-1-1.2c-0.4-0.4-0.8-0.8-1.3-1.1c-0.1-0.2-0.1-0.4-0.2-0.5
	c-0.1-0.2-0.2-0.3-0.4-0.4c-0.2-0.4-0.4-0.8-0.6-1.2c-0.5-0.5-0.7-0.8-0.8-0.9c-0.1-0.1-0.2-0.3-0.2-0.4c-0.3-0.7-0.6-1.2-0.7-1.6
	c-0.2-0.4-0.4-0.8-0.6-1.2c-0.3-0.7-0.6-1.4-1.1-2c-0.1-0.2-0.2-0.4-0.2-0.6c-0.1-0.3-0.1-0.5,0-0.8c-0.3-1-0.4-1.6-0.5-2
	s-0.2-0.7-0.4-1.1c-0.1-0.3-0.2-0.7-0.1-1.1c0-0.2,0-0.3,0-0.5c-0.1-0.7-0.2-1.1-0.2-1.2v-0.7c0-0.2,0-0.5-0.1-0.7
	c-0.1-0.5-0.1-1,0-1.6c0.1-0.7,0-1.3-0.1-2c0-0.2-0.1-0.4-0.1-0.6c-0.1-0.2-0.1-0.5-0.1-0.7c0.1-0.5,0.2-0.9,0.1-1.4
	c0-0.1,0-0.3,0-0.4c0.1-0.4,0.2-0.7,0.1-1.1c0-0.2,0-0.3,0-0.5l0.2-1.1c0.1-0.4,0.2-0.8,0.3-1.2c0.1-0.1,0.1-0.3,0.1-0.4
	c0.1-0.4,0.2-0.8,0.4-1.2c0.2-0.3,0.3-0.7,0.6-0.9c0.1,0,0.1-0.1,0.1-0.1c0-0.5,0.2-1,0.4-1.4c0.2-0.4,0.3-0.6,0.4-0.7
	c0.1-0.2,0.1-0.4,0.1-0.5l1-1.5c0.2-0.3,0.3-0.7,0.4-1.1c0.2-0.4,0.4-0.8,0.7-1.1c0.2-0.2,0.4-0.5,0.6-0.7s0.4-0.6,0.6-0.9
	c0.2-0.3,0.4-0.6,0.5-0.9c0.5-0.4,0.8-0.9,1-1.5c0.2-0.1,0.4-0.2,0.5-0.3l0.3-0.4c0.6-0.5,0.9-0.8,1-0.9c0.3-0.3,0.6-0.6,0.9-0.8
	c0.1,0,0.2-0.1,0.2-0.1c0.5-0.6,1.1-1.2,1.8-1.6c0.3-0.3,0.6-0.5,1-0.6c0.2,0,0.4-0.1,0.5-0.2c0.3-0.1,0.5-0.3,0.8-0.4
	c0.1,0,0.3-0.1,0.4-0.2c0.6-0.3,1.2-0.6,1.8-0.8c0.4-0.1,0.7-0.3,1.1-0.5c0.4-0.1,0.7-0.2,1.1-0.2c0,0,0.1,0,0.1-0.1l1-0.6
	c0.4-0.2,0.8-0.3,1.2-0.3c0.2,0,0.4,0,0.6-0.1c0.5-0.2,1-0.4,1.5-0.5c0.3-0.2,0.7-0.3,1.1-0.3c0.2,0,0.5,0,0.7-0.1
	c0.3,0,0.6,0,0.9-0.1s0.7-0.1,1,0L307.7,175.5z M304.3,222.2c0.5,0.6,0.7,0.9,0.8,0.9c0.6,0.6,1.1,1,1.4,1.3
	c0.5,0.2,0.9,0.5,1.3,0.8c0.4,0,0.9,0,1.3-0.2l0.4-0.3l1-0.5c0.6-0.8,1-1.2,1.3-1.3c0.2-0.3,0.3-0.5,0.5-0.8c0.1,0,0.1,0,0.1-0.1
	c0.5-0.4,0.8-0.7,0.9-0.8c0.3-0.3,0.6-0.7,0.9-1.1c0.2,0,0.4,0,0.5-0.2s0.3-0.3,0.4-0.4c0.1-0.5,0.3-0.9,0.6-1.2
	c0.3-0.3,0.5-0.7,0.6-1.1c0.7-0.7,1.1-1.2,1.1-1.4c0.4-0.6,0.6-0.9,0.7-0.9c0.3-0.6,0.7-1.1,1.1-1.6c0.3-0.4,0.5-0.8,0.7-1.3
	c0.5-0.7,0.7-1,0.7-1s0-0.1,0-0.2c0-0.8,0.2-1.6,0.5-2.4c0.2-0.6,0.3-1.2,0.3-1.8c0-0.4-0.1-0.8-0.2-1.2c-0.1-0.1-0.1-0.2-0.1-0.4
	c-0.1-0.7-0.1-1-0.1-1.1c0-0.3-0.1-0.6-0.2-0.8c-0.1-0.1-0.1-0.2-0.1-0.4c-0.3-0.8-0.5-1.2-0.6-1.4c-0.1-0.1-0.1-0.3,0-0.4
	c-0.3-0.3-0.5-0.7-0.6-1.1c-0.2-0.3-0.4-0.7-0.4-1.1c0-0.1,0-0.2,0-0.2c-0.3-0.4-0.5-0.9-0.6-1.4l-0.7-1.1c-0.5-0.7-0.8-1.2-0.9-1.4
	s-0.3-0.5-0.4-0.7c-0.2-0.3-0.4-0.6-0.6-1c-0.1-0.2-0.2-0.3-0.3-0.5c-0.1-0.2-0.2-0.3-0.3-0.5l-0.7-0.9c-0.4-0.4-0.7-0.8-0.9-1.2
	c-0.1-0.2-0.3-0.4-0.4-0.5l-1-1.1c-0.1-0.1-0.2-0.2-0.3-0.2c-0.3-0.2-0.6-0.5-0.8-0.8c-0.4-0.2-0.8-0.4-1.2-0.7
	c-0.2-0.2-0.4-0.3-0.7-0.3c-0.2,0-0.5-0.1-0.7-0.2c-0.3,0.2-0.6,0.3-1,0.2c-0.3,0-0.7,0.1-0.9,0.3c-0.4,0.2-0.8,0.3-1.2,0.4
	l-1.1,0.6c-0.2,0.1-0.4,0.3-0.6,0.4c-0.2,0.2-0.4,0.3-0.6,0.4c-0.6,0.4-0.9,0.6-0.9,0.7c-0.3,0.3-0.4,0.6-0.5,0.6
	c-0.1,0.2-0.1,0.4,0,0.6c-0.7,0.5-1.1,0.7-1.2,0.8s-0.2,0.2-0.4,0.2c-0.1,0.3-0.3,0.6-0.5,0.8c-0.3,0.3-0.4,0.6-0.4,1
	c-0.3,0.3-0.7,0.6-1.1,0.9c-0.1,0.4-0.3,0.9-0.5,1.3c-0.2,0.3-0.3,0.5-0.4,0.8c0,0.1-0.1,0.2-0.2,0.2c-0.3,0.9-0.4,1.4-0.5,1.6
	c-0.1,0.3-0.3,0.5-0.5,0.6c-0.1,0.6-0.3,1.2-0.5,1.7c-0.1,0.3-0.3,0.6-0.4,0.8c0,0.3-0.1,0.5-0.2,0.7c-0.1,0.1-0.1,0.2-0.2,0.3
	c0,0.4-0.1,0.9-0.2,1.3c-0.1,0.1,0,0.2,0.1,0.3c-0.3,0.7-0.4,1.4-0.5,2.1c0,0.5,0,1,0,1.5c0.1,0.3,0.1,0.6,0.2,0.8s0.1,0.5,0,0.7
	c-0.1,0.5-0.1,1,0,1.5c0.1,0.2,0.1,0.4,0.2,0.7c0.1,0.2,0.2,0.5,0.2,0.7s0.1,0.4,0.1,0.5c0.2,0.4,0.5,0.8,0.8,1.2s0.5,0.8,0.9,1.2
	c0.5,0.6,0.8,1.1,0.9,1.2c0.1,0.2,0.3,0.4,0.4,0.5l0.4,0.4c0.1,0.2,0.3,0.3,0.4,0.5c0.3,0.1,0.6,0.3,0.8,0.4
	c0.2,0.1,0.3,0.3,0.5,0.4c0.2,0.3,0.4,0.6,0.6,0.9c0.2,0.2,0.4,0.3,0.6,0.4l1.1,0.9c0.2,0.1,0.3,0.3,0.4,0.5
	c0.2,0.1,0.4,0.3,0.7,0.4C303.8,221.8,304.1,222,304.3,222.2L304.3,222.2z"/>
<path class="st0" d="M358.6,189.1c0.6-0.5,0.9-0.7,1-0.8c0.3-0.2,0.5-0.5,0.7-0.8c0-0.1,0-0.1,0.1-0.2l1-1c0.1-0.1,0.1-0.2,0-0.3
	c0.2,0,0.4-0.2,0.5-0.4s0.2-0.4,0.4-0.6c0.3-0.3,0.6-0.6,0.9-0.9c0.1,0,0.1-0.1,0.2-0.2c0.5-0.6,1-1.1,1.6-1.6
	c0.5-0.4,1-0.9,1.4-1.4c0.3-0.1,0.6-0.3,0.9-0.5s0.6-0.4,0.9-0.5s0.7-0.2,1-0.4h0.1c0.2-0.1,0.4-0.2,0.6-0.2s0.3,0,0.4-0.1
	c0.5,0,0.9-0.1,1.3-0.3c0.1-0.1,0.2-0.1,0.4-0.2c0.6-0.1,1-0.1,1.1-0.1s0.2,0,0.4,0c0.2-0.1,0.4-0.1,0.6-0.1s0.4-0.1,0.5-0.2h1.1
	c0.4,0.1,0.8,0.1,1.2,0.1c0.4,0,0.8-0.1,1.1-0.1c0.1,0,0.2,0,0.3,0c0.6,0.7,1,1.2,1.1,1.4l0.4,0.6l0.2,1.3c0,0.1,0.1,0.3,0,0.4
	c0,0.6,0.1,1.1,0.3,1.7c0.1,0.5,0.2,0.9,0.3,1.1c0,0.2,0,0.3,0,0.4c0,0.2,0,0.4,0,0.6c0.1,0.4,0.2,0.9,0.1,1.3c0,0.1-0.1,0.2,0,0.3
	c0,0.3,0,0.7,0.1,1c0,0.3,0.2,0.6,0.4,0.8v1.9c0,0.6-0.1,1.3-0.2,1.9c-0.3,0.2-0.7,0.3-1.1,0.4c-0.2,0-0.3-0.1-0.5-0.2
	c-0.5-0.1-0.8-0.1-0.9-0.1s-0.2,0-0.3-0.1c-0.2,0.1-0.5,0.2-0.7,0.1c-0.1,0-0.2-0.1-0.3-0.1l-1.1,0.3c-0.9,0.3-1.4,0.4-1.7,0.5
	l-0.9,0.2l-0.9,0.3l-0.9,0.4c-0.3,0.1-0.6,0.3-0.9,0.4c-0.3,0.1-0.6,0.2-0.9,0.3c-0.4,0.2-0.8,0.4-1.3,0.5c-0.1,0-0.2,0.1-0.3,0.2
	c-0.3,0.2-0.6,0.3-0.9,0.4c-0.1,0-0.2,0-0.3,0.1c-0.2,0.1-0.4,0.3-0.5,0.4c-0.2,0.2-0.5,0.3-0.7,0.3c-0.5,0.5-0.7,0.8-0.8,0.8
	c-0.3,0.2-0.6,0.4-0.9,0.7c-0.1,0.1-0.3,0.2-0.4,0.4l-0.5,0.3c-0.6,0.6-1.1,1-1.3,1.2l-0.7,0.7c-0.4,0.2-0.8,0.6-1.1,1
	c-0.2,0.3-0.3,0.6-0.4,0.9c0,0.1-0.1,0.3-0.1,0.4c-0.1,0.2-0.3,0.3-0.3,0.5c-0.1,0.2-0.2,0.4-0.5,0.5c-0.1,0.3-0.2,0.6-0.3,0.9
	c-0.1,0.1-0.2,0.2-0.3,0.3c0.1,0.2,0.2,0.5,0.1,0.7s-0.1,0.5-0.1,0.7c0,0.3,0,0.6-0.1,0.9c-0.1,0.1-0.1,0.3-0.1,0.4
	c0.1,0.3,0.2,0.7,0.1,1c0,0-0.1,0.1-0.1,0.2c0.1,0.4,0,0.7-0.1,1.1c0,0.3,0,0.7,0,1c0,0.1,0,0.1,0,0.2c0.1,0.7,0.1,1.2,0.1,1.6
	c-0.1,0.2-0.1,0.5,0,0.7c0,0.2,0,0.3,0,0.5c0.1,0.4,0.1,0.7,0.1,1.1c0,0.1,0,0.2,0,0.3c0,0.3,0,0.6,0,0.9c0,0.3,0,0.5,0,0.7
	c0,0.8,0,1.4,0,1.7c0,0.4,0,0.8,0,1.2v1.4c0,0.4,0,0.8,0.1,1.2c-0.1,0.3-0.1,0.5,0,0.8c0,0.1,0,0.3,0,0.4c0.1,0.8,0.1,1.3,0.1,1.5
	s0,0.3,0.1,0.5c0,0.4,0,0.7,0.1,1.1c0.1,0.3,0.2,0.5,0.1,0.8c0,0.1-0.1,0.2,0,0.3c0.1,0.2,0.1,0.4,0.2,0.5s0.1,0.3,0.2,0.5
	c0.1,0.4,0.1,0.9,0,1.3c-0.1,0.4-0.2,0.8-0.3,1.2c-0.1,0.5-0.3,0.9-0.6,1.3c-0.3,0.2-0.6,0.3-0.9,0.5l-0.4,0.2l-0.8,0.4
	c-0.2,0.1-0.4,0.2-0.6,0.2s-0.4-0.1-0.6-0.1c-0.2-0.1-0.5-0.1-0.8-0.1s-0.6,0-0.9,0.1s-0.6,0.1-0.9,0c-0.4-0.1-0.8-0.2-1.2-0.2
	c-0.1,0-0.3,0-0.4,0.1h-1.4l-1.1,0.1c-0.4,0-0.7,0.1-1.1,0.2c0,0,0,0-0.1,0c-0.7-0.1-1.3-0.2-1.9-0.4l-1-0.4
	c-0.1-0.4-0.2-0.8-0.4-1.1c-0.1,0-0.1-0.1-0.2-0.1c-0.2-0.5-0.3-1-0.3-1.6c0.1-0.1,0-0.3-0.1-0.4c0.1-0.3,0.2-0.6,0.1-0.9
	c0-0.3,0-0.6,0-0.9c0.1-0.4,0.2-0.8,0.2-1.2c0.1-0.6,0.1-1.2,0.1-1.8V225c0-0.3,0-0.5,0-0.8s0-0.6,0-0.9c0.1-0.2,0.1-0.4,0-0.6
	c0-0.2-0.1-0.5,0-0.7c0.1-0.4,0.2-0.8,0.2-1.2c0.1-0.4,0.1-0.8,0-1.2c0-0.4,0-0.9,0-1.2c0.1-0.5,0.2-1,0.1-1.6c0-0.3,0-0.7,0-1
	c0-0.2,0-0.4,0-0.6c0-0.2,0.1-0.4,0-0.6c-0.1-0.5-0.1-1.1,0-1.6c0-0.2,0.1-0.4,0-0.6v-3.8l-0.1-1.8v-1.7c0-0.3,0-0.6,0-0.8
	c0-0.1,0.1-0.2,0-0.3c-0.1-0.3-0.1-0.5-0.1-0.6c0-0.2,0-0.5,0-0.7c0.1-0.4,0.2-0.9,0.2-1.4c-0.1-0.3-0.1-0.7,0-1
	c0-0.2,0-0.4-0.1-0.6c0.1-0.7,0.1-1.1,0.1-1.2c0.1-0.1,0.1-0.2,0.1-0.3c-0.1-0.5-0.1-1.1,0-1.6c0.1-0.3,0.1-0.7,0-1
	c-0.2-0.5-0.3-1.1-0.2-1.7l-0.2-1.3l0.3-1.1c0-0.3,0-0.6,0-0.9c0-0.3,0-0.6,0-0.8c-0.1-1.1-0.1-1.6-0.1-1.8c0-0.4-0.1-0.8-0.2-1.2
	c-0.1-0.1-0.1-0.3-0.1-0.4c0-0.5,0-1-0.1-1.4c-0.1-0.1-0.1-0.3-0.1-0.4c0-0.3,0-0.5,0-0.8c0-0.2-0.1-0.5-0.2-0.7
	c-0.1-0.3-0.2-0.6-0.2-0.9c0-0.2,0-0.3,0.1-0.4c0.1-0.3,0.2-0.6,0.3-0.9c0.1-0.3,0.1-0.6,0-0.9c0.4-0.5,0.9-0.9,1.4-1.3
	c0.2-0.1,0.4-0.2,0.6-0.2s0.4-0.1,0.5-0.2c0.3,0.1,0.6,0.2,0.9,0.1c0.3,0,0.6-0.1,0.9-0.1s0.7,0,1,0.1c0.3,0,0.7,0,1,0
	s0.6-0.1,0.8-0.2c0.2-0.1,0.5-0.1,0.7-0.1c0.7-0.1,1.4-0.1,2.1,0c0.2,0,0.5,0,0.7-0.1c0.2,0,0.5,0,0.7,0.1l1.2,0.1
	c0.3,0.1,0.7,0,1-0.1c0.4-0.1,0.8-0.1,1.1,0.1c0.4,0.2,0.7,0.5,0.9,0.8c0.1,0.2,0.2,0.2,0.5,0.2c0,0.3,0.1,0.6,0.2,0.9
	c0.1,0.2,0.2,0.5,0.2,0.8c-0.2,0.6-0.3,1.3-0.3,2c-0.3,0.3-0.4,0.6-0.4,1s-0.1,0.7-0.3,1c0,0.3,0,0.6-0.1,0.9
	c-0.1,0.2-0.1,0.5-0.1,0.7c0.1,0.6,0,1.2,0,1.7C358.4,188.3,358.4,188.7,358.6,189.1z"/>
<path class="st0" d="M384.6,202.3c0.2-0.6,0.4-1.2,0.4-1.8c0-0.4,0.1-0.8,0.3-1.1v-1.3c0.2-0.5,0.4-1,0.5-1.5
	c0.1-0.7,0.2-1.1,0.2-1.2c0-0.1,0-0.2,0.1-0.4c0.1-0.3,0.2-0.7,0.4-1.3c0.3-0.8,0.5-1.3,0.6-1.7s0.3-0.6,0.4-0.9
	c0.2-0.3,0.4-0.6,0.5-1c0-0.2,0.1-0.3,0.2-0.4c0.2-0.2,0.3-0.4,0.5-0.6c0.2-0.2,0.3-0.5,0.3-0.8c0.3-0.5,0.8-0.9,1.4-1.2
	c0.3-0.6,0.5-1,0.7-1.1s0.3-0.3,0.2-0.6c0.2-0.1,0.4-0.3,0.6-0.4c0.2-0.2,0.4-0.4,0.7-0.4c0.3-0.6,0.4-0.9,0.5-1s0.1-0.2,0.2-0.2
	c0.2-0.1,0.4-0.3,0.6-0.5l0.6-0.6c0.3-0.2,0.7-0.4,1.1-0.5c0.5-0.3,1-0.6,1.5-0.9c0.3-0.1,0.6-0.4,0.7-0.7c0.2,0,0.4,0,0.6-0.1
	l0.5-0.2c0.7-0.3,1-0.5,1.1-0.6s0.2-0.1,0.2-0.1c0.2-0.1,0.3-0.3,0.5-0.4c0.2-0.1,0.3-0.2,0.5-0.4c0.4,0,0.8-0.1,1.1-0.3l1.2-0.2
	c0.7-0.3,1-0.4,1.1-0.3c0.1,0.1,0.3,0.1,0.5,0c0.3,0,0.6-0.1,0.9-0.2c0.1-0.1,0.3-0.2,0.4-0.2c0.5-0.1,1.1-0.2,1.8-0.3
	c0.2,0,0.4-0.1,0.6-0.2c0.2-0.1,0.4-0.1,0.6-0.2c0.4,0.1,0.9,0.1,1.3,0c0.3-0.1,0.7-0.1,1-0.1s0.5,0,0.8,0.1l0.8,0.2h1.2
	c0.4,0,0.8,0,1.2,0.1c0.3,0.2,0.5,0.3,0.8,0.4c0.3,0.1,0.6,0.2,0.9,0.3c0.6,0.2,1.2,0.5,1.7,0.9c0.6,0.1,1.2,0.4,1.8,0.7l1.2,0.7
	c0.1,0.1,0.3,0.1,0.4,0.1c0.9,0.5,1.5,0.8,1.9,1.1s0.7,0.6,0.9,0.8c0.1,0.1,0.3,0.2,0.4,0.3c0.2,0.1,0.4,0.2,0.5,0.3l0.9,1.3
	c0.2,0.2,0.4,0.4,0.6,0.6c0.1,0.1,0.2,0.1,0.3,0.1c0.3,0.5,0.5,0.8,0.5,0.9c0,0.1,0.1,0.2,0.2,0.2c0.3,0.4,0.6,0.8,0.8,1.2
	c0.4,0.7,0.6,1.1,0.7,1.2s0.2,0.4,0.3,0.6c0.1,0.4,0.3,0.9,0.5,1.3c0.1,0.2,0.2,0.4,0.2,0.6c0.2,0.2,0.3,0.5,0.4,0.8
	c0,0.2,0.2,0.3,0.3,0.4c-0.1,0.3,0,0.7,0.1,1s0.3,0.6,0.4,0.9c0,0.4,0.1,0.8,0.2,1.2c0.1,0.8,0.2,1.3,0.2,1.5s0,0.3,0,0.5
	c0.2,0.3,0.2,0.5,0.2,0.8c0,0.2,0,0.4,0,0.5c0,0.2,0,0.5,0.1,0.7s0.1,0.4,0.2,0.6c0.1,1.2,0.1,2.5,0,3.7c-0.1,0.5-0.1,0.8-0.1,1.1
	c-0.1,0.3-0.1,0.7-0.2,1c-0.6,0.3-1.1,0.5-1.4,0.6c-0.3,0.3-0.7,0.5-1.2,0.5c-0.3,0-0.6,0.2-0.8,0.5c-0.5-0.1-0.8-0.1-0.8,0
	s-0.1,0.2-0.2,0.2c-0.4,0.2-0.8,0.3-1.3,0.4c-0.1,0-0.2,0.1-0.3,0.2c-0.3-0.1-0.5,0-0.7,0.1s-0.5,0.2-0.7,0.3
	c-0.8-0.1-1.5,0-2.3,0.3c-0.5,0.1-1,0.3-1.5,0.4s-1,0.3-1.5,0.4c-0.4,0.2-0.9,0.4-1.4,0.4c-0.4,0.3-0.9,0.5-1.4,0.6
	c-0.2,0-0.5,0.1-0.7,0.2c-0.4,0.2-0.9,0.4-1.4,0.5c-0.5,0.2-1,0.2-1.6,0.1c-0.1,0.1-0.3,0.2-0.4,0.1c-0.2,0-0.4,0-0.6,0.1
	c-0.3,0.1-0.7,0.3-1,0.4c0,0,0,0-0.1,0c-0.3,0.1-0.7,0.2-1,0.2s-0.7,0.1-1,0.2c-0.3,0.2-0.5,0.3-0.8,0.3c-0.3,0.1-0.7,0.2-0.9,0.4
	c-0.2-0.1-0.4-0.1-0.6,0s-0.5,0.2-0.7,0.2c-0.3-0.2-0.6-0.3-0.7-0.2c-0.1,0-0.3,0-0.4,0c-0.2-0.2-0.4-0.4-0.7-0.4
	c-0.2,0-0.3-0.1-0.5-0.1c-0.3-0.3-0.6-0.6-0.8-1c-0.1-0.1-0.3-0.3-0.5-0.5c-0.1-0.2-0.3-0.3-0.4-0.5c-0.1-0.3-0.3-0.6-0.5-0.8
	s-0.4-0.5-0.5-0.8c-0.5-0.5-0.8-0.8-0.8-1.1c-0.5-0.7-0.7-1-0.7-1.1s-0.1-0.2,0-0.3l-0.8-1c-0.3-0.4-0.5-0.8-0.6-1.3
	c-0.2,0.5-0.4,1-0.4,1.6c0,0.3,0,0.5,0,0.8c0,0.5,0.2,1,0.4,1.4c-0.1,0.1-0.2,0.4-0.1,0.5c0.1,0.2,0.1,0.5,0.1,0.7
	c0.1,0.3,0.1,0.6,0.1,0.8s0,0.3,0.1,0.4l0.2,1.2c0.2,0.5,0.5,1,0.6,1.5c0,0.2,0.1,0.3,0.1,0.4c0.4,0.4,0.7,0.8,0.9,1.3l0.5,1.1
	c0.3,0.4,0.6,0.8,0.9,1.3c0.5,0.5,0.8,0.9,1.1,1.2c0.9,0.7,1.3,1.1,1.4,1.4c0.5,0.2,0.9,0.4,1.3,0.8c0.3,0.1,0.5,0.2,0.7,0.3
	c0.1,0.1,0.2,0.1,0.4,0.2c0.1,0.1,0.3,0.2,0.5,0.3s0.4,0.2,0.5,0.3c0.4,0.1,0.7,0.1,1.1,0.1c0.6,0.2,1.3,0.3,1.9,0.3
	c0.4,0,0.8,0,1.1,0.1c0.5,0,1.1-0.1,1.6-0.2c0.2-0.1,0.5-0.2,0.7-0.2s0.3-0.1,0.4-0.2c0.2,0,0.5-0.1,0.7-0.1l0.3-0.1l1-0.5
	c0.1-0.1,0.2-0.2,0.3-0.2l1.1-0.4c0.3-0.2,0.6-0.4,0.8-0.7c0.1-0.2,0.2-0.3,0.3-0.4c0.3-0.2,0.5-0.4,0.8-0.5c0.1,0,0.2-0.1,0.1-0.2
	c0.3-0.1,0.6-0.2,0.8-0.4c0,0,0.1,0,0.2,0.1c0.3-0.1,0.5-0.2,0.8-0.1c0.1,0,0.2,0.1,0.2,0.1c0.2,0.1,0.4,0.3,0.6,0.4
	c0.2,0.2,0.4,0.3,0.7,0.4l0.7,0.8c0.1,0.1,0.2,0.2,0.3,0.2l0.5,1c0.2,0.3,0.4,0.5,0.6,0.7c0.1,0,0.2,0.1,0.2,0.2
	c0.1,0.4,0.3,0.7,0.5,1c0.1,0.1,0.2,0.2,0.3,0.2c0.1,0.3,0.3,0.6,0.5,0.8c0.2,0.1,0.3,0.3,0.5,0.5c0.2,0.1,0.3,0.3,0.4,0.4
	c0.1,0.2,0.3,0.3,0.4,0.4c0.1,0.5,0.3,1,0.5,1.5c0.1,0.2,0.2,0.5,0.2,0.7s0,0.3-0.1,0.5s-0.1,0.4-0.1,0.6c-0.5,0.7-0.8,1.2-0.9,1.4
	s-0.3,0.4-0.6,0.6c-0.3,0.2-0.6,0.4-0.9,0.5c-0.4,0.1-0.6,0.4-0.7,0.8c-0.2,0.1-0.5,0.1-0.7,0.1s-0.3,0.2-0.3,0.5
	c-0.4,0.2-0.7,0.3-1.1,0.4c-0.4,0.1-0.8,0.3-1.2,0.6c-0.5,0.2-1,0.4-1.5,0.6l-0.7,0.4c-0.5,0-1,0-1.5,0.2l-1.5,0.4l-0.8,0.2
	c-0.7,0.2-1.3,0.3-2,0.3c-0.4,0-0.8,0.1-1.2,0.2c-0.3,0.1-0.5,0.1-0.8,0.2c-0.2,0-0.5,0.1-0.7,0.2c-0.3,0-0.6,0-0.9-0.1
	c-0.3,0-0.6-0.1-0.8-0.2c-0.9,0-1.3,0.1-1.3,0.2c-0.2-0.1-0.4-0.2-0.6-0.2s-0.4,0-0.6-0.1c-0.5-0.1-1-0.2-1.5-0.4h-1.1
	c-0.3-0.1-0.6-0.1-0.9-0.2l-0.9-0.4c-0.4-0.1-0.7-0.2-1.1-0.3c-0.1,0-0.2,0-0.3-0.1l-1.4-0.7c-0.9-0.3-1.3-0.4-1.5-0.5
	c-0.2-0.2-0.4-0.3-0.7-0.4c-0.1,0-0.3,0-0.4-0.1c-0.2-0.2-0.4-0.4-0.7-0.6c-0.1-0.1-0.3-0.2-0.4-0.3c-0.2-0.3-0.5-0.5-0.8-0.6
	c-0.1,0-0.3-0.1-0.4,0l-1-1.1l-0.4-0.4c-0.2-0.3-0.5-0.6-0.7-0.9c-0.1-0.2-0.3-0.4-0.5-0.6l-1-1.2c-0.1-0.2-0.3-0.3-0.5-0.4
	c-0.1-0.2-0.2-0.4-0.3-0.5c-0.2-0.1-0.3-0.3-0.5-0.4c-0.2-0.3-0.3-0.7-0.4-1c0-0.1-0.1-0.2-0.4-0.1c-0.2-0.6-0.5-1.1-0.9-1.5
	c-0.2-0.5-0.3-0.7-0.4-0.8c0-0.1-0.1-0.2,0-0.3c-0.2-0.3-0.4-0.7-0.7-1c-0.4-0.5-0.8-1.1-1.1-1.7c-0.1-0.2-0.2-0.5-0.4-0.7
	c-0.1-0.1-0.2-0.1-0.3-0.2c-0.1-0.7-0.4-1.3-0.7-1.9c-0.2-0.3-0.3-0.6-0.2-1c-0.1-0.5-0.2-1-0.5-1.4c-0.2-0.2-0.3-0.4-0.3-0.6v-1.3
	c-0.1-0.4-0.1-0.9-0.1-1.3c-0.1-0.3-0.1-0.5-0.2-0.8s-0.1-0.6-0.2-0.9c0-0.4,0-0.9,0.1-1.3c-0.2-0.5-0.3-1-0.1-1.5
	c0.1-0.6,0.1-1.1,0.1-1.7c0.1-0.3,0.1-0.7,0.1-1s0.1-0.5,0.2-0.7L384.6,202.3z M416.3,195.2c-0.1-0.1-0.2-0.3-0.2-0.5
	c-0.1-0.2-0.1-0.5-0.2-0.7c-0.3-0.2-0.6-0.4-0.7-0.7c-0.2-0.3-0.5-0.5-0.8-0.6c-0.2-0.3-0.4-0.5-0.7-0.5c-0.3,0-0.6-0.2-0.8-0.5
	c-0.3-0.1-0.6-0.1-0.9-0.1s-0.6,0-0.9-0.1c-0.4-0.1-0.9-0.1-1.3,0c-0.4,0-0.7,0-1.1,0.1l-0.6,0.2c-0.2,0.1-0.4,0.1-0.5,0.1
	c-0.2,0-0.4,0-0.5,0c-0.5,0.4-1.1,0.7-1.8,1c-0.6,0.7-1,1.1-1.1,1.3c-0.4,0.5-0.6,0.7-0.7,0.8s-0.1,0.2-0.2,0.3
	c-0.4,0.4-0.7,0.8-1,1.3c-0.3,0.4-0.7,0.8-1.1,1.2c-0.1,0.2-0.3,0.4-0.4,0.6c-0.1,0.2-0.3,0.4-0.5,0.5c-0.1,0.5-0.3,0.9-0.5,1.3
	c-0.1,0.2-0.2,0.4-0.1,0.6c0.4-0.1,0.8-0.2,1.2-0.3c0.4-0.1,0.8-0.2,1.1-0.4c0.3,0,0.6,0,0.9-0.1c0.2-0.1,0.4-0.2,0.5-0.3
	c0.3-0.1,0.6-0.2,0.9-0.2l1.1-0.1c0.7-0.3,1.1-0.4,1.3-0.5l0.6-0.2c0.3-0.1,0.7-0.2,1-0.2s0.6,0,0.8-0.2c0.9-0.3,1.5-0.4,1.9-0.5
	c0.4,0,0.8,0,1.2-0.1c0.4-0.2,0.9-0.3,1.4-0.4c0.5-0.1,1-0.2,1.5-0.4c0.4-0.1,0.8-0.4,1.1-0.6c0.3-0.3,0.5-0.6,0.4-0.7
	C416.4,195.5,416.4,195.4,416.3,195.2L416.3,195.2z"/>
<path class="st0" d="M457.1,175.8l0.5,1.3c0.2,0.4,0.4,0.7,0.7,1.1c0.1,0.1,0.2,0.1,0.3,0.1c0,0.3,0.2,0.5,0.4,0.6
	c0.2,0.1,0.4,0.4,0.5,0.6c0.4,0.7,0.7,1.2,0.9,1.5c0.2,0.3,0.5,0.7,0.7,1c0,0.2,0.1,0.5,0.3,0.6c0.1,0.2,0.3,0.4,0.4,0.6
	c0.1,0.2,0.2,0.3,0.3,0.5c0.1,0.2,0.2,0.4,0.4,0.5c0.3,0.5,0.5,0.9,0.8,1.4c0.2,0.3,0.3,0.8,0.2,1.2c-0.6,0.6-1,0.9-1.1,0.9
	s-0.2,0.1-0.2,0.2c-0.4,0.1-0.9,0.3-1.3,0.5c-0.1,0.1-0.3,0.2-0.4,0.4c-0.7,0.4-1,0.6-1.1,0.6s-0.1,0-0.2,0.1
	c-0.2,0.1-0.3,0.3-0.5,0.4c-0.2,0.1-0.4,0.3-0.5,0.5c-0.2,0-0.4,0-0.5,0.1c-0.2,0.1-0.4,0.2-0.5,0.3c-0.2,0.2-0.5,0.4-0.7,0.6
	c-0.1,0.1-0.2,0.2-0.3,0.3c-0.2,0.3-0.5,0.6-0.6,0.9c-0.1,0.2-0.3,0.4-0.5,0.5c-0.3,0.5-0.4,0.7-0.3,0.8c0,0.1,0,0.2,0,0.3
	c-0.1,0.5-0.3,1-0.4,1.4c-0.1,0.2-0.1,0.4,0,0.6c0.2,0.5,0.4,0.7,0.5,0.7s0.2,0.1,0.1,0.2c0.1,0.4,0.2,0.8,0.2,1.2
	c0.3,0.4,0.6,0.7,1,1c0.2,0.1,0.4,0.3,0.5,0.5c0.2,0.2,0.4,0.4,0.6,0.6c0.1,0.1,0.2,0.1,0.2,0.2c0.2,0.3,0.4,0.5,0.6,0.8
	c0.1,0.2,0.2,0.3,0.3,0.4c0.2,0.7,0.4,1,0.5,1.1c0.2,0.1,0.3,0.2,0.4,0.4c0.3,0.5,0.6,0.9,0.7,1.1c0.1,0.2,0.4,0.3,0.6,0.4
	c0,0.3,0.2,0.6,0.4,0.8c0.2,0.2,0.5,0.4,0.6,0.7c0.1,0.2,0.2,0.5,0.4,0.7c0.1,0.2,0.4,0.4,0.6,0.5c0.3,0.5,0.6,1,0.8,1.5
	c0.1,0.3,0.2,0.5,0.5,0.6c0.3,0.7,0.5,1.1,0.6,1.5s0.3,0.7,0.5,1c0.1,0.3,0.2,0.6,0.3,0.8c0.1,0.1,0.1,0.2,0.1,0.4l0.2,1.4
	c0.1,0.8,0.2,1.3,0.3,1.5c0,0.2,0,0.4,0.1,0.6c0.1,0.2,0.1,0.4,0.1,0.6c0,0.2,0,0.4,0,0.6c0,0.2,0,0.3,0,0.5c0,0.5,0,0.8,0,1.1
	s0,0.6,0.1,0.9c-0.1,0.2-0.2,0.4-0.3,0.7c0,0.2-0.2,0.5-0.4,0.6c0,0.3,0,0.5-0.1,0.8c-0.1,0.2-0.2,0.4-0.3,0.6
	c-0.1,0.4-0.3,0.7-0.6,1c-0.1,0.1-0.1,0.2,0,0.3c-0.4,0.3-0.6,0.5-0.6,0.6s-0.1,0.2-0.2,0.3l-0.7,0.7c-0.1,0.1-0.1,0.2-0.1,0.3
	c-0.3,0.2-0.6,0.5-0.9,0.8c-0.2,0.3-0.3,0.5-0.4,0.6s-0.2,0.2-0.3,0.4c-0.2,0.3-0.3,0.5-0.5,0.7c-0.1,0.1-0.2,0.3-0.2,0.4
	c-0.2,0-0.5,0.1-0.6,0.3s-0.2,0.3-0.4,0.5c-0.4,0.3-0.6,0.5-0.6,0.6s-0.1,0.1-0.2,0.1c-0.4,0.5-0.6,0.9-0.8,1.1
	c-0.6,0.4-1.1,0.8-1.6,1.4c-0.7,0.6-1.3,1.1-1.7,1.5c-0.7,0.5-1.1,0.8-1.3,0.9c-0.2,0.1-0.3,0.2-0.4,0.3c-0.2,0.1-0.4,0.3-0.5,0.4
	l-0.3,0.3c-0.3,0.1-0.5,0.2-0.8,0.2s-0.5,0.1-0.7,0.3c-0.2-0.1-0.4-0.1-0.6,0c-0.1,0.1-0.3,0.1-0.4,0c-0.2,0-0.4-0.1-0.5-0.2
	c-0.2-0.2-0.3-0.3-0.5-0.4c-0.3-0.3-0.6-0.5-1-0.7c-0.1-0.3-0.2-0.5-0.4-0.8c-0.1-0.1-0.2-0.3-0.3-0.4c-0.3-0.3-0.6-0.7-0.9-1.1
	c-0.1-0.2-0.2-0.4-0.4-0.5c-0.5-0.7-0.7-1-0.8-1.1c-0.4-0.5-0.6-0.8-0.6-0.9c0-0.1-0.1-0.1-0.1-0.2c-0.1-0.3-0.3-0.6-0.5-0.8
	c-0.1-0.1-0.3-0.2-0.4-0.4c-0.2-0.4-0.4-0.8-0.5-1.2c0-0.1,0-0.2-0.1-0.3c-0.1-0.2-0.3-0.4-0.4-0.6c-0.1-0.2-0.2-0.4-0.4-0.6
	c0-0.3,0-0.6,0-0.8c0-0.1,0-0.2,0-0.2l1.3-0.8c0.1-0.1,0.3-0.2,0.5-0.3s0.4-0.3,0.4-0.5c0.2,0,0.4-0.1,0.5-0.1
	c0.2-0.1,0.3-0.2,0.4-0.4c0.5-0.3,0.8-0.4,0.8-0.5s0.1-0.2,0.1-0.2c0.5-0.2,0.9-0.4,1.2-0.5c0.2-0.3,0.5-0.6,0.8-0.9
	c0.1-0.1,0.3-0.2,0.4-0.4c0.3-0.3,0.6-0.5,0.9-0.9c0.2-0.5,0.4-0.8,0.5-0.9c0.1-0.1,0.2-0.2,0.2-0.3c0.1-0.7,0.2-1.4,0.1-2.1
	c-0.1-0.5-0.1-0.9-0.2-1.4c-0.3-0.2-0.5-0.5-0.6-0.8s-0.3-0.6-0.5-0.8c-0.3-0.4-0.6-0.8-0.8-1.2c0-0.1-0.1-0.3-0.2-0.4l-1.5-1.6
	c-0.1-0.2-0.2-0.3-0.3-0.4c-0.1-0.2-0.3-0.3-0.4-0.5c-0.2-0.4-0.5-0.8-0.9-1c-0.2-0.3-0.5-0.5-0.7-0.8c0,0,0-0.1-0.1-0.1l-0.9-0.9
	c-0.2-0.8-0.3-1.2-0.4-1.4c-0.2-0.2-0.4-0.5-0.5-0.8c0-0.2-0.1-0.4-0.2-0.6c-0.1-0.2-0.3-0.4-0.5-0.6c-0.2-0.2-0.3-0.4-0.4-0.6
	c-0.3-0.6-0.4-1.1-0.5-1.2c-0.1-0.1-0.1-0.3-0.1-0.4c-0.2-0.3-0.3-0.6-0.4-0.7c-0.1-0.1-0.2-0.3-0.2-0.4c0-0.4-0.1-0.8-0.3-1.2
	c-0.1-0.1-0.2-0.2-0.2-0.3c-0.3-0.7-0.6-1.5-1-2.2c0.1-0.5,0-1-0.1-1.5c-0.2-0.4-0.2-0.8,0-1.2c-0.2-0.4-0.3-0.9-0.2-1.3
	c0-0.5,0.1-0.9,0.4-1.3c0-0.4,0-0.9,0-1.3c0-0.3,0.2-0.6,0.4-0.8c0-0.4,0.2-0.9,0.5-1.2c0.2-0.4,0.5-0.7,0.8-1
	c0.2-0.3,0.5-0.6,0.6-0.9c0.1-0.1,0.1-0.2,0.2-0.3c0.4-0.7,0.7-1.2,0.8-1.5c0.2-0.5,0.4-0.7,0.5-0.7s0.3,0,0.4-0.1
	c0.4-0.4,0.8-0.9,1.1-1.4c0.2-0.4,0.6-0.7,1-0.9l0.6-1c0.7-0.3,1.3-0.7,1.9-1.3c0.4-0.1,0.7-0.2,1-0.4c0.2-0.1,0.4-0.3,0.7-0.5
	c0.3-0.3,0.6-0.5,0.9-0.7l0.3-0.1c0.2-0.1,0.4-0.2,0.6-0.2c0.2-0.1,0.5-0.2,0.7-0.4l1-0.5c0.5-0.1,1-0.3,1.5-0.7
	c0.4-0.1,0.8-0.2,1.3-0.2c0.4-0.1,0.8-0.1,1.2,0c0,0.1,0.1,0.1,0.2,0.1L457.1,175.8z"/>
<path class="st0" d="M493.4,178.4c0.4,0.1,0.8,0.1,1.1,0.1c0.3,0,0.7-0.1,1-0.2c0.4,0.1,0.8,0.2,1.2,0.2c0.1,0,0.2,0,0.3,0
	c0.4,0,0.7,0,1.1-0.1c0.1-0.1,0.3-0.1,0.4-0.1c0.5,0.2,1.1,0.3,1.6,0.4c0.3,0,0.6,0,0.9,0.1l0.8,1.1c0.1,0.1,0.1,0.2,0.1,0.3
	c-0.1,0.5-0.2,1-0.3,1.5c0,0.2,0.1,0.4,0.2,0.5c-0.1,0.4-0.2,0.9-0.1,1.4s0.1,1,0.1,1.5c0,0.2,0,0.4,0,0.5c0,0.3-0.1,0.6,0,0.8v1.7
	c0.1,0.5,0.1,1.1,0.1,1.6c-0.1,0.7-0.1,1.5,0,2.2c0,0.4,0,0.8-0.2,1.1c-0.3,0.4-0.6,0.8-1.1,1c-0.3,0.1-0.6,0.2-0.9,0.3
	c-0.8-0.2-1.7-0.3-2.6-0.2c-0.7,0-1.3,0.1-1.9,0.1c-0.5,0-1,0-1.4,0.1c-0.2,0.1-0.3,0-0.4-0.1c-0.1,0.5-0.2,0.9-0.2,1.4
	s-0.1,0.9-0.1,1.4s0,1,0,1.5s0,1,0.1,1.4l-0.1,2.3c0,0.4,0,0.8,0,1.2c0,0.1,0,0.2,0,0.3c0,0.4,0,0.8,0.1,1.2c0.1,0,0.1,0.1,0.1,0.2
	v1.2c0,0.3,0,0.6,0.1,0.8c0,0.8,0,1.5,0.2,2.3c0,0.3,0,0.7,0,1c0,0.2,0,0.4,0.1,0.5l-0.1,2l0.2,1.3c0,0.2,0,0.4,0,0.6
	c0,0.2,0.1,0.4,0.1,0.7l0.4,1.4c0.1,0.5,0.2,0.9,0.4,1.3c0.1,0.3,0.4,0.5,0.6,0.6c0.1,0.4,0.3,0.8,0.6,1.1c0.7,0.1,1,0.3,1,0.4
	c0,0.1,0.1,0.2,0.2,0.2c0.3,0.1,0.6,0.2,0.7,0.2s0.3,0.1,0.4,0.2c0.2-0.1,0.4-0.1,0.6,0s0.5,0.2,0.7,0.2s0.4,0,0.5,0
	c0.2,0,0.4,0,0.6-0.1c0.5,0.2,1.1,0.3,1.7,0.2c0.4,0,0.7,0,1.1,0h1.1c0.2,0.7,0.2,1.4,0.1,2.1c-0.2,0.2-0.3,0.4-0.4,0.7
	c0,0.1-0.1,0.2-0.3,0.3c-0.1,0.4-0.2,0.8-0.3,1.3c0,0.2-0.1,0.5-0.2,0.7c0,0.3-0.1,0.6-0.3,0.9c-0.1,0-0.1,0.1-0.1,0.1
	c0,0.4-0.1,0.8-0.2,1.2c-0.3,0.5-0.4,0.7-0.5,0.7s-0.1,0.1-0.2,0.2c0,0.3-0.1,0.5-0.2,0.7c-0.1,0.1-0.1,0.2-0.2,0.3
	c-0.2,0.6-0.3,0.9-0.3,0.9c0,0.1,0,0.1-0.1,0.1c-0.1,0.2-0.2,0.5-0.2,0.8s-0.1,0.5-0.2,0.8c-0.1,0.2-0.2,0.4-0.4,0.6
	c-0.1,0.2-0.3,0.4-0.4,0.6c-0.3,0.1-0.5,0.3-0.7,0.4c-0.2,0.2-0.4,0.3-0.5,0.4c-0.5,0-0.8,0-0.8,0.1c-0.1,0.1-0.2,0.1-0.2,0.1
	c-0.2-0.1-0.4-0.1-0.6,0s-0.4,0.1-0.5,0.1c-0.5,0.1-1,0.1-1.5,0c-0.7-0.1-1.5-0.2-2.2-0.5c-0.3,0-0.6,0-0.8-0.1c-0.1,0-0.3,0-0.4,0
	c-0.4-0.1-0.7-0.1-1.1-0.2c-0.3-0.1-0.7-0.2-1-0.1c-0.1-0.3-0.4-0.5-0.7-0.5c-0.3-0.1-0.7-0.2-1-0.3c-0.4-0.2-0.8-0.3-1.2-0.3
	c-0.1,0-0.2,0-0.3-0.1c-0.2,0-0.4-0.1-0.6-0.2c-0.2-0.1-0.5-0.3-0.6-0.4c-0.2-0.1-0.4-0.2-0.6-0.4c-0.2-0.1-0.4-0.3-0.6-0.4
	l-0.4-0.5c-0.2-0.2-0.4-0.2-0.6-0.2c-0.2-0.3-0.4-0.5-0.6-0.7c-0.1-0.1-0.3-0.2-0.4-0.3c-0.3-0.4-0.5-0.9-0.7-1.4
	c-0.1-0.2-0.2-0.4-0.4-0.6c-0.1-0.3-0.2-0.7-0.3-1c-0.1-0.2-0.2-0.4-0.4-0.5c0-0.4-0.1-0.8-0.3-1.1c-0.2-0.3-0.2-0.7-0.1-1
	c0-0.9-0.3-1.8-0.9-2.5c0-0.3,0-0.6-0.1-0.9c-0.1-0.1-0.1-0.2-0.1-0.3c0-0.2,0-0.4,0-0.5c0-0.2,0-0.4,0-0.6c0.1-0.2,0.1-0.4,0-0.5
	c-0.1-0.2-0.1-0.4-0.1-0.6c0-0.6,0-1.2-0.1-1.8c0-0.4,0-0.8,0-1.2c0-0.2,0-0.4,0-0.6v-1.2c-0.1-0.6-0.1-1-0.1-1.4
	c0-0.3-0.1-0.7-0.1-1V211c0-0.2,0-0.4-0.1-0.5c-0.1-0.2-0.1-0.4-0.1-0.5c0.2-0.4,0.2-0.9,0.2-1.3c-0.1-0.2-0.1-0.5-0.2-0.8
	c0-0.5,0-1,0-1.4c0-0.2,0-0.5,0-0.7c0-0.9,0-1.8,0-2.6s0-1.6,0-2.5c0.1-0.4,0.1-0.8,0-1.1c0-0.1-0.1-0.2,0-0.3c0-0.5,0-1.1,0-1.6
	s0-1.1-0.1-1.6c0.1-0.2,0.2-0.5,0.1-0.7c-0.1-0.3,0-0.6,0.1-0.9c-0.2-0.1-0.4-0.1-0.6-0.1s-0.4,0-0.6,0.1c-0.3-0.1-0.7-0.2-1-0.1
	c-0.2,0.1-0.4,0.1-0.6,0.1c-0.7,0.1-1.2,0.1-1.3,0.1c-0.2,0-0.4,0.1-0.5,0.3c-0.1-0.1-0.3-0.2-0.5-0.1c-0.2,0-0.4,0-0.5-0.1
	c-0.3-0.2-0.7-0.4-1.1-0.5c-0.1,0-0.3,0-0.4-0.1c-0.1-0.5-0.2-0.9-0.4-1.3c-0.2-0.3-0.3-0.5-0.3-0.8c0-0.2,0-0.4,0-0.5
	c0-0.2,0-0.4,0-0.5c0.1-0.3,0.1-0.5,0-0.8c-0.1-0.1-0.1-0.3-0.2-0.4c-0.1-0.5-0.1-0.9,0-1.4c0-0.2,0.1-0.5,0-0.7s-0.1-0.4,0-0.6
	c0-0.1,0.1-0.3,0-0.4c0-0.3,0-0.6-0.1-0.9c-0.1-0.1-0.1-0.2,0-0.3c-0.1-0.4-0.1-0.8,0-1.2s0.1-0.8,0-1.1c0-0.5,0-0.9,0-1.2
	c0.1-0.5,0.1-1,0-1.5c-0.1-0.3,0-0.6,0.1-0.9c0.4-0.4,0.7-0.8,1-1.2c0.5,0.1,1,0.2,1.4,0.2c0.2,0,0.4,0.1,0.5,0.2
	c0.3,0.2,0.6,0.3,0.9,0.2c0.2,0,0.5,0.1,0.6,0.2c0.6-0.1,1.2-0.1,1.7,0c0.6,0.1,1.2,0.1,1.7,0c0.1-0.3,0.1-0.7,0-1s-0.1-0.5,0-0.8
	c-0.1-0.6-0.1-1.1,0-1.7c0-0.6,0-1.2,0-1.7c-0.1-0.4-0.2-0.7-0.1-1.1c0,0,0.1-0.1,0-0.1c0-0.4-0.1-0.9-0.2-1.3
	c0-0.4-0.1-0.9-0.3-1.3c-0.1-0.2-0.1-0.4-0.1-0.5v-0.5c-0.2-0.2-0.3-0.5-0.2-0.7c0-0.2,0-0.4-0.1-0.5c0.1-0.2,0.1-0.5,0-0.7
	s-0.1-0.4-0.1-0.6c0-0.4,0-0.8,0-1.2c0-0.1,0-0.3,0-0.4c0-0.3,0-0.6,0.1-0.9c0.1-0.3,0.2-0.6,0.2-0.9c-0.3-0.6-0.4-1-0.3-1.1
	c0.1-0.2,0.1-0.3,0-0.5c0.3-0.2,0.5-0.5,0.8-0.6c0.3-0.2,0.6-0.4,0.8-0.6c0.3,0.1,0.5,0.1,0.8,0s0.5-0.1,0.8-0.1c0.4,0,0.9,0,1.3,0
	c0.1,0,0.2,0,0.4,0l1.5,0.1c0.2,0,0.4,0,0.6,0c0.2,0.1,0.3,0.1,0.5,0c0.5-0.1,0.9-0.2,1.4-0.2c0.1,0,0.3,0,0.4,0h1.6
	c0.4,0.1,0.9,0.1,1.3,0.1s0.9,0,1.3,0.1c0.2,0,0.5,0,0.7,0.1c0.3,0.1,0.6,0.1,0.8,0c0.6,0.3,1,0.5,1.1,0.6s0.1,0.2,0.1,0.4
	c0.6,0.4,0.9,0.6,0.8,0.7c0,0.1,0,0.1,0,0.2c0.2,0.1,0.3,0.4,0.3,0.6c0,0.2,0,0.4,0,0.6c-0.1,0.5-0.1,0.9-0.1,1.4
	c0.1,0.1,0.1,0.3,0.1,0.4c-0.1,0.4-0.1,0.9,0,1.3c0,0.1,0,0.3,0,0.4c-0.1,0.3-0.1,0.5-0.2,0.8s-0.1,0.5-0.2,0.8
	c0.1,0.4,0.1,0.9,0,1.3c-0.1,0.2-0.1,0.4-0.1,0.5c0,0.3,0,0.7-0.1,1c-0.1,0.1-0.1,0.2-0.1,0.3c-0.1,0.5-0.1,1.1-0.1,1.6v1.8
	c-0.1,0.3-0.1,0.6-0.2,1c-0.1,0.3-0.1,0.5-0.1,0.8c0,0.5,0,1.1,0,1.6C493.4,178.1,493.4,178.2,493.4,178.4z"/>
<path class="st1" d="M150.6,60.8c0.5,0.2,1,0.5,1.4,0.9l-1.2,1.4c-0.3-0.2-0.5-0.4-0.8-0.5s-0.6-0.2-0.9-0.2c-1.4,0-2.1,1.3-2.1,3.8
	c0,2.6,0.7,3.8,2.1,3.8c0.3,0,0.7-0.1,1-0.2c0.3-0.2,0.6-0.4,0.9-0.6l1.1,1.4c-0.4,0.4-0.9,0.8-1.4,1c-0.6,0.3-1.2,0.4-1.8,0.4
	c-0.8,0-1.7-0.2-2.4-0.7s-1.3-1.1-1.6-1.9c-0.4-1-0.6-2.1-0.6-3.2c0-1.1,0.2-2.1,0.6-3.1c0.3-0.8,0.9-1.5,1.6-2
	c0.7-0.4,1.5-0.7,2.4-0.7C149.5,60.5,150.1,60.6,150.6,60.8z"/>
<path class="st1" d="M164.6,60.9c0.6,0.2,1.1,0.6,1.5,1l-1.2,1.3c-0.6-0.5-1.3-0.9-2.1-0.9c-0.4,0-0.7,0.1-1,0.3
	c-0.2,0.2-0.4,0.5-0.4,0.8c0,0.2,0,0.4,0.2,0.6c0.1,0.2,0.3,0.4,0.6,0.5c0.4,0.2,0.8,0.4,1.2,0.5c0.6,0.2,1.1,0.5,1.6,0.8
	c0.4,0.3,0.8,0.6,1,1.1s0.3,1.1,0.3,1.6c0,0.6-0.2,1.3-0.5,1.8s-0.8,1-1.4,1.2c-0.7,0.3-1.4,0.5-2.1,0.5c-1.4,0-2.8-0.5-3.8-1.6
	l1.2-1.4c0.4,0.3,0.8,0.6,1.2,0.8c0.4,0.2,0.8,0.3,1.3,0.3c0.4,0,0.8-0.1,1.1-0.4c0.3-0.3,0.4-0.6,0.4-1s-0.1-0.7-0.4-1
	c-0.4-0.3-0.9-0.6-1.4-0.7c-0.9-0.3-1.7-0.8-2.3-1.4c-0.5-0.6-0.7-1.3-0.7-2c0-0.6,0.2-1.2,0.5-1.6c0.3-0.5,0.8-0.9,1.3-1.1
	c0.6-0.3,1.2-0.4,1.9-0.4C163.3,60.5,163.9,60.6,164.6,60.9z"/>
<path class="st1" d="M178.9,60.9c0.6,0.2,1.1,0.6,1.5,1l-1.1,1.3c-0.6-0.5-1.3-0.9-2.1-0.9c-0.3,0-0.7,0.1-0.9,0.3s-0.4,0.5-0.3,0.8
	c0,0.2,0,0.4,0.1,0.6c0.1,0.2,0.3,0.4,0.6,0.5c0.4,0.2,0.8,0.4,1.2,0.5c0.6,0.2,1.1,0.5,1.6,0.8c0.4,0.3,0.8,0.6,1,1.1
	s0.3,1.1,0.3,1.6c0,0.6-0.2,1.3-0.5,1.8s-0.8,1-1.4,1.2c-0.7,0.3-1.4,0.5-2.1,0.5c-1.4,0-2.8-0.5-3.8-1.6l1.2-1.4
	c0.4,0.3,0.7,0.6,1.2,0.8c0.4,0.2,0.8,0.3,1.3,0.3c0.4,0,0.8-0.1,1.1-0.4c0.3-0.3,0.4-0.6,0.4-1s-0.1-0.7-0.4-1
	c-0.4-0.3-0.9-0.6-1.4-0.7c-0.9-0.3-1.7-0.7-2.4-1.4c-0.5-0.6-0.7-1.3-0.7-2c0-0.6,0.2-1.2,0.5-1.6c0.3-0.5,0.8-0.9,1.3-1.1
	c0.6-0.3,1.2-0.4,1.9-0.4C177.6,60.5,178.3,60.6,178.9,60.9z"/>
<path class="st1" d="M191.5,64.8c0.4,0.4,0.6,1,0.6,1.5c0.1,1.1-0.8,2.1-2,2.1c-0.1,0-0.1,0-0.2,0c-0.6,0-1.1-0.2-1.5-0.6
	c-0.8-0.9-0.8-2.2,0-3.1C189.3,64,190.6,64,191.5,64.8L191.5,64.8z"/>
<path class="st1" d="M205.7,60.8v1.9l-4.3,7h4.4l-0.2,2h-7v-1.9l4.4-7.1h-3.9v-2L205.7,60.8z"/>
<path class="st1" d="M219.5,60.8l-0.3,1.8h-3.4v2.7h3v1.8h-3v2.8h3.6v1.8h-6.2v-11L219.5,60.8z"/>
<path class="st1" d="M234.9,71.8h-3.2l-2.7-8.6c0,0.1,0,0.2,0,0.3c0.1,0.8,0.2,1.5,0.2,2.1c0.1,0.6,0.1,1.3,0.1,2.2v4.1h-2.2v-11
	h3.1l2.8,8.7c-0.2-1.4-0.3-2.7-0.4-4.1V61h2.2L234.9,71.8z"/>
<path class="st1" d="M246.2,64.8c0.4,0.4,0.6,1,0.6,1.5c0,0.6-0.2,1.1-0.6,1.5c-0.4,0.4-1,0.6-1.5,0.6c-0.6,0-1.1-0.2-1.5-0.6
	c-0.8-0.9-0.8-2.2,0-3.1c0.4-0.4,1-0.6,1.5-0.6C245.2,64.2,245.8,64.4,246.2,64.8z"/>
<path class="st1" d="M262.3,61.9l-1.2,1.3c-0.3-0.3-0.6-0.5-1-0.6c-0.3-0.1-0.7-0.2-1-0.2c-0.7,0-1.3,0.3-1.7,0.9
	c-0.5,0.9-0.7,2-0.6,3c0,0.8,0,1.6,0.2,2.3c0.1,0.5,0.3,0.9,0.6,1.2c0.3,0.2,0.7,0.4,1.1,0.3c0.4,0,0.9-0.1,1.3-0.3v-2.6h-1.2
	l-0.2-1.8h3.9v5.4c-0.5,0.4-1.1,0.6-1.7,0.8s-1.3,0.3-1.9,0.3c-1.3,0.1-2.6-0.4-3.5-1.4c-0.8-1.3-1.2-2.8-1.1-4.3
	c0-1.1,0.2-2.2,0.6-3.2c0.4-0.8,1-1.5,1.7-1.9s1.6-0.7,2.5-0.6C260.2,60.5,261.4,61,262.3,61.9z"/>
<path class="st1" d="M275.5,71.8l-0.5-2.4h-2.8l-0.5,2.4h-2.6l3-11h3l2.9,11H275.5z M272.6,67.5h2l-1-4.9L272.6,67.5z"/>
<path class="st1" d="M288.4,67.5h-0.8v4.2h-2.5v-11h3.2c1.1-0.1,2.3,0.2,3.2,0.8c0.7,0.6,1.1,1.5,1.1,2.5c0.1,1.3-0.6,2.5-1.9,3
	l2.5,4.7h-2.8L288.4,67.5z M287.6,65.8h0.8c0.4,0,0.9-0.1,1.2-0.4c0.3-0.4,0.4-0.8,0.4-1.3c0-0.4-0.1-0.9-0.4-1.2
	c-0.4-0.3-0.8-0.4-1.3-0.4h-0.6L287.6,65.8z"/>
<path class="st1" d="M305.8,61.2c0.8,0.3,1.4,0.9,1.8,1.6c0.5,1,0.8,2.2,0.7,3.4c0,2-0.5,3.5-1.4,4.3c-1,0.9-2.3,1.3-3.6,1.2h-3.1
	v-11h2.9C304.1,60.7,305,60.9,305.8,61.2z M302.8,62.6v7.3h0.7c0.4,0,0.8-0.1,1.2-0.3c0.4-0.3,0.6-0.7,0.7-1.1
	c0.2-0.7,0.3-1.5,0.3-2.2c0-0.8-0.1-1.5-0.3-2.2c-0.1-0.4-0.4-0.8-0.8-1.1c-0.4-0.2-0.8-0.3-1.2-0.3h-0.6V62.6z"/>
<path class="st1" d="M322.2,60.8l-0.2,1.8h-3.4v2.7h3v1.8h-3v2.8h3.6v1.8H316v-11L322.2,60.8z"/>
<path class="st1" d="M337.6,71.8h-3.2l-2.7-8.6c0,0.1,0,0.2,0,0.3c0.1,0.8,0.2,1.5,0.2,2.1c0.1,0.6,0.1,1.3,0.1,2.2v4.1h-2.2v-11
	h3.2l2.7,8.6c-0.2-1.4-0.3-2.7-0.4-4.1v-4.5h2.2L337.6,71.8z"/>
</svg>
