<?xml version="1.0" encoding="utf-8"?>
<!-- Generator: Adobe Illustrator 25.4.1, SVG Export Plug-In . SVG Version: 6.00 Build 0)  -->
<svg version="1.1" id="Layer_1" xmlns="http://www.w3.org/2000/svg" xmlns:xlink="http://www.w3.org/1999/xlink" x="0px" y="0px"
	 viewBox="0 0 589.5 705.5" style="enable-background:new 0 0 589.5 705.5;" xml:space="preserve">
<style type="text/css">
	.st0{fill:none;}
	.st1{fill:#6F6166;}
</style>
<path class="st0" d="M3,164.7h585.5v536.4H3V164.7z M524.2,454.8c29.8-4,65.6-40.9,33.8-66c-1.5-2.5-7-3-4.3-6.5
	c15.1-23.4,15.5-53.1,15.1-80.1c-2.1-33.8-6.3-70.8-26.1-99.2c-24.9-33.3-73.2-29.1-105.2-8.7c-4.4,1.3-8.8,11.1-12.8,5.6
	c-0.7-1.6-2.1-2.8-3.8-3.3c-17.9-7-36.4-13.1-55.5-15.2c-14.5-2.5-29.3,0.2-43.7-2.6c-38.5-0.1-80.8,0.9-112.9,22.3l0.2,0.7
	c-16.1,5.6-3.1-5.1-25.2-15.5c-19-4-40.7-4.7-58.6,3.4c-2.1,1.8-3.6,1.1-5.6,0.6c-13.3-1.5-26.6,0.6-39.9,1.9l0.9,1
	c-3,0.6-6.9,0.5-9.5,1.7c-0.5,2.5-2,0.6-2.9,0.9c-2.8,1.8-5.7,3.2-9.4,2.7l0.6,1.1l-8.5,6c0.7,1.7-1,1.1-1.7,1.6
	c-4,4.9-6.5,10.5-10.7,15.2c-5.3,10.2-6.8,22.7-10.4,32.8c-3.9,16.6-3.7,34.8,2.4,51c1.2,5.1,6.8,9.4,5.5,14.7
	c-8.1,19.1-9.5,39.7-10.8,60.5c-3.6,19.5-2,39.1,12.3,54c-11.5,7.2-15.9,47.1-15.2,61c0.5,20.3,1.5,41.6,9.8,60.3
	c1.7,5.2,8.1,8.9,7.3,14.7c-18.2,17.9-20.6,49.8-11.8,73.1C46,680.7,60,682.3,97.7,683.3c37.5,2.5,75.1,2.2,112.6,0.8
	c42.5,0.8,84.4-2.2,126.7-6.3c44.2-3.2,85.3-0.8,109.4-44.4c6.6,26.2,35.5,34.6,59.6,31.8c13.8-2.6,30.9-4.7,38.9-17.4
	c2.5-7.7,6.8-14.2,9.5-21.9c1.4-14.7,6.7-28.6,9.3-43.1c3.4-22.8-0.6-45.3-3.5-67.8c-1.6-8.1-2.8-16.4-5-24.3
	c-0.9-1.9,0.6-5-2.7-5.7c-5.1-10.9-13.1-21.2-23.9-26.6C526.6,457.8,525.1,456.5,524.2,454.8z"/>
<path class="st1" d="M524.2,454.8c0.9,1.7,2.5,3,4.3,3.7c10.8,5.5,18.9,15.8,23.9,26.6c3.3,0.7,1.8,3.8,2.7,5.7
	c3,11.5,5,23.3,6.1,35.1c5,25.8,5.7,53.2-2.9,78.4c-2.8,8.5-2.4,18.1-5.8,26.2c-2.6,5.9-5.7,11.4-7.7,17.4
	c-7.9,12.7-25,14.7-38.9,17.4c-24.1,2.8-53-5.6-59.6-31.8c-24.3,43.7-64.9,41.2-109.4,44.5c-42.2,4.1-84.1,7.1-126.7,6.3
	c-37.5,1.5-75.1,1.7-112.6-0.8c-37.6-1-51.8-2.7-69.9-38.9c-8.9-23.3-6.4-55.2,11.8-73.1c0.7-5.9-5.6-9.5-7.3-14.7
	c-8.3-18.9-9.3-40.1-9.8-60.4c-0.7-14.5,3.6-53.4,15.2-61c-14.2-15-15.9-34.5-12.3-54c1.3-20.8,2.6-41.3,10.8-60.5
	c1.3-5.3-4.4-9.6-5.5-14.7c-6.1-16.2-6.3-34.4-2.4-51c3.6-10.2,5.1-22.6,10.4-32.8c4.2-4.7,6.8-10.3,10.7-15.2
	c0.6-0.4,2.3,0.1,1.7-1.6l8.5-6l-0.6-1.1c3.7,0.5,6.6-0.9,9.4-2.7c1-0.2,2.4,1.6,2.9-0.9c2.6-1.2,6.5-1,9.5-1.7l-0.9-1
	c13.3-1.2,26.6-3.4,39.9-1.9c1.9,0.5,3.5,1.2,5.6-0.6c17.9-8.1,39.6-7.4,58.6-3.4c22.2,10.3,9.1,21,25.2,15.5l-0.2-0.7
	c32.1-21.4,74.4-22.4,112.9-22.3c14.3,2.7,29.1,0.1,43.7,2.6c19.1,2.1,37.7,8.2,55.5,15.2c1.6,0.5,3,1.7,3.8,3.3
	c4,5.5,8.4-4.2,12.8-5.6c32-20.4,80.3-24.7,105.2,8.7c19.8,28.4,24,65.4,26.1,99.2c0.4,27.1,0,56.7-15.1,80.1
	c-2.7,3.5,2.8,4,4.3,6.5C589.7,413.8,554,450.9,524.2,454.8z M289.7,485.3c31.4-3.6,119.7-3.4,129.7-38.7
	c15.9-49.2,5.7-101.5,3.5-152c1.2-18.4,3.6-36.4,2.1-54.5c-0.8-31.5-15.4-36.5-43.2-43c-8-1.4-16-2.5-24-3.8
	c-4.1,0.2-2.8,7.4-4.5,10.3c-6.9,34.2-33,61.9-64.8,75.8c-38,14.1-112.1,25.1-117.4-31.1c-20.6,28.8-26.9,58.2,17.1,63.2
	c25.9,2.5,52.4,3.3,77.7-3.7l-0.3-0.9c7.5-1.1,13.5-5.2,21-6.4c4.5-0.8,7.1-5.1,11.6-5.6c3-4.7,8.9-4.9,14.1-6.6
	c-1.2-2.2,3.7-2.5,4.9-3.9c3.7-4.5,18.3-10.9,16.9-16.9c6.6-2.6,10.5,1.6,5.2,7.2c-7.9,6.3-15.7,13-24.5,18.3
	c-2,1.7-5.1,1.6-6.5,4.6c-1.1,3.3-5.6,3.1-8,5.3c-22.7,21.3-32.5,46.7-69,44.1c1.5,2.7,4.9,3.3,5.6,6.4c0.8,2.1,2.1,2.1,3.7,1.9
	c15.6-0.6,27.9-8.5,39.9-17.7l-0.4-0.5c7.6-6.7,10.8-17.9,19.7-22.7c-1.2-3.2,3.5-2.6,3.5-5.4c6.9-3.9,13.5-8.8,21.6-10.9
	c4.1-1.5,29.4-5.4,15.9,3.1c-8,0-16.2-0.4-22.8,5c-12.8,5.3-20.9,17-27.5,28.5c-13.7,15-30.1,25-51.1,25.8
	c2.7,9.6-4.5,16.6-6.6,25.2c-4.5,17.1,16.4,19.2,28.5,17c3.6-0.5,9-0.9,10.9-3.9c4.2-0.2,8.5,0.1,12.6-0.8
	c29.7-2.4,39.7,39.4,19.3,56.6c-4.3,3.3-14,2.5-14.9,8.6C287.3,470.6,291.3,477.7,289.7,485.3z M181.2,595.5
	c42.8-5.8,89.6-13.1,130.2,5.2c26.6,4.4,21.9,43.3,11.1,60.5c0.8,1-0.5,1.2-1.1,1.6c-4.9,6.2,16,0.8,19.4,1.2
	c21.7-1.7,44.4-1.9,64.9-10c31.7-11.7,38.8-52.1,24.8-80.2c-15.4-26.4-79.2-14.2-106.5-15.5c-49.5,1.4-98.8,1-148.2-0.6
	c-12.4-1.3-24.7,0.8-37.2,0.7c-13.3-0.8-27.1-0.5-39.9,1.7c-12.3,0.5-24.3,7.3-35.8,9.6c-2.8,2.1-5.8,4.7-8.7,6.4
	c-2.9,0.3-3.1,3.2-4.8,4.6c-19,24.2-16,67.9,11.8,85.1c7.6,3.7,17.5,2.1,26,3.3c15,1.4,31,3.4,45.5,2.5c-11.6-14-13.7-33.2-4.7-49
	c2.7-0.1,2.2-3.6,4.7-4.9c3.5-1.2,2.8-6.2,5.2-5.1l0.1-1.7c2.4,1,2.3-2,4.2-2.7l0.1,0.3l12.3-6.2c-0.1-0.4-0.1-0.4,3-0.8
	c0-0.5,0-0.9,0-0.9L181.2,595.5C181.2,595.6,181.2,595.3,181.2,595.5z M420.9,470.3c15,5,15,15.3,20.1,10.7
	c17.4-9.5,47.9-8.2,62,6.8c29.3,27.4,38.4,134.8-16.2,139.2c-7.8,1-33.3-1.8-23.9-14c11.9,8.7,20.1,9.2,34.3,4.7
	c0.5-2.2,3-1.6,4.1-3.1c0.9-1.3,3-1.8,3.8-3c3.4-3.9,6.1-8.6,9-12.6c10.1-31.3,8.6-88.9-20-110.2c-8.5-8.6-50.1-11.1-51.8,2.8
	c1.4,4.6,4.4,9.1,4.3,13.9c-0.5,2.1-0.1,2.8,2,2.9c14.1,0.7,30.4,1.7,40.2,13.2c13.1,15.2,25.3,55.7,2.3,66.6
	c-7.9,3.1-16.7-5.4-23.6,0.7c-2.5,1.7-4.2,2.5-5.1,5.8c-11.4,12.1-7,28.8-0.4,42.2c10.3,19.8,40.3,19,58.4,11.5
	c14-10,17.1-29.6,23.8-44.7c8.8-28.3,10-58.4,3.5-87.3c-0.8-21-10.5-41.8-29.2-52.4c-25.8-13.5-57.5-15.7-85.8-10.7
	c-3,0.6-2.9,4.5-4.4,6.7C426.5,463.9,423.2,466.6,420.9,470.3z M541.3,381.9c19.7-28.3,16.3-66.2,14.9-99.1
	c-1.1-10.4-3.8-20.2-6.7-30.2c-3.2-8.7-2.8-21.6-8.7-27.8l0.5-0.4c-8.3-21.1-30.9-34.3-53.5-33.6c-19.6,1.9-42.5,8.2-54.1,24.6
	c4.7,14.1,5.1,28.8,5,43.6c-0.4,8.3,11-2.1,15,5.1c13.4,5.7,11.9-15.9,19.6-21.7c10.6-16.2,31.3-10.3,36.8,6.7
	c4.5,30.1,8.1,62.5,1.9,92.4c-5.7,19.6-32.3,22-45.2,7.7c-10.3-8.2-12.9-26.1-27.9-27.5c1.8,7.3-0.5,15.6,2.3,22.5
	c16.1,17.9,42.5,31.4,66.5,22.1c26-12.4,17.4-61.2,17-85.4c-1-19.1-3.4-38.2-13.8-54.8c-13.1-16.4-39.2-8.4-48,8.4
	c-5.1,4.9-7.7,27.3-14,25.2c-2.1-2.4,1-6.1,1.7-8.7c1.1-14.9,10.4-29.5,24-36c27.2-13.9,45.2,5,52.3,30.5c6,32.1,12.8,87.3-3.7,116
	c-5.4,10-16.7,12.5-27.3,13.4c-20.4,3.4-39.8-8.8-54.9-21.2c-0.3,10.4,1.3,21.1,0.9,31.7c0,1.5-0.5,3.3,1,4.2
	C476.6,410.4,508,388.2,541.3,381.9z M107,544.7c8.7-33.1,9-69.1-0.8-102.4c-0.2-3.2-3.3-3.9-5.7-5.3c-8.1-4.9-14.9-11.7-19.8-19.8
	c-5.6,4.4-8.4,12.4-14.6,15.5c-3.2-0.9-3.5,2.3-4.1,3.5c-11.3,26.7-15.3,58.2-9.8,87.2l0.6-0.1c-0.4,0.8-0.8,1.5-1.5,2.9
	c-9.5-15.4-3.1-36.2-3-53.5c2.2-12.2,5.3-24.5,10.8-35.7c0.7-0.8-0.2-1.5-0.8-1.6C31.7,445.6,35.2,529.3,47,552
	c4.2,12.8,12.8,1.2,21.2,1.5C80.4,548.2,93.7,546,107,544.7z M304.8,443.3c5.9-11.4,4.3-27.3-7.2-34.7c-10-8-22.8-0.4-33.3,2.6
	c-18.7,5.1-17.6,21.2-31.7,30.1l0.3,0.9c-19.9,12.9-12,6.1-29.1,5c-7.4,6.8-19.9,4.8-28.5,1.3c-3.6-1-5.3-6.3-9-6.3
	c-0.1,0.7-0.2,1.8-0.4,1.8c-2.3,0.4-3.3,2.6-5.1,3.8c-3.2,6.5,4.3,14.8,9.8,18.5c28.4,14.8,60.9,15.4,92.2,17.6
	c4-1,16.9,3.8,18.1-0.7c1.2-1.7,2.5-0.2,1.9-3.7c-0.2-2.6-1.2-5.1-1.3-7.7c0-2.2-3-4.6,0.2-6.7c-0.1-2.8-0.5-7,1.4-9.1
	c5.3-5.9,17.2-4.4,19.9-12.2C303.1,443.2,304.2,443.4,304.8,443.3z M97.1,301.1l0.4,0.1c5.6-29,14.2-57.6,30.1-82.5
	c4.4,2.4,1.4,4.8-0.5,7.7c-9.5,17.7-16.6,36.6-21.1,56.2c-10.1,40.2-9.3,31.6,27.3,26c6.1-14.6,10.3-4.2,7.5-25.5
	c1.1-7.1,2.3-14.8,6.8-20.4c1.9-6.9,5.1-13.4,9.6-19l0.4,0.2l5.5-8.1l0.6,0.3l-0.4-1.5l0.6,0.3c4.7-6,11.5-10.7,16.9-16.4l-0.2-0.1
	c6.3-3.4,9.7-7.7,6.3-14.9c-14.7-10.8-47.8-8.5-62.7,1.9c-2,6-7.6,11.2-9.7,17.5c-3.6,3.6-4.3,10.9-7.5,13.4
	c-7.9,17.5-20.2,34.1-21.4,54.4c-0.6,6.5-1.6,13.1-1.5,19.7c1.5,3.6,7.3,2.1,10.4,3.2C96.1,309.3,95.6,305.5,97.1,301.1z
	 M270.2,544.9c14-0.3,29.3,0.2,43.9,0.1c6-1.2,13.7,2.2,18.4-2.2c2.8-3.5,7.9-3.2,10-7.1c5.4-6.8,14.4-40.7,2.2-42.5
	c-23.5,3.2-47.2,6-71,5c-10.1-1.1-20-1.7-29.2,3.2c-6.7,3.6-7.7,28.4-5.7,34.9c4.8,2.9,7.7,10.7,14,9.3c6,0.1,12-0.7,18-0.3
	L270.2,544.9z M441.5,400.2c-0.7,10.8-2.1,21.6-4,32.3c-0.3,2.9-5.2,13,0.8,11.1c25-5.9,50.1,3,74.5,4.1
	c18.8-5.7,42.1-13.2,46.7-34.7C547.5,360.5,503,429.5,441.5,400.2L441.5,400.2z M53.6,383.7l-0.2-1.4c2.9,0.1,8.3-1.9,8.8-3.2
	c7.7-0.8,12.8-11,21-11.2l-0.2-1c1.9-1.5,11-2.2,10.2-3.7c13-4.4,21.5,8,32.1,12.5c0.2-3.8,0.3-6.5,3.5-8.6
	c-0.3-2.3,2.9-2.8,3.2-4.8c0.1-6.8,1.8-12.8,6.9-17.5c4.1-3.9-7.8-11.5-7.3-21c-0.9-1.9,1.2-6.8-1.6-7c-7.3,1.1-14.6,2.8-22,3.4
	c-14,0.8-27-2.4-40.6,1.5c-4.6,1.4-9.2,1.4-13.8,1.2c-6.5,5.2-8,14-9.2,21.9c-1.6,10.4-4.1,21.3-2.3,31.6
	C41.5,383.4,48.6,383.3,53.6,383.7z M101.3,234.7c4.5,0.7,1.5-5,4.8-6.3c0.3-1,0.7-2,1.3-2.9c1.9-5.7,5.5-10.4,8.2-15.9
	c0-1.4,3.3-2.4,1.8-3.9l1.4-1.1c-17.6-3.5-37.2,0.5-53.1,8.4c-4.1-0.3-9.8,9.9-12.1,13.1c-12.7,18-23.2,80.5,3.4,89.5
	c2.2-0.1,1.2-2.6,1.3-3.9c0.3-15-1.1-30.3,2.1-45.1c1.4-11.6,4.2-23.1,6.8-34.5c2.6-3.3-0.4-9.8,4.3-11.7c6.5,1.4,0,11.5,0,15.9
	c-5.8,19.5-8.7,39.7-8.7,60c0.8,16.2-5.3,20.6,14.3,15.5l1.8-23.5l1.3,0.4c-0.1-12,5.4-23,11.4-33c2.6-7,5.9-13.7,9.9-19.9
	C101.7,235.9,101.6,235.6,101.3,234.7L101.3,234.7z M453.6,311.7c0,2.7,5.4,3.3,6.6,5.7c6.2,7,9.4,16.2,16,22.8
	c35.7,27.1,25.6-49.1,24.3-66.5c1.3-25.9-11.8-40.9-24.5-9.7c-4.1,9-14.5,16.9-24.5,13c-3.8-2.5-7.7-2.4-11.9-1.9
	c-5.6,4.4-2,23.6-2.9,31.2C436.5,312.9,445.5,306.9,453.6,311.7L453.6,311.7z M423.4,538.9l-0.4-0.3c16.8-13.7,14.2-45.3-3.6-57.4
	c-9.8-4.2-19.5-0.8-29,2.3c-6.2,3.8-14.8,2.1-19.7,7.4c-5.4,5.8-5.4,14.2-7,21.4c0.7,10.4-6,26.6,7.4,30.9c8.8,1,17.8,1.5,26.6,2.5
	C407,548.4,417.1,547,423.4,538.9z M217.8,540.3c8.9-6.3,11.7-46.3-3.5-46.7c-28.3-0.6-34.2-17-61.8,4.9
	c-10.3,11.3-11.5,31.6,0.4,42.5c8.6,5.6,20.1,1.5,29.9,2.4C194.5,542.1,207.9,548.7,217.8,540.3z M309.7,630.3
	c0.8-24.1-33.8-17.3-49.7-19.1c-8.1-2.4-15.8,27-18.3,33.4c-0.7,4.6-10.9,26.2-4,26.3c18.8-3,44.2,5.2,57.7-11.8
	C302.2,650.6,309.9,642.1,309.7,630.3L309.7,630.3z M226.7,388.1c0.8-1,0.8-3.5,1-5c0.1-4.9,3.7-9.5,5.9-13.8
	c4.7-22.8-18.2-21.2-31.2-10.4c-19.1,10.7-51.9,1.4-64.8,21.3c-1.4,4.5-2.1,9.8,0.2,14c0.8,0.3,1.6,0.3,2.4-0.1
	c2.5-1.9,5.8-1.5,8.4-3.1c11.6-3.8,32.2-8.2,36.8,7.2c11-3.9,26-7.4,34,4.9c10.3,11.6,5.2,23.8,3.1,36.4c4.9-0.1,7.6-6.7,10.6-7.4
	c-0.6-1.5,0.9-1.1,1.5-1.7c5.2-6.7,7.1-15.6,14.9-20.1C237,409.2,226,401.2,226.7,388.1L226.7,388.1z M205.2,671.4
	c-1.9-4.8,0.6-8.5,0.8-13.3c2.7-9.6,3.6-21.3,8.8-29.6c6.5-19.8,7.9-16.1-12.3-14c-15.4,0.4-32.1,0.3-45.7,8.5l-0.4-0.5
	c-21.5,16.7-5.4,32.1,6.4,48.4C176.4,673.6,191.2,670.2,205.2,671.4z M263.2,241.8c3.8-14.6,4-30.4,6.6-45.4
	c0.8-6-13.4,0.4-16.9,0.2c-8.5,12.1,3.2,44.4-20,43.9c-4.1-0.7-5.4-2.2-5.7-6.3c-1.3-2.2-1.9-4.8-1.7-7.4
	c-0.8-4.5,2.8-19.2-0.5-21.2c-2.3,3.7-7.7,4-10.5,6.8c-4.8,6.5-14.8,6.5-18.5,13.4c-4.4,19.1,0.5,38,22.2,41.7
	c9.8,2.3,23.8,5.3,31.6-3.3l-0.3-0.4c0.9-0.3,2.9,0.6,2-1.9l1.2,0.4c1.9-4,6.5-6.6,6.7-12C262.4,248.4,261,244.4,263.2,241.8
	L263.2,241.8z M484.2,534c-6.6-13.3-22.1-17.1-36-15.6c-4.2,0.9-2.7,7.7-4.8,10.9c-3.1,9.3-8.6,17.5-16.1,23.9
	c4.5,3.2,8.5,6.3,12.8,9.6c3.4,9.3,7.3,17.8,8.8,27.9c7-9.9,17.6-19.2,30.6-15.1c2.9,0.8,5.6,1.6,8.5-0.2
	C498.3,563,489,546.9,484.2,534L484.2,534z M171,610.6V610c31.9-3.2,63.8-5.4,95.8-6.3c31.5-2.4,62.7,5.9,46.1,44.1
	c-4,5.6-6.9,12.1-12.4,16.6c-0.6,0.8-2.6,1-1.5,2.8c11.4-2.2,13.9,2.6,19.2-9.3c7-14.5,12.1-39.7-3.2-50.6
	c-15.9-8-33-12.9-50.8-12.9c-31.9-1.4-94,1.3-120.2,19c-5.2,3.2-9.5,9.2-12.9,13.9c-1.9,7.6-5.1,16.1-3.1,23.8
	c1.9,6.5,4.5,12.5,9.2,17.6c3.7,5.3,11.3,2.6,17,2.7c-11.6-17.7-25.6-32.1-5.3-50.8l0.4,0.4c0.7-0.8,1.4-2.2,2.1-2.1
	c2.2,0.1,3.2-1.5,4.6-2.5c4.5-3.3,10.7-4.5,15.6-5.4L171,610.6z M338.4,192.4c-8.4,31.4-29.2,60.2-58.7,74.4
	c-31.4,12.9-100.3,14.1-87.6-37c0.1-0.9-1.1-2.2-2-1.3c0.2,1.7-1.3,2.1-2.2,2.7c-2.9,1.8-5.2,4.8-6.9,7.4c1,1-0.1,1.2-0.6,1.7
	c-15.8,61.6,99.2,47.3,124.8,21.3c3.2,0,4-3.2,6.8-4.1c3-1.7,4.8-4.5,7.5-6.7c4.7-1.8,5.3-7.9,9.4-10l-0.8-1
	c12.8-12.6,17.1-30,20.8-47.5L338.4,192.4z M111.7,543.9c47.9,1.9,7.5-2.7,20.9-38.9c1.6-3.6,2.4-7.8,4.6-11
	c-0.9-2.3,0.8-0.7,1.1-0.9c0.7-4,5.9-4.9,5.4-7.8c4.1-1.6,7.2-4.4,10.9-6.4c3,0.2,4.4-2,5.8-3.6c-3.3-3.6-6.4-7.4-9.8-10.6
	c-1-5.4-4.9-8.1-10.2-8.6c-8-1.6-13.6-6.5-17.7-13.3c-1.7-2.7-7.8-0.5-11.1-1.7c-1.6-0.1-1.6,0.5-1.2,1.9
	c2.9,11.5,4.8,23.3,5.9,35.1C118.6,500.3,115.5,522.2,111.7,543.9z M317.7,191.6c1.9,14.3-1.7,42.8-21.8,38
	c-12.7-5.8-4.5-26.4-4-37.6c-22.2,1.2-15.7-1.3-19.5,18.8c-7.9,40.6,0.6,69.1,37.4,27.6c7.2-10.3,16-21.1,19.8-34
	C338.9,188.6,330.6,191.9,317.7,191.6z M121.9,416.6c-2.2-5.5-2.6-11.6-1.1-17.4c1.5-1.3,2.3-3.3,2.2-5.3
	c-1.6-3.9,2.2-11.6-2.6-12.5c-9.1-4.4-15.4-14.1-26.8-10.9c-8.2,4.8,0.1,20.2-5,28.3c-9.4,18.2,13,34.9,30,35.4
	C119.4,428,116.2,420.9,121.9,416.6L121.9,416.6z M65.1,385.3c-13.1,11.1-26.7-0.4-25.9,5.2c-4.3,15,4.5,45.3,24.4,36.2
	c1.6-0.9,3.6-1.9,4-4.3c3-4.1,7.5-7.9,9.4-12.9c6.3-10,7.4-23.4,6.2-34.8C76.2,377.5,72.4,383.4,65.1,385.3z M267,326.8
	c8.1-2.6,11.6-13,17.6-18.9c-22.7,7.9-46,13.3-70.4,11.9c-5.1,4.7,1.4,13.3,6.2,16C234,343.8,259.8,340.6,267,326.8z M136.3,398.9
	c-0.8,2.7-6,11.9,0.5,10.9c0.7-1.9,2.3-0.8,3.4-1.6c13.5-6.4,37.4-18.2,38.9,6.2l11.6-5.9l-1-0.6c14.4-1.4,25.9-0.2,25.5,17.5
	c0.7,5.9-6,14.9,3.2,16.1c-0.2-7.9,4-15.1,3.5-23c-4.7-24.2-21.1-23.5-40-14.7C179.2,380.6,150.6,395,136.3,398.9z M160.6,437.5
	c7.8-5.9,10.6-14.6,10.8-23.9c1-11.9-16.4-2.6-21.8-2c0.7,2.7-1.4,1-2.2,1.6c-2.7,1.9-6,2.4-8.8,4.5c-10.6,6.2-5.1,25.2,7.1,25.7
	c3.8,0.6,7.6,1.1,10.4-2.1c1.3-1.1,3.2-1.5,3.1-3.5L160.6,437.5z M176.3,315.9c13,11.3,11.6,30.5,1.2,43c6.6,0.2,14-0.6,19.5-4.2
	c0.3-0.6,2.4-0.2,3.9-0.3l-0.7-1.2c4.6-0.1,7.5-4.7,11.6-6c17.2-1.9,11.5-0.5,0.8-8.7c-10.9-9.1-4.3-18.1-8.9-19.2
	C194.3,319.1,185.5,318.6,176.3,315.9z M145.9,365.3c9.6-1.9,20.8-4.3,27.8-11.7c11.6-11.9,6-39.6-13.5-36.5
	c-4.5,1.8-10.1,2.3-13.1,6.5c1,3.7,1.7,4.6,3.9,4.2c18.2-10.6,27.9,19,8.7,24.5C149.1,354.9,145.6,351.4,145.9,365.3L145.9,365.3z
	 M192.2,442.9c7.9,0.6,15.1-6.9,15.2-14.7c3.1-21-20.8-10.4-29.7-3.2c-2.1,2.7-1.1,6.9-3.4,9.8C172.6,443.5,186.1,442.5,192.2,442.9
	z M307.3,222.9c4.7-5.9,6.6-13.7,6.9-21.2c-0.5-3.1,1.3-8.6-1.6-10.4c-5.6,0.1-11.6-0.3-17.1,0.7
	C294.8,202.4,286.1,236.5,307.3,222.9L307.3,222.9z M218,671.1c-1.9-9.7,4.6-20.3,6.5-30.1l0.5,0.2c2.3-4.8,2.3-11,5.2-15.1
	c1.9-4.7,3.6-9,5.4-13.7c-3.6,1.1-11.4-1.9-11.2,3.5c-7.9,17.1-11.4,36.2-16.1,54.1C211.2,672,214.4,670.8,218,671.1z M231.1,203.4
	c-1.1,9.5-6.6,46.6,11.6,27.5c4.4-10,2.2-21.1,3.9-31.8C241.1,199.2,236.8,201.9,231.1,203.4z M248.6,611.9c-8.6,0.2-9.6,2-11.5,9.6
	c-4,7.9-6,16.6-8.9,25.3c-2,7.6-6.8,15.8-5.6,23.6c2.4,1.1,5.6,0.3,8.6,0.5c-0.9-14,5.3-28.7,10.2-41.6
	C242.9,623.4,248.9,617.5,248.6,611.9z M265.5,245.9c-3,19.2-27.7,26.6,0.8,21c0.4-0.1,1-0.1,1.2-0.3c2.4-2.4,7.1-0.4,9.5-3
	c-4.6-3.5-9-8.5-10-14.2C267.1,248.1,267.4,246.5,265.5,245.9z M162.5,311.2c-3.7-2.4-6.2-6-10-8.3c1.1,4.8-3.5,8-5,12.2
	C152.1,315.1,157.2,312.3,162.5,311.2L162.5,311.2z"/>
<path class="st0" d="M289.7,485.3c1.6-7.6-2.4-14.8-0.4-22.1c0.9-6,10.7-5.4,14.9-8.6c20.4-17.2,10.3-59.1-19.3-56.6
	c-4.1,0.9-8.4,0.6-12.6,0.8c-2,3-7.3,3.4-10.9,3.9c-12.1,2.2-33,0.1-28.5-17c2.1-8.6,9.3-15.6,6.6-25.2c21-0.8,37.3-10.8,51.1-25.8
	c6.7-11.5,14.8-23.3,27.5-28.5c6.6-5.4,14.8-5,22.8-5c13.5-8.4-11.9-4.6-15.9-3.1c-8.1,2.1-14.7,7-21.6,10.9c0,2.8-4.7,2.1-3.5,5.4
	c-8.9,4.8-12,16-19.7,22.7l0.4,0.5c-12,9.2-24.3,17.1-39.9,17.7c-1.6,0.2-3,0.3-3.7-1.9c-0.6-3.1-4.1-3.7-5.6-6.4
	c36.6,2.6,46.3-22.8,69-44.1c2.4-2.2,7-2,8-5.3c1.4-3,4.5-2.9,6.5-4.6c8.8-5.3,16.6-12,24.5-18.3c5.1-5.4,1.5-9.9-5.2-7.2
	c1.5,6-13.2,12.4-16.9,16.9c-1.2,1.3-6.1,1.6-4.9,3.9c-5.2,1.7-11.2,1.9-14.1,6.6c-4.6,0.5-7.1,4.7-11.6,5.6
	c-7.5,1.2-13.5,5.4-21,6.4l0.3,0.9c-25.3,7-51.8,6.2-77.7,3.7c-44-5-37.7-34.5-17.1-63.2c5.2,56.3,79.4,45.2,117.4,31.1
	c31.8-13.9,57.9-41.6,64.8-75.8c1.7-3,0.4-9.9,4.5-10.3c8,1.3,16,2.5,24,3.8c27.8,6.6,42.4,11.3,43.2,43c1.5,18.2-0.9,36.1-2.1,54.5
	c2.2,50.5,12.4,102.7-3.5,152C409.5,481.9,321,481.7,289.7,485.3z"/>
<path class="st0" d="M181.2,595.5C181.2,595.3,181.2,595.6,181.2,595.5l-23.4,5c0,0,0,0.5,0,0.9c-3.1,0.4-3.1,0.4-3,0.8l-12.3,6.2
	l-0.1-0.3c-1.9,0.8-1.8,3.7-4.2,2.7l-0.1,1.7c-2.8-0.9-1.4,3.7-5.2,5.1c-2.4,1.3-2,4.8-4.7,4.9c-8.9,15.7-7,35.3,4.7,49
	c-14.5,0.9-30.5-1.1-45.6-2.5c-8.5-1.2-18.4,0.4-26-3.3c-27.8-17.2-30.8-60.9-11.8-85.1c1.8-1.4,1.9-4.2,4.8-4.6
	c3-2,5.9-4.1,8.7-6.3c11.5-2.3,23.5-9.1,35.8-9.6c12.8-2.2,26.6-2.5,39.9-1.7c12.5,0.1,24.8-2,37.2-0.7c49.4,1.7,98.7,2,148.2,0.6
	c27.5,1.3,91-10.9,106.5,15.5c13.9,28.2,6.9,68.6-24.8,80.2c-20.5,8.1-43.2,8.3-64.9,10c-3.3-0.4-24.1,5-19.4-1.2
	c0.7-0.4,2-0.7,1.1-1.6c10.9-17.1,15.5-56.1-11.1-60.4C270.8,582.4,224,589.7,181.2,595.5z"/>
<path class="st0" d="M420.9,470.3c2.3-3.8,5.5-6.5,7.5-10.4c1.5-2.2,1.4-6,4.4-6.7c28.3-5,60-2.8,85.8,10.7
	c18.7,10.6,28.4,31.5,29.2,52.4c7.3,32.9,5.2,67.7-8,99c-4.6,11.6-8.4,25.9-19.3,33c-18,7.6-48.1,8.3-58.4-11.5
	c-6.6-13.4-11-30.1,0.4-42.2c0.9-3.4,2.5-4,5.1-5.8c6.8-6,15.7,2.4,23.6-0.7c23-10.9,10.9-51.4-2.3-66.6
	c-9.9-11.6-26.1-12.5-40.2-13.2c-2.2-0.2-2.5-0.8-2-2.9c0-4.8-2.9-9.3-4.3-13.9c1.6-13.9,43.3-11.4,51.8-2.8
	c28.6,21.2,30.1,78.8,20,110.2c-2.9,4-5.6,8.6-9,12.6c-0.8,1.3-2.8,1.8-3.8,3c-1.1,1.5-3.6,0.9-4.1,3.1c0,0.1-0.4,0.2-0.5,0.2
	c-13.9,4.3-22.2,3.6-33.8-4.9c-9.4,12.3,16,15,23.9,14c54.6-4.3,45.6-111.7,16.2-139.1c-14.1-15-44.6-16.2-62-6.8
	C435.8,485.5,436.1,475.4,420.9,470.3z"/>
<path class="st0" d="M541.3,381.9c-33.2,6.3-64.7,28.6-98.3,7.7c-1.5-0.9-1-2.7-1-4.2c0.4-10.5-1.2-21.3-1-31.7
	c15.1,12.4,34.5,24.6,54.9,21.2c10.6-0.9,21.9-3.4,27.3-13.4c16.4-28.6,9.7-83.9,3.7-116c-7.1-25.4-25.1-44.4-52.3-30.5
	c-13.6,6.6-22.9,21.2-24,36.1c-0.8,2.5-3.9,6.2-1.7,8.7c6.3,2,8.9-20.3,14-25.2c8.8-16.8,34.9-24.9,48-8.4
	c10.4,16.6,12.8,35.6,13.8,54.8c0.3,24.1,9.1,73-17,85.3c-23.9,9.3-50.4-4.2-66.5-22.1c-2.9-6.9-0.5-15.2-2.3-22.5
	c15,1.5,17.5,19.3,27.9,27.5c12.9,14.3,39.5,11.9,45.2-7.7c6.2-29.9,2.6-62.3-1.9-92.4c-5.4-16.9-26.1-22.9-36.7-6.7
	c-7.7,5.7-6.2,27.4-19.6,21.7c-4-7.1-15.3,3.3-15-5.1c0-14.8-0.4-29.5-5-43.6c12.9-17.5,38.6-24.9,60.1-24.4
	c20.5,1.5,39.8,14.2,47.5,33.4l-0.5,0.4c5.9,6.2,5.5,19.1,8.7,27.8c2.9,10,5.7,19.8,6.7,30.2C557.6,315.7,561,353.5,541.3,381.9z"/>
<path class="st0" d="M107,544.7c-13.3,1.4-26.6,3.5-38.8,8.9c-8.4-0.4-17,11.3-21.2-1.5c-11.9-22.7-15.4-106.4,11.3-116.5
	c0.6,0.1,1.5,0.7,0.8,1.6c-5.5,11.2-8.6,23.5-10.8,35.7c-0.2,17.3-6.5,38.1,3,53.6c0.7-1.4,1.1-2.1,1.5-2.9l-0.6,0.1
	c-5.5-29.1-1.5-60.5,9.8-87.2c0.7-1.2,0.9-4.3,4.1-3.5c6.2-3.1,9-11.1,14.6-15.5c4.9,8.1,11.7,14.9,19.8,19.8c2.4,1.4,5.5,2,5.7,5.3
	C116,475.6,115.7,511.6,107,544.7z"/>
<path class="st0" d="M304.8,443.3c-0.5,0.2-1.6-0.1-1.6,0.6c-2.6,7.8-14.5,6.2-19.9,12.2c-1.9,2.1-1.5,6.3-1.4,9.1
	c-3.2,2.1-0.3,4.5-0.2,6.7c0,2.6,1,5.1,1.3,7.7c0.5,3.5-0.6,1.9-1.9,3.7c-1,4.5-14.3-0.3-18.1,0.7c-31.3-2.2-63.8-2.8-92.2-17.6
	c-5.5-3.6-12.9-11.9-9.8-18.5c1.8-1.1,2.8-3.4,5.1-3.8c0.2,0,0.2-1.1,0.4-1.8c3.6,0,5.4,5.3,9,6.3c8.6,3.5,21,5.5,28.5-1.3
	c17.2,1.1,9.2,7.9,29.1-5l-0.3-0.9c14.2-9,12.8-24.8,31.7-30.1c10.5-3,23.2-10.6,33.3-2.6C309.1,416,310.7,431.9,304.8,443.3z"/>
<path class="st0" d="M97.1,301.1c-1.4,4.4-1,8.2-2.8,12.6c-3.1-1.1-9,0.4-10.4-3.2c0-6.6,1-13.1,1.5-19.7
	c1.3-20.3,13.5-36.9,21.4-54.4c3.3-2.5,4-9.8,7.5-13.4c2.2-6.4,7.7-11.6,9.7-17.6c14.8-10.4,48-12.7,62.7-1.9
	c3.4,7.2,0,11.5-6.3,14.9l0.2,0.1c-5.4,5.7-12.2,10.3-16.9,16.4l-0.6-0.3l0.4,1.5l-0.6-0.3l-5.5,8.1l-0.4-0.2
	c-4.5,5.6-7.8,12.1-9.6,19c-4.5,5.6-5.6,13.3-6.8,20.4c2.8,21.2-1.5,11-7.5,25.5c-46.2,8.8-34.1,10-23.5-40.4
	c3.9-11.2,7.3-23.2,13.3-33.5c2-3.4,3-7.8,5.8-10.7c2.1-1.8,0.7-4.4-1.3-5.3c-15.9,24.9-24.5,53.6-30.1,82.5L97.1,301.1z"/>
<path class="st0" d="M270.2,544.9l0.6,0.4c-8.2-1.7-18.7,3.9-25.2-2.5c-1.8-2.5-4.4-4.4-6.8-6.5c-2-6.5-1-31.3,5.7-34.9
	c9.2-4.9,19.1-4.4,29.2-3.2c23.8,1,47.4-1.8,71-5c12.3,1.8,3.1,35.8-2.2,42.5c-2.1,3.9-7.2,3.7-10,7.1c-4.7,4.5-12.5,1-18.4,2.2
	C299.6,545.1,284.2,544.6,270.2,544.9z"/>
<path class="st0" d="M441.5,400.2c58.4,27.6,98.3-31.2,115.3,3.9c8.8,14.5-8.9,29.9-21.3,35.3c-9.3,3.6-19.2,8.6-29.2,8.6
	c-22-5.4-45.4-8.4-68-4.5c-6.2,1.7-0.9-8.1-0.8-11.1C439.4,421.9,440.7,411.1,441.5,400.2z"/>
<path class="st0" d="M53.6,383.7c-5-0.5-12.2-0.3-11.5-7.2c-1.8-10.3,0.7-21.2,2.3-31.6c1.2-7.9,2.7-16.7,9.2-21.9
	c4.6,0.2,9.3,0.2,13.8-1.2c13.6-3.9,26.6-0.8,40.5-1.5c7.4-0.6,14.7-2.3,22-3.4c2.9,0.2,0.7,5.1,1.6,7c-0.4,9.6,11.4,16.9,7.3,21
	c-5.1,4.6-6.8,10.7-6.9,17.5c-0.3,2-3.6,2.5-3.2,4.8c-3.2,2.1-3.2,4.9-3.5,8.6c-10.5-4.5-19-16.9-32-12.5c0.8,1.5-8.4,2.3-10.2,3.7
	l0.2,1c-8.1,0.2-13.2,10.4-21,11.2c-0.4,1.2-5.8,3.3-8.8,3.2L53.6,383.7z"/>
<path class="st0" d="M101.3,234.7c0.2,0.8,0.4,1.2,0.4,1.2c-4,6.3-7.3,12.9-9.9,19.9c-6,10-11.5,21-11.4,33l-1.3-0.4L77.3,312
	c-19.6,5-13.6,0.9-14.3-15.5c0-20.3,2.9-40.5,8.7-60c0-4.5,6.4-14.6,0-16c-4.7,1.9-1.8,8.4-4.3,11.7c-2.5,11.4-5.4,22.9-6.8,34.5
	c-3.2,14.8-1.8,30.1-2.1,45.1c-0.2,1.4,0.9,3.8-1.3,3.9c-26.6-8.9-16.2-71.5-3.4-89.5c2.4-3.3,7.9-13.3,12.1-13.1
	c15.9-7.9,35.5-11.9,53.1-8.4l-1.4,1.1c1.4,1.5-1.8,2.6-1.8,3.9c-2.7,5.5-6.3,10.2-8.2,15.9c-0.6,0.9-1.1,1.8-1.3,2.9
	C102.8,229.8,105.8,235.5,101.3,234.7z"/>
<path class="st0" d="M453.5,311.7c-8.1-4.8-17,1.1-16.8-5.4c0.9-7.7-2.7-26.8,2.9-31.2c4.2-0.5,8.1-0.6,11.9,1.9
	c10,3.9,20.4-4,24.5-13c12.6-31.1,25.7-16.3,24.5,9.7c1.3,17.4,11.4,93.5-24.3,66.5c-6.6-6.6-9.8-15.8-16-22.8
	C458.9,315,453.5,314.4,453.5,311.7z"/>
<path class="st0" d="M423.4,538.9c-6.3,8.1-16.4,9.6-25.7,6.8c-8.9-1-17.8-1.5-26.7-2.5c-13.4-4.4-6.7-20.5-7.4-30.9
	c1.6-7.2,1.6-15.6,7-21.4c5-5.2,13.5-3.5,19.7-7.4c9.6-3.1,19.2-6.5,29-2.3c17.8,12.1,20.4,43.6,3.6,57.4L423.4,538.9z"/>
<path class="st0" d="M217.8,540.3c-9.9,8.4-23.3,1.8-35.1,3.2c-9.7-0.9-21.3,3.2-29.9-2.4c-11.9-10.9-10.6-31.3-0.4-42.5
	c27.6-22,33.4-5.5,61.8-4.9C229.6,494,226.7,534,217.8,540.3z"/>
<path class="st0" d="M309.7,630.3c0.2,11.8-7.5,20.3-14.3,28.9c-6,8.8-16.9,10.8-26.9,10.5c-8.2,0.7-16.4,0.9-24.6,0.7
	c-2.9-0.2-10.1,2.5-8.6-2.9c2.8-10,13.7-57.6,24.7-56.4C275.9,612.9,310.5,606.2,309.7,630.3z"/>
<path class="st0" d="M226.7,388c-0.7,13.2,10.3,21.1,22.6,22.3c-7.8,4.6-9.7,13.4-14.9,20.1c-0.5,0.5-2,0.2-1.5,1.7
	c-3,0.6-5.7,7.3-10.6,7.4c2-12.6,7.2-24.8-3.1-36.4c-8-12.4-23-8.8-34-4.9c-4.6-15.4-25.2-11-36.8-7.2c-2.6,1.5-5.9,1.1-8.4,3.1
	c-0.7,0.4-1.6,0.4-2.4,0.1c-2.3-4.3-1.6-9.5-0.2-14c13-19.9,45.8-10.6,64.8-21.3c12.9-10.8,35.9-12.4,31.2,10.4
	c-2.1,4.3-5.7,8.8-5.9,13.8C227.5,384.5,227.5,387,226.7,388z"/>
<path class="st0" d="M205.2,671.4c-13.9-1.2-28.8,2.3-42.3-0.4c-11.7-16.3-27.8-31.8-6.4-48.4l0.4,0.5c13.6-8.2,30.2-8.1,45.7-8.5
	c20.2-2.1,18.8-5.9,12.3,14c-5.3,8.3-6.1,19.9-8.8,29.6C205.8,662.9,203.3,666.6,205.2,671.4z"/>
<path class="st0" d="M263.2,241.8c-2.2,2.7-0.9,6.6-3.8,8.7c-0.1,5.4-4.8,8-6.7,12l-1.2-0.5c0.9,2.5-1.1,1.5-2,1.9l0.3,0.4
	c-7.7,8.6-21.7,5.5-31.6,3.3c-21.7-3.7-26.6-22.6-22.2-41.7c3.7-6.9,13.7-7,18.5-13.4c2.8-2.8,8.2-3.2,10.5-6.8
	c3.3,2.1-0.3,16.6,0.5,21.2c-0.3,2.6,0.3,5.2,1.7,7.4c0.2,4.2,1.6,5.6,5.7,6.3c23.3,0.5,11.6-31.7,20-43.8
	c3.6,0.1,17.6-6.2,16.9-0.2C267.2,211.4,267,227.1,263.2,241.8z"/>
<path class="st0" d="M484.2,534c4.9,12.8,14.2,29,4,41.4c-2.9,1.8-5.6,1-8.5,0.2c-13-4-23.6,5.2-30.6,15.1
	c-1.5-10.2-5.5-18.7-8.8-27.9c-4.3-3.3-8.2-6.4-12.8-9.6c7.4-6.3,13-14.6,16.1-23.9c2-3.2,0.5-10,4.8-10.8
	C462,517,477.6,520.8,484.2,534z"/>
<path class="st0" d="M171,610.6l0.7,0.4c-5,0.9-11.2,2.1-15.6,5.4c-1.5,1-2.4,2.7-4.6,2.5c-0.6,0-1.3,1.3-2.1,2.1l-0.4-0.4
	c-20.4,18.8-6.3,33.1,5.3,50.8c-5.8-0.1-13.3,2.6-17-2.7c-4.7-5.1-7.3-11.1-9.2-17.6c-2.1-7.7,1.2-16.3,3.1-23.8
	c3.4-4.6,7.8-10.6,12.9-13.9c26.2-17.7,88.2-20.5,120.2-19c17.9,0,34.9,4.9,50.8,12.9c15.3,10.9,10.2,36.1,3.2,50.6
	c-5.3,11.9-7.7,7.2-19.2,9.3c-1.1-1.8,0.8-2.1,1.5-2.8c5.5-4.4,8.4-10.9,12.4-16.6c16.5-38.2-14.5-46.5-46.1-44.1
	c-32,0.9-63.9,3.1-95.8,6.3L171,610.6z"/>
<path class="st0" d="M338.4,192.4H349c-3.7,17.5-8,34.9-20.8,47.5l0.8,1c-4.1,2.1-4.6,8.2-9.4,10c-2.7,2.2-4.5,5-7.5,6.7
	c-2.9,0.8-3.6,4.1-6.8,4.1c-25.6,26-140.6,40.3-124.8-21.3c0.5-0.5,1.6-0.7,0.6-1.7c1.7-2.6,4-5.6,6.9-7.4c0.9-0.5,2.4-1,2.2-2.7
	c1-0.8,2,0.3,2,1.3c-12.7,51.1,56.1,49.8,87.6,36.9C309.1,252.6,330,223.9,338.4,192.4z"/>
<path class="st0" d="M111.7,543.9c3.8-21.8,6.9-43.6,4.4-65.7c-1-11.8-3-23.6-5.9-35.1c-0.4-1.4-0.4-2,1.2-1.9
	c3.3,1.2,9.4-1,11.1,1.7c4.1,6.8,9.7,11.7,17.7,13.3c5.2,0.5,9.2,3.2,10.2,8.6c3.4,3.3,6.5,7,9.8,10.6c-1.4,1.6-2.8,3.8-5.8,3.6
	c-3.6,2-6.8,4.8-10.9,6.4c0.5,2.9-4.7,3.8-5.4,7.8c-0.2,0.1-2-1.5-1.1,0.9c-2.2,3.2-3,7.5-4.6,11
	C119.2,541.2,159.6,545.9,111.7,543.9z"/>
<path class="st0" d="M317.7,191.6c12.8,0.1,21.2-2.7,11.9,12.8c-3.8,12.9-12.5,23.7-19.8,34c-36.8,41.5-45.3,12.9-37.4-27.6
	c3.8-20-2.7-17.6,19.5-18.8c-0.5,11.2-8.7,31.7,4,37.6C316,234.4,319.6,205.9,317.7,191.6z"/>
<path class="st0" d="M121.8,416.6c-5.7,4.2-2.5,11.4-3.3,17.7c-17-0.5-39.4-17.2-30-35.4c5.2-8.1-3.2-23.5,5-28.3
	c11.3-3.1,17.7,6.6,26.8,10.9c4.8,0.9,1.1,8.6,2.6,12.5c0.1,2-0.7,3.9-2.2,5.3C119.3,405,119.6,411.1,121.8,416.6z"/>
<path class="st0" d="M65.1,385.3c7.3-1.9,11-7.8,18.1-10.7c1.1,11.4,0,24.9-6.2,34.8c-1.9,5-6.4,8.8-9.4,12.9
	c-0.4,2.5-2.3,3.4-4,4.3c-19.9,9.2-28.7-21.1-24.4-36.2C38.3,384.9,52,396.4,65.1,385.3z"/>
<path class="st0" d="M267,326.8c-7.2,13.8-32.9,17-46.5,9.1c-4.9-2.7-11.3-11.3-6.2-16c24.4,1.4,47.7-4,70.4-11.9
	C278.5,313.8,275,324.2,267,326.8z"/>
<path class="st0" d="M136.3,398.9c14.2-3.8,42.9-18.3,45.7,4.9c18.8-8.9,35.3-9.5,39.9,14.8c0.5,7.9-3.7,15-3.5,23
	c-9.3-1.2-2.5-10.1-3.2-16.1c0.4-17.7-11.1-18.8-25.5-17.5l1,0.6l-11.6,5.9c-1.5-24.5-25.4-12.6-38.9-6.2c-1.1,0.8-2.8-0.3-3.4,1.6
	C130.4,410.9,135.6,401.6,136.3,398.9z"/>
<path class="st0" d="M160.6,437.5l-1.5,0.1c0.1,2.1-1.8,2.4-3.1,3.5c-2.8,3.3-6.6,2.7-10.4,2.1c-12.2-0.5-17.6-19.5-7.1-25.7
	c2.8-2.1,6.1-2.6,8.8-4.5c0.8-0.6,3,1.1,2.2-1.6c5.3-0.6,22.8-9.9,21.8,2C171.2,423,168.4,431.7,160.6,437.5z"/>
<path class="st0" d="M176.3,315.9c9.2,2.8,18,3.3,27.4,3.4c4.5,0.8-1.9,10.2,8.9,19.2c10.7,8.2,16.3,6.9-0.9,8.7
	c-4.1,1.3-7.1,5.9-11.6,6l0.7,1.2c-1.5,0.1-3.6-0.3-3.9,0.3c-5.5,3.6-12.9,4.4-19.5,4.2C187.9,346.3,189.3,327.1,176.3,315.9z"/>
<path class="st0" d="M145.9,365.3c-0.4-13.9,3.2-10.4,13.8-13c19.2-5.5,9.5-35-8.7-24.5c-2.2,0.4-3-0.5-3.9-4.2
	c3-4.2,8.6-4.7,13.1-6.5c19.5-3,25.1,24.6,13.5,36.5C166.7,361,155.5,363.4,145.9,365.3z"/>
<path class="st0" d="M192.2,442.9c-6.2-0.3-19.7,0.6-17.9-8.1c2.3-2.9,1.2-7.1,3.4-9.8c8.9-7.1,32.8-17.8,29.7,3.2
	C207.3,436,200.2,443.5,192.2,442.9z"/>
<path class="st0" d="M307.3,222.9c-21.2,13.6-12.5-20.5-11.8-30.9c5.5-1,11.5-0.6,17.1-0.7c3,1.8,1.1,7.3,1.6,10.4
	C313.9,209.2,312.1,217.1,307.3,222.9z"/>
<path class="st0" d="M218,671.1c-3.5-0.3-6.8,0.9-9.7-1.1c4.7-17.9,8.2-37,16.1-54.1c-0.2-5.4,7.6-2.4,11.2-3.5
	c-1.9,4.7-3.6,9-5.4,13.7c-2.9,4.1-2.9,10.3-5.2,15.1l-0.5-0.2C222.6,650.8,216,661.3,218,671.1z"/>
<path class="st0" d="M231.1,203.4c5.7-1.5,10.1-4.1,15.5-4.3c-1.7,10.7,0.5,21.8-3.9,31.8C224.4,250,230,212.9,231.1,203.4z"/>
<path class="st0" d="M248.6,611.9c0.3,5.6-5.8,11.6-7.2,17.4c-4.9,12.9-11.1,27.6-10.2,41.6c-3-0.2-6.2,0.6-8.6-0.5
	c-1.2-7.8,3.6-16,5.6-23.6c2.8-8.6,4.9-17.4,8.9-25.3C239,613.9,240.1,611.9,248.6,611.9z"/>
<path class="st0" d="M265.5,245.9c1.8,0.6,1.5,2.2,1.6,3.4c0.9,5.7,5.4,10.7,10,14.2c-2.5,2.6-7.1,0.7-9.5,3
	c-0.1,0.2-0.8,0.2-1.2,0.3C237.9,272.5,262.5,265,265.5,245.9z"/>
<path class="st0" d="M162.5,311.2c-5.3,1.1-10.4,3.9-15,3.9c1.4-4.2,6.1-7.4,5-12.2C156.3,305.3,158.8,308.9,162.5,311.2z"/>
</svg>
