<svg id="Layer_1" data-name="Layer 1" xmlns="http://www.w3.org/2000/svg" viewBox="0 0 114.29 103.71"><defs><style>.cls-1{fill:#eae2db;}.cls-2{fill:#d4c5b6;}.cls-3{fill:#666;}</style></defs><rect class="cls-1" x="9.85" y="11.53" width="93" height="82.97" rx="23.3"/><path class="cls-2" d="M79.55,15a19.82,19.82,0,0,1,19.8,19.8V71.2A19.82,19.82,0,0,1,79.55,91H33.15a19.82,19.82,0,0,1-19.8-19.8V34.83A19.82,19.82,0,0,1,33.15,15h46.4m0-7H33.15a26.8,26.8,0,0,0-26.8,26.8V71.2A26.8,26.8,0,0,0,33.15,98h46.4a26.8,26.8,0,0,0,26.8-26.8V34.83A26.8,26.8,0,0,0,79.55,8Z"/><path class="cls-3" d="M22.34,47.66a12.57,12.57,0,0,1,2-.15,3.34,3.34,0,0,1,2.27.67,2.18,2.18,0,0,1,.71,1.69,2.38,2.38,0,0,1-.63,1.73,3.37,3.37,0,0,1-2.47.88,3.61,3.61,0,0,1-.84-.07v3.24h-1Zm1,3.9a3.58,3.58,0,0,0,.87.08c1.26,0,2-.61,2-1.72s-.75-1.59-1.9-1.59a4.21,4.21,0,0,0-1,.09Z"/><path class="cls-3" d="M28.72,47.57h1.05v7.21h3.45v.87h-4.5Z"/><path class="cls-3" d="M35.7,53.11l-.84,2.54H33.78l2.74-8.08h1.26l2.76,8.08H39.43l-.87-2.54Zm2.65-.82L37.55,50c-.18-.53-.3-1-.42-1.48h0c-.12.48-.25,1-.41,1.46l-.79,2.34Z"/><path class="cls-3" d="M47.2,55.39a5.2,5.2,0,0,1-2.13.38,3.78,3.78,0,0,1-4-4.09,4,4,0,0,1,4.22-4.24,4.22,4.22,0,0,1,1.92.36l-.25.85a3.66,3.66,0,0,0-1.63-.34,3,3,0,0,0-3.15,3.33,2.94,2.94,0,0,0,3.1,3.26A4.26,4.26,0,0,0,47,54.56Z"/><path class="cls-3" d="M52.7,51.86H49.56v2.92h3.5v.87H48.51V47.57h4.37v.87H49.56V51H52.7Z"/><path class="cls-3" d="M55.46,47.57V51h3.91V47.57h1.05v8.08H59.37V51.86H55.46v3.79h-1V47.57Z"/><path class="cls-3" d="M69.15,51.52c0,2.79-1.69,4.26-3.76,4.26s-3.63-1.65-3.63-4.1,1.6-4.24,3.75-4.24S69.15,49.13,69.15,51.52Zm-6.27.14c0,1.72.93,3.27,2.57,3.27S68,53.41,68,51.57c0-1.6-.83-3.28-2.57-3.28S62.88,49.88,62.88,51.66Z"/><path class="cls-3" d="M70.51,47.57h1v7.21H75v.87h-4.5Z"/><path class="cls-3" d="M76.17,47.68a14.44,14.44,0,0,1,2.22-.17,4.6,4.6,0,0,1,3.27,1,3.74,3.74,0,0,1,1.14,2.91,4.24,4.24,0,0,1-1.16,3.14,5,5,0,0,1-3.57,1.16,17,17,0,0,1-1.9-.09Zm1,7.14a6.45,6.45,0,0,0,1.06.06,3.1,3.1,0,0,0,3.44-3.43c0-1.9-1.07-3.12-3.27-3.12a6,6,0,0,0-1.23.11Z"/><path class="cls-3" d="M88.35,51.86H85.21v2.92h3.5v.87H84.16V47.57h4.37v.87H85.21V51h3.14Z"/><path class="cls-3" d="M90.07,47.68a10.58,10.58,0,0,1,2-.17,3.31,3.31,0,0,1,2.34.66A2,2,0,0,1,95,49.7a2.13,2.13,0,0,1-1.52,2.07v0a2,2,0,0,1,1.19,1.63,12.33,12.33,0,0,0,.62,2.22H94.25a10.79,10.79,0,0,1-.54-1.93c-.24-1.12-.67-1.54-1.62-1.57h-1v3.5h-1Zm1,3.68h1.07c1.11,0,1.82-.61,1.82-1.54s-.75-1.5-1.86-1.51a4.15,4.15,0,0,0-1,.1Z"/></svg>